<svg width="96" height="96" viewBox="0 0 96 96" fill="none" xmlns="http://www.w3.org/2000/svg">
<path d="M62.1484 6.05516C62.1484 6.85439 61.5009 7.50192 60.7016 7.50192C59.9024 7.50192 59.2548 6.85439 59.2548 6.05516C59.2548 5.25593 59.9024 4.6084 60.7016 4.6084C61.5009 4.6084 62.1484 5.25593 62.1484 6.05516Z" fill="#6692A9"/>
<path d="M31.1041 9.08947C31.1041 9.8147 30.5157 10.403 29.7905 10.403C29.0653 10.403 28.477 9.8147 28.477 9.08947C28.477 8.36425 29.0653 7.77593 29.7905 7.77593C30.5157 7.77593 31.1041 8.36425 31.1041 9.08947Z" fill="#6692A9"/>
<path d="M66.5219 10.9726C67.3101 10.9726 67.9465 10.3362 67.9465 9.5481C67.9465 8.75997 67.3101 8.12354 66.5219 8.12354C65.7338 8.12354 65.0974 8.75997 65.0974 9.5481C65.0974 10.3362 65.7338 10.9726 66.5219 10.9726Z" fill="#6692A9"/>
<path d="M89.4665 27.9823C89.4665 29.2293 88.4564 30.2394 87.2094 30.2394C85.9625 30.2394 84.9523 29.2293 84.9523 27.9823C84.9523 26.7354 85.9625 25.7253 87.2094 25.7253C88.4564 25.7253 89.4665 26.7354 89.4665 27.9823Z" fill="#6692A9"/>
<path d="M9.17703 30.1949C10.4018 30.1949 11.3934 29.2033 11.3934 27.9785C11.3934 26.7538 10.4018 25.7621 9.17703 25.7621C7.95228 25.7621 6.96064 26.7538 6.96064 27.9785C6.96064 29.2033 7.95228 30.1949 9.17703 30.1949Z" fill="#6692A9"/>
<path d="M5.73588 34.6759C5.73588 35.4122 5.14015 36.0079 4.40382 36.0079C3.66749 36.0079 3.07178 35.4122 3.07178 34.6759C3.07178 33.9395 3.66749 33.3438 4.40382 33.3438C5.14015 33.3438 5.73588 33.9395 5.73588 34.6759Z" fill="#6692A9"/>
<path d="M92.0418 37.6545C92.9558 37.6545 93.6958 36.9144 93.6958 36.0005C93.6958 35.0866 92.9558 34.3465 92.0418 34.3465C91.1279 34.3465 90.3878 35.0866 90.3878 36.0005C90.3878 36.9144 91.1279 37.6545 92.0418 37.6545Z" fill="#6692A9"/>
<path d="M4.87747 53.739C4.08934 53.5096 3.64533 52.6549 3.88584 51.826C4.12634 50.9972 4.96258 50.5125 5.75071 50.7419C6.53884 50.9713 6.98286 51.826 6.74235 52.6549C6.50184 53.4837 5.6656 53.9684 4.87747 53.739Z" fill="#6692A9"/>
<path d="M86.277 55.2707C87.0614 55.2707 87.6942 54.638 87.6942 53.8536C87.6942 53.0691 87.0614 52.4364 86.277 52.4364C85.4926 52.4364 84.8598 53.0691 84.8598 53.8536C84.8598 54.638 85.4926 55.2707 86.277 55.2707Z" fill="#6692A9"/>
<path d="M11.4304 56.5883C10.9235 56.6068 10.498 56.1369 10.4758 55.5374C10.4536 54.938 10.8458 54.4385 11.349 54.42C11.8559 54.4015 12.2814 54.8714 12.3036 55.4708C12.3258 56.0703 11.9336 56.5698 11.4304 56.5883Z" fill="#6692A9"/>
<path d="M6.09107 67.6958C6.12807 67.7328 6.19098 67.7328 6.23168 67.6958L8.70339 65.2167C8.74039 65.1797 8.74039 65.1168 8.70339 65.0761L6.19838 62.5785C6.16138 62.5415 6.09847 62.5415 6.05777 62.5785L3.58608 65.0576C3.54907 65.0946 3.54907 65.1575 3.58608 65.1982L6.09107 67.6958Z" fill="#6692A9"/>
<path d="M76.7899 77.9341C76.7899 78.8591 76.0387 79.6103 75.1137 79.6103C74.1887 79.6103 73.4375 78.8591 73.4375 77.9341C73.4375 77.009 74.1887 76.2579 75.1137 76.2579C76.0387 76.2579 76.7899 77.009 76.7899 77.9341Z" fill="#6692A9"/>
<path d="M24.6843 84.7279C24.6362 85.6048 25.2541 86.3449 26.0682 86.3893C26.8785 86.4337 27.5778 85.764 27.6259 84.887C27.674 84.0101 27.0561 83.27 26.2421 83.2256C25.4281 83.1849 24.7287 83.8547 24.6843 84.7279Z" fill="#6692A9"/>
<path d="M71.6799 85.0791C71.6799 85.8302 71.0694 86.4408 70.3183 86.4408C69.5671 86.4408 68.9566 85.8302 68.9566 85.0791C68.9566 84.328 69.5671 83.7175 70.3183 83.7175C71.0694 83.7175 71.6799 84.328 71.6799 85.0791Z" fill="#6692A9"/>
<path d="M19.9852 87.2882C20.6179 87.2882 21.1322 86.7739 21.1322 86.1411C21.1322 85.5084 20.6179 84.9941 19.9852 84.9941C19.3525 84.9941 18.8381 85.5084 18.8381 86.1411C18.8381 86.7739 19.3525 87.2882 19.9852 87.2882Z" fill="#6692A9"/>
<path d="M34.5341 91.4102C33.4315 91.2252 32.7062 90.0967 32.9134 88.8979C33.117 87.699 34.1752 86.8776 35.2778 87.0663C36.3805 87.2513 37.1057 88.3798 36.8985 89.5787C36.6913 90.7775 35.6331 91.5989 34.5341 91.4102Z" fill="#6692A9"/>
<path d="M61.4897 90.6037C62.2187 90.6037 62.8107 90.0117 62.8107 89.2827C62.8107 88.5538 62.2187 87.9618 61.4897 87.9618C60.7608 87.9618 60.1688 88.5538 60.1688 89.2827C60.1688 90.0117 60.7608 90.6037 61.4897 90.6037Z" fill="#6692A9"/>
<path fill-rule="evenodd" clip-rule="evenodd" d="M21.6795 35.1083C16.762 36.4367 12.4292 38.9676 8.67353 42.6974L7.35999 43.9258C7.26748 44.0146 7.26008 44.1108 7.34148 44.2107C11.1193 48.884 15.8814 52.1031 21.6278 53.8681C21.7721 53.9125 21.7832 53.9828 21.6684 54.0753C16.2329 58.5229 14.9897 64.5874 14.3496 71.3106C14.3385 71.4401 14.394 71.5178 14.5161 71.5437C19.5446 72.6464 25.0578 72.6871 29.3944 69.5049C29.4906 69.4346 29.6275 69.4975 29.6386 69.6159C29.8532 72.4688 30.2898 75.2883 30.9484 78.0671C31.0076 78.3187 31.1593 78.4038 31.4072 78.3261L37.1425 76.4353C37.3645 76.3613 37.605 76.476 37.6938 76.6943C39.7141 81.708 43.1219 85.386 47.5214 88.927C47.6176 89.0047 47.7249 89.0269 47.8396 89.001C48.2471 88.9011 48.5332 88.6275 48.7775 88.3938C48.877 88.2986 48.9696 88.2101 49.0606 88.1426C53.1123 85.1196 56.1427 81.2788 58.1593 76.6129C58.2074 76.5019 58.2888 76.4649 58.4035 76.5056L64.5384 78.611C64.8529 78.7183 65.197 78.5481 65.2969 78.2299C66.0913 75.7725 66.2272 73.4649 66.3734 70.9835C66.4022 70.4946 66.4314 69.9987 66.4661 69.4938C66.4772 69.3199 66.5512 69.2866 66.6881 69.3939C71.3688 72.9646 76.8635 72.7315 82.1511 71.54C82.2917 71.5067 82.3509 71.4216 82.3287 71.281C81.3814 64.8539 79.6535 58.1973 74.2919 53.9754C74.2253 53.9199 74.2475 53.8126 74.3326 53.7941C80.301 52.3769 84.7967 48.5954 88.9297 44.2736C89.0222 44.1774 89.0222 44.0812 88.9334 43.9813C84.6709 39.3598 79.4906 36.2739 73.3891 34.7235C73.2374 34.6828 73.2263 34.6199 73.3595 34.5311C78.2474 31.3305 79.5573 23.9672 79.9125 18.491C79.9273 18.2579 79.7571 18.0581 79.5277 18.0359C74.4918 17.5179 68.9859 17.7732 64.494 20.7C64.3312 20.8073 64.2461 20.7629 64.2424 20.5668C64.2091 19.2902 63.9685 18.0692 63.5245 16.9036C63.321 16.3745 62.9732 16.245 62.4811 16.5225C61.408 17.1182 60.2832 17.5882 59.1066 17.9286C59.0695 17.9397 59.0325 17.9619 59.0066 17.9915L58.3332 18.6427C58.2333 18.7389 58.0705 18.7019 58.0224 18.5724C56.2648 13.6216 52.2058 9.01492 48.1541 5.84019C47.9617 5.68848 47.6916 5.69588 47.5066 5.85129C43.3476 9.36273 39.9731 13.0296 37.8899 18.4392C37.8344 18.5835 37.7345 18.6205 37.5976 18.5465L33.4423 16.3153C32.78 15.9564 32.3582 16.1451 32.1806 16.8814L31.3739 20.2412C31.3517 20.3337 31.2481 20.3818 31.163 20.3411C26.2603 17.8768 21.4945 17.5253 16.0442 18.0322C15.911 18.0433 15.8444 18.1173 15.8481 18.2505C15.873 19.484 16.1377 21.0029 16.3347 22.1332C16.4013 22.5151 16.4601 22.8527 16.4993 23.1199C17.084 27.0457 18.8008 32.4147 22.3086 34.5903C22.4418 34.6717 22.4381 34.7457 22.2975 34.816L21.6795 35.1083ZM42.552 22.8163L40.7057 21.1364C40.6206 21.0587 40.5873 20.9403 40.6169 20.8293C41.6492 16.8147 44.0395 13.6992 47.0255 10.9314C47.4732 10.5207 47.9505 10.5133 48.4649 10.9092C51.1031 12.9628 54.5738 16.811 55.0955 20.4001C55.114 20.5333 55.0844 20.6702 55.0104 20.7812C54.4887 21.5509 53.8301 22.1873 53.0345 22.6868C52.905 22.7719 52.8199 22.7386 52.7792 22.5869C51.8542 19.0533 50.8145 16.1857 48.2614 13.603C48.0283 13.3661 47.8062 13.3735 47.5916 13.6289C46.0857 15.4271 44.9164 17.2328 44.0839 19.0422M42.552 22.8163C42.6889 22.9421 42.7925 22.9199 42.8628 22.746L42.552 22.8163ZM42.8628 22.746C43.078 22.1946 43.2497 21.5989 43.4184 21.0133L42.8628 22.746ZM50.3224 29.6357C48.4908 29.3582 47.2216 29.3545 45.4011 29.5284C45.2124 29.5469 45.1644 29.4729 45.2569 29.3064C46.255 27.5444 46.334 25.4967 46.4107 23.5093C46.4963 21.2898 46.579 19.1455 47.9358 17.5585C48.0061 17.4734 48.0727 17.4771 48.1282 17.577C49.2886 19.6196 49.3948 21.7605 49.5016 23.9153C49.5937 25.773 49.6864 27.6411 50.4556 29.4655C50.5111 29.6024 50.4667 29.6579 50.3224 29.6357ZM53.6858 30.3943C53.5785 30.4646 53.6044 30.6274 53.7265 30.6681L57.1602 31.7597C57.2675 31.793 57.3378 31.7559 57.3711 31.6486C57.5622 31.0766 57.7596 30.5051 57.9573 29.9329C58.9577 27.037 59.9645 24.1224 60.1869 21.0329C60.2054 20.7702 59.9279 20.5889 59.6948 20.711C57.5809 21.7976 56.929 23.8599 56.2906 25.8796C55.7332 27.6427 55.1861 29.3734 53.6858 30.3943ZM42.5224 30.457C42.6149 30.5088 42.6075 30.642 42.5076 30.679L38.419 32.2035C38.3042 32.2479 38.2413 32.2072 38.2339 32.0814C38.148 30.2521 37.5383 28.5043 36.9304 26.7616C36.2815 24.9016 35.6348 23.0476 35.629 21.1067C35.629 20.8921 35.8141 20.7256 36.025 20.7478C37.8126 20.941 38.6595 23.2106 39.5294 25.5415C40.2925 27.5866 41.0733 29.6788 42.5224 30.457ZM20.0736 43.1007C23.5777 40.6697 27.3851 39.4746 31.4923 39.5153C31.8216 39.7447 32.0325 39.7188 32.1176 39.4376C32.2841 38.8862 32.8503 37.9871 33.8234 36.7439C33.9085 36.6366 33.9011 36.5329 33.8012 36.4367C31.1889 33.8688 28.695 31.1936 26.3158 28.4074C25.3612 27.29 24.5952 26.0652 24.0143 24.7332C23.9625 24.6148 24.0513 24.4853 24.1771 24.489C26.7666 24.5702 28.5307 25.9367 30.3755 27.3657C31.7229 28.4094 33.1134 29.4865 34.9001 30.1206C35.1073 30.1946 35.3183 30.0207 35.285 29.8024C35.1703 29.0476 34.8668 28.326 34.371 27.6415C31.1075 23.1051 26.6303 21.2143 20.9395 21.9729C20.8211 21.9877 20.7619 22.0543 20.7656 22.1727C20.9384 27.9708 24.5054 31.3087 28.2422 34.8055C28.7455 35.2764 29.2517 35.7502 29.7532 36.2332C29.8975 36.3701 29.8124 36.6107 29.6163 36.6329C23.426 37.2952 17.9276 39.5634 13.1174 43.4411C12.7807 43.7149 12.7252 44.2071 12.9953 44.5475C17.1949 49.8313 23.5074 51.5408 30.1121 50.8414C30.2194 50.8303 30.2787 50.7748 30.2898 50.6675C30.4415 49.4058 29.9197 48.7027 28.7283 48.5658C25.9421 48.2439 23.5185 47.7629 21.4501 47.1191C20.1365 46.7121 17.0802 45.6168 16.1071 44.307C16.0072 44.1775 16.0183 44.0553 16.1367 43.9406C17.0506 43.0563 18.3605 42.7788 20.0736 43.1007ZM71.8868 24.4518C68.9767 24.5202 66.5839 26.446 64.3243 28.2646C63.8948 28.6102 63.4696 28.9524 63.0471 29.2768C62.4588 29.7282 61.7447 30.002 60.9047 30.0982C60.7752 30.1167 60.7086 30.0575 60.7123 29.9243C60.7197 29.3804 60.7937 28.9808 60.9343 28.7329C63.2728 24.5702 66.8768 22.3205 71.7499 21.9838C72.9376 21.9024 74.044 21.9949 75.0689 22.2613C75.1984 22.2946 75.2613 22.3797 75.2576 22.5129C75.08 27.3797 72.0861 30.4536 69.019 33.6025C68.1872 34.4565 67.3501 35.316 66.5622 36.2183C66.4845 36.3071 66.5363 36.4477 66.6548 36.4625C72.4344 37.2358 79.2686 39.8888 83.4978 44.1033C83.5792 44.1847 83.594 44.3142 83.5311 44.4141C83.1944 44.9432 82.7985 45.4057 82.3471 45.8054C77.6516 49.9754 72.1421 51.6664 65.8185 50.8857C65.6705 50.8672 65.5669 50.7303 65.5817 50.5823L65.763 48.9468C65.7815 48.7729 65.8814 48.6804 66.0553 48.6656C68.0941 48.488 80.83 46.9339 80.2084 43.3115C80.1862 43.1746 80.0826 43.0599 79.9457 43.0229C79.284 42.8368 78.6682 42.9846 78.0725 43.1277C77.3058 43.3118 76.5722 43.4879 75.8163 42.934C72.279 40.3328 68.3013 39.1303 63.8796 39.3227C63.7501 39.3264 63.6761 39.2672 63.6651 39.1377C63.5614 38.135 63.147 37.295 62.4255 36.6142C62.333 36.5291 62.333 36.3848 62.4218 36.296C65.4707 33.2545 68.2051 30.2499 71.0246 26.6127C71.5093 25.9874 71.8646 25.3658 72.0977 24.7515C72.1532 24.6035 72.0422 24.4481 71.8868 24.4518ZM33.1721 61.6606C33.5162 61.261 33.7642 61.0538 33.9233 61.0427C34.5412 61.002 34.7447 61.2906 34.5412 61.9159C33.3016 65.6901 33.0056 69.5457 33.6532 73.4826C33.6754 73.6158 33.7531 73.675 33.89 73.6602C35.1036 73.5159 35.7696 72.8277 35.8917 71.5955C35.9561 70.953 36.0081 70.3072 36.0601 69.6609C36.3076 66.5891 36.556 63.5048 38.1303 60.6986C38.1858 60.595 38.1636 60.5136 38.0637 60.4544L33.4163 57.7866C33.2091 57.6682 33.0241 57.6941 32.8576 57.868C30.9928 59.8106 29.1908 61.6865 27.448 63.4996C25.6571 65.3608 24.0661 65.4459 21.5944 65.4311C21.4612 65.4311 21.4131 65.3682 21.4501 65.2387C22.6341 61.002 27.8328 56.9948 31.6921 55.3519C31.7994 55.3038 31.8438 55.2224 31.8216 55.1077L31.311 52.4732C31.2925 52.3733 31.2333 52.34 31.1334 52.3732C24.7136 54.7709 19.4631 59.9253 18.4011 66.8778C18.3456 67.233 18.564 67.5735 18.9081 67.6734C25.4795 69.59 29.1834 66.3117 33.1721 61.6606ZM61.5634 61.5161C61.5634 61.5346 61.5523 61.6234 61.5301 61.7825C61.519 61.875 61.5264 61.9638 61.5523 62.0489C62.777 65.9747 63.0804 69.9191 62.4588 73.8894C62.4255 74.1114 62.3034 74.178 62.0999 74.0855C60.7382 73.4749 60.2794 72.8755 60.1869 71.2955C59.976 67.6509 59.3433 64.0803 58.285 60.591C58.2517 60.4689 58.2887 60.3764 58.396 60.3135L62.7437 57.7937C62.8436 57.7382 62.9361 57.7493 63.0212 57.8307C64.4865 59.2812 65.9332 60.7316 67.3652 62.1858C69.6408 64.4947 71.2799 65.8082 74.4029 65.3716C74.5657 65.3494 74.6656 65.1792 74.599 65.0275C72.7415 60.7538 68.4382 57.2128 64.3496 55.2036C64.2386 55.1481 64.1942 55.063 64.2201 54.9409L64.7048 52.5617C64.7381 52.4026 64.8306 52.3582 64.9749 52.4285C70.5029 55.0408 74.4695 58.1045 76.8413 63.9323C77.3038 65.0719 77.511 66.1782 77.4592 67.2476C77.4407 67.6028 77.1891 67.8988 76.845 67.9728C72.0903 68.9904 68.1644 67.6731 65.0637 64.0284C64.2756 63.1034 63.3875 62.1525 62.3996 61.1794C62.0925 60.8796 61.5782 61.0868 61.5634 61.5161ZM43.7435 63.6695L43.8989 63.7842C43.9692 63.8323 44.0211 63.8952 44.0544 63.9729C45.1258 66.2678 40.7128 70.1137 38.9629 71.6387C38.882 71.7093 38.806 71.7755 38.7372 71.8357C38.271 72.2465 38.0453 72.7201 38.0601 73.2492C38.0675 73.449 38.2192 73.6155 38.419 73.6377C40.1507 73.8116 41.257 73.5341 42.6483 72.413C44.6353 70.8071 46.1338 68.8164 47.144 66.4409C47.4918 65.6195 48.291 65.3568 48.7387 66.2374C49.982 68.6869 51.3436 71.314 53.6266 72.635C54.7811 73.3047 56.8383 73.9892 58.1445 73.4379C58.2481 73.3935 58.2888 73.3158 58.2666 73.2048C58.1186 72.4981 57.8744 72.0171 57.5303 71.758C56.3203 70.8441 49.0495 64.8536 52.7608 63.5659C52.7793 63.5585 52.7904 63.54 52.7867 63.5215C52.783 63.5067 52.7645 63.4919 52.746 63.4919L43.762 63.6103C43.6954 63.6103 43.688 63.6288 43.7435 63.6695ZM47.9431 77.4935C47.2512 77.512 46.6555 76.4167 46.6148 75.0403C46.5741 73.6675 47.1032 72.5353 47.7951 72.5131C48.4871 72.4946 49.0828 73.5898 49.1235 74.9663C49.1642 76.339 48.6351 77.4713 47.9431 77.4935ZM40.924 75.7951C42.1487 79.4619 44.5242 81.9336 47.5288 84.1722C47.6583 84.2684 47.7878 84.2758 47.9247 84.1907C51.3066 82.1002 53.6932 79.1992 55.0808 75.4806C55.14 75.3178 55.0845 75.2179 54.918 75.1809L52.8718 74.7405C52.7349 74.7109 52.598 74.7812 52.5388 74.9071C51.6211 76.8977 49.8488 80.2686 48.0061 81.2084C47.8988 81.2639 47.7693 81.2528 47.6731 81.1825C45.6454 79.7468 44.1801 77.0383 43.392 74.8183C43.3217 74.6295 43.1922 74.5667 43.0035 74.6369L41.1571 75.3104C40.961 75.3844 40.8574 75.599 40.924 75.7951ZM50.5739 43.511C47.9912 40.9653 50.4074 38.2309 52.9087 36.8507C53.0234 36.7878 53.0789 36.8211 53.0789 36.9506C53.0798 37.2213 53.0888 37.5186 53.0983 37.8329C53.1633 39.9895 53.2525 42.9479 50.9402 43.6035C50.8107 43.6405 50.6701 43.6035 50.5739 43.511ZM43.6285 37.3445C43.6366 37.2607 43.6441 37.1822 43.6509 37.1098C43.662 36.9803 43.7212 36.9581 43.8211 37.0432C45.3308 38.3383 47.2659 40.1588 46.611 42.2715C46.3039 43.2632 45.575 43.5222 44.4242 43.0523C44.1615 42.945 43.958 42.7711 43.8137 42.5305C43.2242 41.5574 43.4962 38.7233 43.6285 37.3445ZM54.3887 45.4054C54.163 45.7014 54.2037 45.953 54.5108 46.1639C57.1194 47.9437 59.2396 47.459 61.7002 45.7717C61.8963 45.6385 61.8926 45.509 61.6891 45.3869C59.5282 44.0364 56.261 42.9744 54.3887 45.4054ZM34.3043 46.1235C34.1711 46.0161 34.1748 45.9199 34.3191 45.8274C36.6354 44.3474 39.3402 43.4149 41.5307 45.635C41.8785 45.9902 41.786 46.5823 41.342 46.8117C38.8444 48.103 36.4985 47.8736 34.3043 46.1235ZM47.9541 48.6285C48.9865 48.6285 49.8264 47.7886 49.8264 46.7562C49.8264 45.7239 48.9865 44.884 47.9541 44.884C46.9218 44.884 46.0819 45.7239 46.0819 46.7562C46.0819 47.7886 46.9218 48.6285 47.9541 48.6285ZM40.7278 50.6152C41.3938 49.8493 42.1856 49.2128 43.1033 48.6985C43.6694 48.384 44.2688 49.0574 43.8877 49.5829C43.2439 50.4746 41.971 51.2294 40.8462 50.9778C40.6834 50.9408 40.6168 50.741 40.7278 50.6152ZM53.2269 50.3117C53.9595 50.5781 54.6774 50.4523 54.8291 50.0379C54.9771 49.6235 54.4998 49.0722 53.7634 48.8095C53.0308 48.5431 52.313 48.6689 52.1613 49.0833C52.0133 49.4977 52.4906 50.049 53.2269 50.3117ZM52.8939 58.0047L52.7758 57.928C50.5335 56.4718 48.3554 55.0574 49.5009 51.992C49.6415 51.6182 49.9042 51.3185 50.289 51.0965C50.3889 51.0373 50.4962 51.0225 50.6072 51.0484C52.6534 51.5405 53.164 56.2101 53.0123 57.9455C53.0049 58.0306 52.9642 58.0528 52.8939 58.0047ZM46.8108 54.4229C47.61 51.0373 44.7128 49.8532 43.7693 53.213C43.3511 54.7115 43.1439 56.2545 43.1476 57.8493C43.1476 58.0084 43.2142 58.0454 43.3437 57.9529C43.4162 57.9023 43.4918 57.85 43.5699 57.7958C44.7447 56.9818 46.4951 55.7691 46.8108 54.4229Z" fill="#6692A9"/>
</svg>
