<svg width="97" height="96" viewBox="0 0 97 96" fill="none" xmlns="http://www.w3.org/2000/svg">
<path fill-rule="evenodd" clip-rule="evenodd" d="M82.4765 11.4726C82.2941 11.6517 82.0014 11.6517 81.8224 11.4692L81.2819 10.9252C80.9307 10.5706 80.9548 9.97506 81.337 9.59636L81.4196 9.51373C81.8018 9.13503 82.3939 9.11438 82.7485 9.46898L83.289 10.0129C83.468 10.1954 83.468 10.488 83.2856 10.667L82.4765 11.4726ZM15.9772 11.8922C16.2523 11.5702 16.5288 11.3177 16.7969 11.0729C17.2569 10.653 17.6921 10.2556 18.0531 9.56837C18.1254 9.42722 18.2184 9.41689 18.3251 9.53394L20.7178 12.1229C20.8004 12.2124 20.7832 12.3535 20.6834 12.4189C19.7091 13.0558 18.9413 13.889 18.3836 14.9183C18.3354 15.0078 18.2149 15.0182 18.1495 14.9424L15.9737 12.3673C15.8601 12.2296 15.8601 12.0265 15.9772 11.8922ZM12.1797 16.9127C12.3106 16.837 12.3415 16.6579 12.2417 16.5443L10.2587 14.2584C10.0762 14.0449 9.72852 14.0966 9.61836 14.3582C9.32573 15.0536 8.84374 15.57 8.17242 15.904C7.79372 16.0933 7.6939 16.5856 7.97275 16.9024L9.70443 18.8854C9.88689 19.0954 10.2208 19.0541 10.3482 18.8096C10.7751 18.0006 11.3845 17.3706 12.1797 16.9127ZM15.9806 37.0137C14.8652 38.7798 13.7773 40.6354 12.7169 42.584C10.8889 47.3074 10.4 52.7709 10.4344 57.3704C10.5067 66.1149 10.548 74.8559 10.5618 83.5969C10.5683 86.3617 12.2948 86.3641 14.5145 86.3672H14.5161H14.5177C14.6491 86.3674 14.7822 86.3675 14.9168 86.3683C19.9673 86.3993 25.0177 86.3855 30.0716 86.3236C32.0856 86.296 33.0564 86.024 33.0289 83.8069C32.9704 79.4863 32.9256 75.1485 32.8912 70.7935C32.8877 70.6593 32.8223 70.6007 32.6915 70.6248C30.8979 70.9484 29.1318 71.3926 27.3966 71.9572C25.8371 72.4701 25.028 73.6234 24.9764 75.4205C24.8628 79.2178 24.8146 81.7757 24.8284 83.0943C24.8284 83.2217 24.763 83.2905 24.6356 83.294L22.539 83.3835C22.3806 83.3904 22.2463 83.2596 22.2463 83.1012C22.2463 80.1439 22.3117 77.3415 22.4391 74.6941C22.5837 71.7334 24.6941 69.981 27.4965 69.3923C35.1668 67.7846 42.7993 66.0047 50.3939 64.0561C50.6494 63.9911 50.9691 63.967 51.276 63.9438L51.2761 63.9438L51.2762 63.9438C51.4407 63.9314 51.6016 63.9192 51.7469 63.9012C51.8812 63.884 51.95 63.9425 51.95 64.0768C51.9328 73.0519 51.9328 79.1318 51.9569 82.3094L51.9584 82.5077C51.976 85.0144 51.9859 86.4286 55.0794 86.3649C58.0987 86.3029 61.1214 86.2478 64.1441 86.1996C65.5315 86.179 66.2235 85.5421 66.2235 84.2855C66.2304 72.3909 66.2338 60.4929 66.2304 48.5881C66.2304 48.4366 66.3027 48.3367 66.4473 48.292L69.5939 47.3246C69.7075 47.2902 69.8039 47.3177 69.8831 47.4038C70.5792 48.1571 71.2187 48.8902 71.8415 49.6042C73.9541 52.0261 75.8749 54.2282 79.1612 56.2515C79.2748 56.3238 79.3333 56.4271 79.3333 56.5614L79.3884 80.6293C79.3884 80.7601 79.292 80.8703 79.1612 80.8875C78.5621 80.9598 78.0113 80.8531 77.5087 80.5674C77.3882 80.4985 77.309 80.3746 77.2987 80.2403C77.1472 78.5878 77.0956 76.9319 77.1438 75.2725C77.2023 73.2241 74.5686 72.8351 73.2983 73.7921C71.7869 74.9317 72.4135 80.6637 73.071 82.1476C74.2347 84.7743 77.4088 86.2478 80.2009 85.7142C85.2995 84.7434 86.9038 79.3004 86.9589 74.7526C87.0347 68.3354 87.0932 61.9113 87.1311 55.4769C87.1311 55.3599 87.0725 55.2944 86.9589 55.2772C83.8088 54.8607 80.9824 53.6833 78.4795 51.7519C77.175 50.743 76.535 48.9116 75.9568 47.2574C75.8011 46.8117 75.6498 46.3789 75.4913 45.9785C75.4706 45.9234 75.4912 45.858 75.5429 45.8304C75.5945 45.7995 75.6599 45.8098 75.6978 45.858C79.5295 50.6537 85.6954 54.0689 92.0094 53.3734C94.223 53.129 94.9494 50.6399 92.481 50.1304C91.5343 49.9341 89.8129 49.6656 87.3238 49.3282C87.1999 49.311 87.1379 49.2387 87.1379 49.1114C87.1409 48.3891 87.1501 47.6708 87.1592 46.956V46.9557V46.9556C87.2229 41.9503 87.2843 37.121 85.2238 32.3523C83.4611 28.2692 79.3746 21.9071 75.6909 19.5833C71.8213 17.1458 66.1443 17.5658 62.5295 20.802C62.4537 20.8708 62.4778 20.9948 62.5742 21.0292C64.182 21.611 65.5418 22.5543 66.6469 23.8557C66.7261 23.952 66.7674 24.0622 66.7709 24.1862C66.7778 25.0709 66.3646 25.6803 65.5315 26.0211C65.4558 26.0521 65.3697 26.0349 65.3077 25.9764C61.5999 22.4097 57.4687 21.7487 52.9174 23.9968C48.4763 26.1898 45.9528 31.1026 47.0029 36.0015C48.1493 41.348 52.58 45.5206 57.6202 47.242C57.7579 47.2902 57.899 47.1869 57.899 47.0423C57.868 43.5238 59.0179 35.3887 62.6775 33.6433C62.7842 33.5916 62.8806 33.6054 62.9667 33.6777C63.4315 34.0633 63.7585 34.5418 63.9513 35.1099C63.9926 35.2372 63.9754 35.375 63.9065 35.4886C61.4347 39.5303 60.7117 42.2845 60.3606 47.18C60.2401 48.8497 59.7512 50.1201 57.8198 49.7586C55.1827 49.2663 52.7384 47.8789 50.5041 46.0852C44.5757 41.3377 42.159 33.2267 46.3212 26.4446C47.743 24.1276 49.7949 22.3787 52.4768 21.191C52.6454 21.1153 52.642 21.0498 52.4664 20.9948C50.807 20.4887 48.9962 20.1307 47.0373 19.9241C40.7681 19.2631 33.0014 19.2906 27.0902 21.3459C26.9835 21.3838 26.9112 21.4836 26.9112 21.5972V49.6794C26.9112 49.8619 27.0042 49.9548 27.1901 49.9548C34.5884 49.9651 42.0385 49.9927 49.5332 50.0374C49.7364 50.0409 49.9533 50.0478 50.1805 50.065C50.2975 50.0719 50.4008 50.1442 50.4524 50.2509C50.7072 50.757 50.8001 51.3044 50.7279 51.8896C50.69 52.1891 50.5213 52.3406 50.2183 52.3441L24.4979 52.468C24.3602 52.468 24.2465 52.3544 24.2465 52.2167L24.1846 22.4923C24.1846 22.3237 24.0193 22.2032 23.861 22.2582C9.07454 27.2605 4.01377 44.9698 3.53179 58.9437C3.43539 61.6979 3.39408 64.4486 3.40786 67.1959C3.40851 67.2924 3.4082 67.3876 3.40791 67.4813C3.40506 68.3809 3.40264 69.1484 4.24443 69.6815C5.983 70.7832 7.0158 69.0515 7.01236 67.4713C7.01111 66.7237 7.00557 65.9651 7 65.2015C6.97479 61.7489 6.94883 58.1928 7.31532 55.0776C8.33436 46.3365 10.7374 36.4353 17.8431 30.5001C19.2099 29.3571 20.3116 31.0268 19.5266 32.1732L19.7228 32.5416C19.7814 32.6552 19.7642 32.755 19.6781 32.848C19.3755 33.1633 19.0692 33.4702 18.7647 33.7753C17.7494 34.7927 16.754 35.7901 15.9806 37.0137ZM80.6035 36.5799C80.6035 37.5369 79.8255 38.315 78.8684 38.315C77.9113 38.315 77.1333 37.5369 77.1333 36.5799C77.1333 35.6228 77.9113 34.8448 78.8684 34.8448C79.8255 34.8448 80.6035 35.6228 80.6035 36.5799ZM29.772 83.3667C30.0267 83.3701 30.2333 83.167 30.2368 82.9157L30.2574 81.3458C30.2643 81.091 30.0612 80.8845 29.8064 80.881L28.0644 80.8604C27.8097 80.8569 27.6031 81.06 27.5996 81.3114L27.579 82.8812C27.5721 83.136 27.7752 83.3426 28.03 83.346L29.772 83.3667ZM21.3063 82.9261C21.3063 83.1602 21.117 83.3496 20.8829 83.3496H19.2579C19.0238 83.3496 18.8345 83.1602 18.8345 82.9261V81.2943C18.8345 81.0602 19.0238 80.8709 19.2579 80.8709H20.8829C21.117 80.8709 21.3063 81.0602 21.3063 81.2943V82.9261ZM16.404 83.0298C16.404 83.2089 16.2628 83.3534 16.0872 83.3534L14.0009 83.3672C13.8254 83.3672 13.6808 83.2261 13.6773 83.0505L13.6636 81.2534C13.6636 81.0744 13.8047 80.9298 13.9803 80.9298L16.0666 80.916C16.2421 80.916 16.3867 81.0572 16.3902 81.2327L16.404 83.0298ZM57.7232 82.9165C57.7301 83.1679 57.5305 83.3744 57.2791 83.3813L55.4683 83.4192C55.2169 83.426 55.0104 83.2264 55.0035 82.9751L54.9725 81.5016C54.9656 81.2503 55.1653 81.0437 55.4166 81.0368L57.2275 80.9989C57.4788 80.9921 57.6854 81.1917 57.6923 81.443L57.7232 82.9165ZM62.6258 83.3391C62.884 83.3219 63.0837 83.0981 63.0665 82.8365L62.9666 81.3389C62.9494 81.0773 62.7222 80.881 62.464 80.8982L60.7874 81.0084C60.5292 81.0256 60.3295 81.2494 60.3467 81.511L60.4466 83.0086C60.4638 83.2702 60.691 83.4665 60.9492 83.4493L62.6258 83.3391ZM39.4746 26.3548C39.719 25.4081 39.7672 24.451 39.6157 23.4836C39.5572 23.1049 39.719 22.919 40.1012 22.9293L42.0222 22.9775C42.1599 22.981 42.2184 23.0498 42.1943 23.1841C42.0188 24.2755 42.0222 25.3633 42.2047 26.4444C42.394 27.5667 42.2047 28.2621 41.1237 28.658C40.5143 28.8818 40.6382 29.7803 41.2855 29.8285L41.4679 29.8423C41.5953 29.8526 41.6297 30.0213 41.5161 30.0799C41.4783 30.1005 41.4473 30.1246 41.4266 30.1521C41.3233 30.2795 41.2648 30.3863 41.251 30.4723C40.7725 33.254 40.7622 36.0323 41.2235 38.8071C41.3468 39.5444 41.6558 40.1915 41.9732 40.8561C42.09 41.1008 42.208 41.3478 42.3183 41.6026C42.58 42.2118 42.446 42.4388 42.2821 42.7165C42.1829 42.8845 42.0728 43.0711 42.0325 43.3721C41.8879 44.491 42.0807 45.5514 42.6109 46.5463C42.6901 46.6944 42.6453 46.7735 42.4766 46.7839L39.8361 46.9009C39.7018 46.9044 39.6364 46.839 39.6467 46.7047C39.6559 46.5529 39.6739 46.3698 39.6939 46.1666V46.1666C39.839 44.6924 40.0883 42.1591 37.8221 42.8248C37.7016 42.8626 37.6362 42.9418 37.6293 43.0692L37.4778 45.9335C37.4709 46.0575 37.4916 46.178 37.5398 46.295C37.6086 46.4499 37.5914 46.5773 37.4847 46.6771C37.409 46.7494 37.2885 46.7839 37.1267 46.7839C36.2729 46.7873 35.4432 46.7839 34.6376 46.7804C34.4482 46.7804 34.3691 46.5429 34.5171 46.4258C35.4029 45.7359 35.2595 44.6987 35.1136 43.6437C34.9749 42.6404 34.834 41.6211 35.574 40.8693C35.9183 40.5216 35.963 39.9742 35.6773 39.5748C35.0645 38.7142 34.8097 37.7536 34.9096 36.6933C34.9199 36.5797 34.9578 36.473 35.0197 36.3731C35.8193 35.1055 35.5868 33.9747 35.3529 32.8376C35.0742 31.4826 34.7937 30.1185 36.2557 28.5031C36.3383 28.4101 36.3417 28.3137 36.266 28.2139C35.1781 26.8265 34.7478 25.2428 34.975 23.4664C35.006 23.222 35.2022 23.0326 35.4466 23.0085L37.2713 22.8398C37.4227 22.8261 37.5501 22.9603 37.5295 23.1118C37.3367 24.4304 37.2058 27.5977 39.2405 26.6371C39.361 26.5786 39.4402 26.4857 39.4746 26.3548ZM33.4223 42.2908C31.7973 43.7643 32.3544 44.2267 33.0456 44.8004C33.5317 45.204 34.0842 45.6626 33.9903 46.5667C33.98 46.6459 33.9353 46.6872 33.8561 46.6906L30.5855 46.8834C30.3583 46.8972 30.1689 46.7182 30.1689 46.4909V23.5384C30.1689 23.3904 30.2826 23.2664 30.4306 23.2527L32.9851 23.0048C33.171 22.9876 33.3156 23.17 33.2536 23.3491L32.5823 25.2976C32.5547 25.3734 32.5651 25.456 32.6064 25.5249C32.6777 25.6464 32.7529 25.7686 32.8288 25.8919L32.8289 25.8921L32.8289 25.8921C33.2366 26.5547 33.6639 27.2491 33.6117 28.0415C33.6013 28.1654 33.5394 28.2756 33.4395 28.3513C32.7269 28.8815 32.417 29.601 32.51 30.5133C32.5238 30.6338 32.5892 30.744 32.6925 30.8128L33.7425 31.4807C33.9904 31.6425 34.0592 31.9765 33.894 32.2244L32.6615 34.0387C32.4583 34.3382 32.4721 34.7375 32.6993 35.0233L33.6495 36.2248C33.7184 36.3143 33.7494 36.4313 33.7321 36.545C33.6504 37.0895 33.3724 37.4643 33.1003 37.8313C32.7308 38.3298 32.372 38.8137 32.5306 39.6882C32.5513 39.7949 32.6064 39.8809 32.6993 39.9464C33.4085 40.4387 33.7012 41.1238 33.5772 41.9982C33.56 42.1118 33.5049 42.2151 33.4223 42.2908ZM44.6386 24.6163C44.649 24.606 44.6558 24.5957 44.6627 24.5819L45.2549 23.3115C45.3168 23.1807 45.217 23.0292 45.0724 23.0292H43.864C43.7401 23.0292 43.685 23.0912 43.7022 23.2151C43.7539 23.6111 43.8262 24.0035 43.9191 24.3891C43.9501 24.5234 44.0017 24.6232 44.074 24.6817C44.2358 24.8194 44.4218 24.7988 44.6386 24.6163ZM43.0929 46.5356C43.1136 45.7782 43.6575 45.1206 44.2015 44.6834C44.353 44.5629 44.4734 44.587 44.5664 44.7591L45.4581 46.4667C45.5303 46.6044 45.434 46.7697 45.279 46.7697L43.3442 46.7903C43.2031 46.7903 43.0895 46.6767 43.0929 46.5356Z" fill="#6290A7"/>
</svg>
