<svg width="97" height="96" viewBox="0 0 97 96" fill="none" xmlns="http://www.w3.org/2000/svg">
<path fill-rule="evenodd" clip-rule="evenodd" d="M50.0191 5.23321L48.9406 4.08364C48.8257 3.96051 48.6314 3.97639 48.5323 4.11113L43.5643 11.0775C37.958 18.9913 32.7839 26.9446 32.0464 36.9717C31.757 41.9715 33.1724 48.1767 37.4228 51.3327C38.9651 52.4784 40.6303 52.2128 41.2488 50.3016C41.2885 50.1789 41.2726 50.048 41.2052 49.9369C40.9793 49.5721 40.6144 49.0727 40.111 48.4423C30.968 36.9679 40.9237 21.7152 48.901 12.941C48.9962 12.8377 49.0873 12.8377 49.1785 12.9449L50.8676 14.9273C57.7981 24.4271 66.9807 38.4864 56.8585 49.3936C56.0139 50.3016 56.4223 51.3048 57.4888 51.7965C58.4246 52.1257 59.3444 51.9313 60.2523 51.2096C64.3996 47.6253 66.0648 41.1786 65.5058 35.9646C64.3691 25.385 58.0867 16.5675 52.0002 8.02564L51.9633 7.97414C51.6116 7.48047 51.2605 6.98758 50.9111 6.49507C50.6123 6.07419 50.3147 5.6537 50.0191 5.23321ZM60.2523 51.2096C60.1851 51.1801 60.1307 51.1406 60.0891 51.0915C60.1122 51.1186 60.1391 51.1426 60.1699 51.1639C60.1948 51.1809 60.2223 51.1964 60.2523 51.2096Z" fill="#6290A7"/>
<path d="M63.1784 11.5491C63.7453 12.0645 64.6255 12.0288 65.1449 11.462L69.5102 6.69604C70.0296 6.12919 69.9899 5.2491 69.423 4.72949L69.3636 4.67412C68.7965 4.15877 67.9163 4.19439 67.3969 4.76124L63.0316 9.52718C62.5123 10.094 62.5519 10.9741 63.1189 11.4937L63.1784 11.5491Z" fill="#6290A7"/>
<path d="M73.824 15.5496C74.6844 14.9947 74.9936 13.94 74.5099 13.1904C74.0302 12.4451 72.9399 12.2906 72.0795 12.8415C71.2191 13.3968 70.9098 14.4515 71.3936 15.2007C71.8733 15.9499 72.9637 16.1048 73.824 15.5496Z" fill="#6290A7"/>
<path d="M67.5594 15.9464C68.0392 16.6442 67.7617 17.6671 66.941 18.2262C66.1203 18.7849 65.0696 18.67 64.5938 17.9722C64.114 17.2745 64.3915 16.2515 65.2123 15.6924C66.033 15.1295 67.0837 15.2445 67.5594 15.9464Z" fill="#6290A7"/>
<path d="M78.5064 23.3565C79.4223 23.3565 80.1638 22.6151 80.1638 21.699C80.1638 20.7832 79.4223 20.0418 78.5064 20.0418C77.5905 20.0418 76.8492 20.7832 76.8492 21.699C76.8492 22.6151 77.5905 23.3565 78.5064 23.3565Z" fill="#6290A7"/>
<path d="M73.4711 22.5794C73.6773 23.2771 73.2768 24.0105 72.575 24.2169L69.5697 25.097C68.868 25.2991 68.1344 24.8987 67.9322 24.201L67.8886 24.0504C67.6825 23.3527 68.0829 22.6189 68.7846 22.4129L71.79 21.5325C72.4918 21.3303 73.2253 21.7307 73.4275 22.4288L73.4711 22.5794Z" fill="#6290A7"/>
<path d="M88.3869 30.9374C89.1838 30.9296 89.8221 30.2791 89.8143 29.4862V29.3913C89.8063 28.5941 89.1561 27.956 88.3631 27.9637L79.9179 28.0392C79.121 28.047 78.4827 28.6975 78.4907 29.4904V29.5853C78.4986 30.3825 79.1488 31.0206 79.9418 31.0129L88.3869 30.9374Z" fill="#6290A7"/>
<path d="M74.4742 29.2244C74.6447 30.0491 73.9389 30.8893 72.9041 31.0996C71.8693 31.3098 70.8979 30.8104 70.7274 29.9814C70.5569 29.1567 71.2627 28.3165 72.2975 28.1062C73.3363 27.896 74.3076 28.3954 74.4742 29.2244Z" fill="#6290A7"/>
<path d="M83.6726 40.2625C84.2238 40.4092 84.7868 40.084 84.9335 39.533L85.1119 38.8671C85.2586 38.3157 84.9296 37.7527 84.3824 37.606L77.8166 35.8458C77.2655 35.699 76.7025 36.0243 76.5558 36.5753L76.3774 37.2412C76.2306 37.7926 76.5597 38.3556 77.1069 38.5023L83.6726 40.2625Z" fill="#6290A7"/>
<path d="M33.9932 9.745C34.4848 10.3041 34.4292 11.1567 33.8702 11.6484L33.8148 11.6957C33.2557 12.1874 32.4033 12.132 31.9116 11.5729L27.5463 6.60487C27.0547 6.04577 27.1101 5.19356 27.6693 4.70182L27.7247 4.6542C28.2837 4.16247 29.1362 4.21822 29.6279 4.77733L33.9932 9.745Z" fill="#6290A7"/>
<path d="M25.7541 15.6288C25.1475 16.2514 24.0374 16.148 23.2721 15.3988C22.5109 14.6534 22.388 13.5434 22.9986 12.9246C23.6052 12.3024 24.7154 12.4054 25.4806 13.1546C26.2418 13.9 26.3647 15.01 25.7541 15.6288Z" fill="#6290A7"/>
<path d="M30.3811 18.4638C31.2851 18.892 32.3159 18.6144 32.6807 17.8451C33.0455 17.0718 32.6054 16.1008 31.6974 15.6764C30.7934 15.2482 29.7626 15.5258 29.3979 16.2947C29.033 17.0641 29.4732 18.0356 30.3811 18.4638Z" fill="#6290A7"/>
<path d="M19.9061 22.9401C19.2875 23.5782 18.221 23.5426 17.5192 22.8685C16.8135 22.1905 16.7461 21.1242 17.3646 20.4857C17.9831 19.8472 19.0497 19.8832 19.7514 20.557C20.4532 21.2349 20.5206 22.3016 19.9061 22.9401Z" fill="#6290A7"/>
<path d="M27.5384 25.0747C27.7681 25.1219 27.961 25.1614 28.0974 25.1959C29.0489 25.434 29.4891 24.2682 29.4375 23.5387C29.4295 23.4156 29.3741 23.2967 29.2789 23.2174C27.8952 22.0082 26.2854 21.4649 24.4498 21.5958C24.3332 21.6035 24.2352 21.6252 24.1548 21.662C24.1121 21.6817 24.0744 21.7058 24.0414 21.7348C23.8787 21.8695 23.8272 22.0279 23.8827 22.2103C23.9184 22.3334 23.9065 22.4561 23.8471 22.5711C23.0262 24.1474 26.0517 24.7692 27.5384 25.0747Z" fill="#6290A7"/>
<path d="M18.546 29.5932C18.55 30.3188 17.9632 30.9136 17.2377 30.9174L8.99082 30.9608C8.26522 30.9651 7.67049 30.382 7.66652 29.6525V29.4306C7.66256 28.705 8.24934 28.1103 8.97494 28.1064L17.2218 28.0627C17.9473 28.0588 18.5421 28.6415 18.546 29.371V29.5932Z" fill="#6290A7"/>
<path d="M25.4092 31.1474C26.0635 31.1869 26.6304 30.6874 26.674 30.0292L26.7018 29.6207C26.7414 28.9629 26.2419 28.3995 25.5836 28.3562L23.7718 28.2412C23.1175 28.1974 22.5506 28.6969 22.5069 29.3551L22.4792 29.7675C22.4395 30.4257 22.9391 30.9887 23.5973 31.0324L25.4092 31.1474Z" fill="#6290A7"/>
<path d="M25.6194 36.0876C25.766 36.8012 25.3061 37.4989 24.5924 37.6457L21.266 38.3279C20.5523 38.4743 19.8545 38.0147 19.7077 37.3007L19.6761 37.1462C19.5293 36.4326 19.9893 35.7349 20.7029 35.5881L24.0295 34.9059C24.7431 34.7595 25.441 35.2191 25.5876 35.9331L25.6194 36.0876Z" fill="#6290A7"/>
<path d="M14.9143 40.0958C16.0006 39.656 16.6192 38.6489 16.294 37.84C15.9689 37.0351 14.8231 36.7377 13.7328 37.178C12.6464 37.6178 12.0279 38.6249 12.353 39.4337C12.6781 40.2387 13.8239 40.5361 14.9143 40.0958Z" fill="#6290A7"/>
<path d="M25.1159 73.1865C30.9522 81.9607 49.0834 81.6161 58.0202 80.3631C64.2213 79.4985 69.3478 77.6946 73.9232 73.3015C74.1492 73.0796 74.2721 72.8415 74.2919 72.5918C74.3038 72.4133 74.1294 72.2785 73.9588 72.342C58.1946 78.0992 41.2291 77.9087 25.2983 72.9449C25.1556 72.9011 25.0327 73.0599 25.1159 73.1865Z" fill="#6290A7"/>
<path fill-rule="evenodd" clip-rule="evenodd" d="M54.3924 49.7424L53.8253 53.9295C53.7778 54.2784 53.9205 54.5122 54.2496 54.6311C55.6651 55.1426 57.1162 55.3331 58.603 55.1979C58.7259 55.1863 58.8409 55.1426 58.9361 55.0671C60.1612 54.1037 61.0969 53.6399 62.7582 53.7986C69.9187 54.4925 75.6122 55.0872 81.6229 58.2548C83.312 59.1469 85.5719 57.2202 83.419 56.2093C77.0968 53.2337 71.5985 52.4125 65.3849 51.4848L63.8921 51.261C63.7097 51.2331 63.6145 51.031 63.7057 50.8726L65.2203 48.2912C65.3472 48.0732 65.5851 47.9462 65.8349 47.9582C71.7267 48.2161 86.5869 49.9724 88.1966 56.9662C88.4702 58.16 88.3155 59.6824 87.7327 61.534C83.0899 76.2751 71.453 85.4342 56.3272 87.6384C56.0655 87.6028 55.8316 87.6106 55.6254 87.6621C55.4192 87.7139 55.4192 87.7612 55.6294 87.8049C56.0417 87.8843 56.4778 87.8804 56.9418 87.7891C62.4093 87.9676 67.8847 88.0589 73.3602 88.0628C76.0841 88.0628 75.9175 91.9401 72.8963 91.9045C71.8038 91.8917 70.6698 91.9142 69.6071 91.9355C68.726 91.9529 67.8939 91.9696 67.175 91.9641C53.8174 91.8492 40.4559 91.8612 27.0983 91.9998C24.0097 92.0354 23.7163 88.134 27.031 88.0628C32.2566 87.9517 37.4823 87.8448 42.7079 87.7414C42.7317 87.7414 42.7436 87.7298 42.7436 87.7058V87.5788C42.7436 87.5672 42.7357 87.5591 42.7238 87.5552C27.6851 86.0246 14.7954 76.2674 10.105 61.7361C9.49834 59.8528 9.2486 58.3818 9.35963 57.3232C10.1407 49.9724 27.0072 47.9226 32.554 47.8235C33.6026 47.8045 34.1632 49.4625 34.4671 50.3611L34.5086 50.4839C34.6038 50.7615 34.4254 51.0507 34.1399 51.0984C33.1358 51.2617 32.151 51.4131 31.1816 51.5622L31.1618 51.5657H31.1589C25.316 52.4667 20.0282 53.2821 14.4029 56.0269C13.3523 56.5384 13.0509 57.5652 14.2047 58.2153C15.0214 58.6753 16.532 58.3857 17.4598 57.7871C18.9704 56.8079 20.7665 56.0862 22.8401 55.6184C26.3252 54.8293 30.5279 54.1831 35.4483 53.6755C35.8342 53.6376 36.1858 53.6259 36.5038 53.6418C36.7479 53.6542 36.9721 53.6825 37.177 53.727C37.2444 53.7429 37.3078 53.7828 37.3554 53.8381L38.4536 55.1623C38.5488 55.2773 38.6717 55.3369 38.8185 55.3486C40.4084 55.4438 41.9546 55.2022 43.4573 54.6233C43.826 54.4805 44.0243 54.084 43.9172 53.7034C43.3423 51.6613 43.148 49.6235 43.3423 47.5896C43.9925 43.3909 45.6815 39.4814 48.4134 35.8616C48.6076 35.6041 48.9962 35.6041 49.1905 35.8616C52.287 39.9453 54.0236 44.5722 54.3924 49.7424ZM47.8067 50.9795C47.5886 50.8564 47.4341 50.6504 47.3826 50.4084C47.0376 48.8503 47.2676 46.2453 48.7584 45.3176C48.8772 45.2425 49.0319 45.2661 49.1231 45.3733C50.1856 46.622 50.602 48.0179 50.368 49.5639C50.1381 51.0945 49.3491 51.8278 47.8067 50.9795ZM47.3547 63.9051C47.4618 61.5142 47.4776 59.1194 47.4023 56.7208C47.3348 54.3972 49.9795 53.6798 50.1737 55.6819C50.4314 58.3818 50.4751 61.0821 50.2967 63.7901C50.2935 63.8265 50.2958 63.8583 50.3035 63.8858L50.3076 63.8985C50.312 63.9105 50.3175 63.9214 50.3243 63.9311C50.3335 63.9446 50.3448 63.9566 50.3582 63.9667C50.3734 63.9783 50.3912 63.9872 50.4119 63.9942C50.4328 64.0011 50.4565 64.0058 50.483 64.0081C55.891 64.4402 61.2832 64.4681 66.6635 64.0914C71.9486 63.7224 77.2853 62.6165 82.4991 61.3435C83.0145 61.2207 83.518 61.2168 84.0057 61.3318C84.1286 61.3593 84.2278 61.4584 84.2555 61.5854C84.43 62.3269 84.2 62.8543 83.4705 63.1319C72.365 67.386 61.5925 67.0766 50.4909 66.6646C50.3839 66.6604 50.3283 66.7119 50.3244 66.8191L50.2133 70.5776C50.2094 70.7917 50.0984 70.899 49.8843 70.8951L47.8028 70.8711C47.6243 70.8711 47.5252 70.784 47.5133 70.6055L47.2239 66.811C47.216 66.7003 47.1169 66.6127 47.0019 66.6209C36.4355 67.2234 26.9714 67.2354 16.98 64.139C15.9253 63.8137 14.0857 62.9929 14.2204 61.6648C14.2266 61.5944 14.2621 61.5347 14.3137 61.4956C14.3397 61.4759 14.3698 61.4615 14.4023 61.4534C14.4176 61.4495 14.4335 61.4472 14.4497 61.4464L14.4672 61.4461C14.4735 61.4457 14.4798 61.4461 14.4861 61.4468C16.8714 61.6962 19.2186 62.1891 21.5565 62.6804C23.8662 63.1656 26.1669 63.6488 28.486 63.8931C33.8651 64.4569 38.8853 64.3299 43.9998 64.2002L45.28 64.168C45.6722 64.1587 46.0651 64.1494 46.459 64.1409L47.1287 64.127C47.2023 64.125 47.258 64.1061 47.2956 64.0693C47.32 64.0453 47.3369 64.0135 47.3463 63.9744C47.3489 63.9636 47.3509 63.9516 47.3523 63.9392C47.3535 63.9283 47.3544 63.9171 47.3547 63.9051ZM59.388 82.8373L59.3914 82.8369C63.9616 82.1504 68.0838 80.5486 71.7544 78.0237C74.5575 76.0691 76.7897 73.6546 78.4589 70.7878C78.5001 70.7174 78.5283 70.638 78.5385 70.5548C78.5419 70.5257 78.5433 70.4963 78.5422 70.4669C78.5303 70.1257 78.6968 69.9751 78.5937 69.6541C78.4589 69.2259 78.114 69.0792 77.555 69.2139C75.8415 69.6263 74.0624 70.0886 72.2822 70.5509C68.7363 71.472 65.1858 72.3943 62.1396 72.9251C54.0633 74.3287 45.9591 74.4596 37.8351 73.3216C33.5683 72.7238 28.907 71.4519 24.4181 70.2268C23.7556 70.046 23.0968 69.8663 22.4436 69.6898C21.8686 69.5349 21.2938 69.4358 20.7189 69.3963C20.5959 69.3843 20.5206 69.4439 20.5008 69.5666C20.3025 70.7522 20.5484 71.8228 21.2343 72.7823C26.008 79.447 32.7363 81.9885 40.781 83.0591C47.2754 83.9276 53.4764 83.8521 59.388 82.8373Z" fill="#6290A7"/>
</svg>
