<svg width="14" height="16" viewBox="0 0 14 16" fill="none" xmlns="http://www.w3.org/2000/svg">
<path fill-rule="evenodd" clip-rule="evenodd" d="M7.22609 0.872039L7.04633 0.680444C7.02718 0.659922 6.99481 0.662568 6.97829 0.685025L6.15029 1.84609C5.2159 3.16506 4.35356 4.49061 4.23064 6.16179C4.1824 6.9951 4.4183 8.02929 5.1267 8.55529C5.38375 8.74624 5.66128 8.70197 5.76437 8.38344C5.77099 8.36298 5.76834 8.34117 5.7571 8.32265C5.71944 8.26186 5.65864 8.17861 5.57473 8.07355C4.0509 6.16115 5.71018 3.61904 7.03974 2.15668C7.05559 2.13945 7.07079 2.13945 7.08599 2.15732L7.36749 2.48773C8.52259 4.07102 10.053 6.41424 8.36598 8.23211C8.22522 8.38344 8.29329 8.55064 8.47104 8.6326C8.627 8.68745 8.78029 8.65505 8.93162 8.53476C9.62284 7.93739 9.90038 6.86293 9.80721 5.99395C9.61776 4.23067 8.57068 2.76108 7.55627 1.33744L7.55012 1.32886C7.49149 1.24658 7.43298 1.16443 7.37475 1.08235C7.32495 1.0122 7.27536 0.942121 7.22609 0.872039ZM8.93162 8.53476C8.92042 8.52986 8.91136 8.52328 8.90442 8.51508C8.90826 8.5196 8.91275 8.5236 8.91788 8.52715C8.92204 8.52999 8.92662 8.53257 8.93162 8.53476Z" fill="#6290A7"/>
<path d="M9.4193 1.92469C9.51379 2.01058 9.66048 2.00464 9.74705 1.91017L10.4746 1.11584C10.5612 1.02137 10.5546 0.874687 10.4601 0.788085L10.4502 0.778857C10.3557 0.692965 10.209 0.698902 10.1224 0.793377L9.39484 1.5877C9.30828 1.68218 9.31488 1.82886 9.40939 1.91546L9.4193 1.92469Z" fill="#6290A7"/>
<path d="M11.1936 2.59143C11.337 2.49896 11.3885 2.32317 11.3079 2.19824C11.2279 2.07401 11.0462 2.04827 10.9028 2.1401C10.7594 2.23263 10.7079 2.40842 10.7885 2.53329C10.8685 2.65816 11.0502 2.68397 11.1936 2.59143Z" fill="#6290A7"/>
<path d="M10.1495 2.65758C10.2294 2.77386 10.1832 2.94436 10.0464 3.03754C9.90961 3.13066 9.7345 3.1115 9.65519 2.99521C9.57524 2.87892 9.62149 2.70843 9.75828 2.61524C9.89507 2.52141 10.0702 2.54058 10.1495 2.65758Z" fill="#6290A7"/>
<path d="M11.974 3.89259C12.1266 3.89259 12.2502 3.76901 12.2502 3.61633C12.2502 3.46371 12.1266 3.34013 11.974 3.34013C11.8213 3.34013 11.6978 3.46371 11.6978 3.61633C11.6978 3.76901 11.8213 3.89259 11.974 3.89259Z" fill="#6290A7"/>
<path d="M11.1348 3.76308C11.1691 3.87936 11.1024 4.00159 10.9854 4.03598L10.4845 4.18266C10.3676 4.21635 10.2453 4.14962 10.2116 4.03334L10.2043 4.00823C10.17 3.89195 10.2367 3.76966 10.3537 3.73533L10.8546 3.58858C10.9715 3.5549 11.0938 3.62162 11.1275 3.73797L11.1348 3.76308Z" fill="#6290A7"/>
<path d="M13.6207 5.15606C13.7535 5.15477 13.8599 5.04636 13.8586 4.9142V4.89839C13.8573 4.76552 13.7489 4.65917 13.6167 4.66046L12.2092 4.67304C12.0764 4.67433 11.97 4.78275 11.9713 4.91491V4.93072C11.9727 5.06359 12.081 5.16994 12.2132 5.16865L13.6207 5.15606Z" fill="#6290A7"/>
<path d="M11.3019 4.87057C11.3303 5.00803 11.2127 5.14806 11.0402 5.1831C10.8678 5.21814 10.7059 5.1349 10.6775 4.99673C10.649 4.85928 10.7667 4.71925 10.9392 4.68421C11.1123 4.64916 11.2742 4.73241 11.3019 4.87057Z" fill="#6290A7"/>
<path d="M12.835 6.71025C12.9269 6.73471 13.0207 6.6805 13.0452 6.58867L13.0749 6.47768C13.0993 6.38579 13.0445 6.29196 12.9533 6.2675L11.859 5.97414C11.7671 5.94968 11.6733 6.00389 11.6489 6.09571L11.6191 6.20671C11.5947 6.2986 11.6495 6.39243 11.7407 6.41689L12.835 6.71025Z" fill="#6290A7"/>
<path d="M4.55477 1.62409C4.63671 1.71727 4.62745 1.85937 4.53428 1.94132L4.52504 1.9492C4.43185 2.03115 4.28978 2.02193 4.20785 1.92874L3.4803 1.10073C3.39836 1.00755 3.4076 0.865512 3.50078 0.783556L3.51003 0.775619C3.6032 0.693663 3.74528 0.702956 3.82722 0.79614L4.55477 1.62409Z" fill="#6290A7"/>
<path d="M3.18159 2.60471C3.08049 2.70848 2.89547 2.69125 2.76793 2.56638C2.64106 2.44216 2.62057 2.25714 2.72233 2.15402C2.82344 2.05032 3.00847 2.06749 3.136 2.19235C3.26287 2.31658 3.28336 2.50159 3.18159 2.60471Z" fill="#6290A7"/>
<path d="M3.95277 3.07722C4.10343 3.14859 4.27523 3.10232 4.33602 2.9741C4.39683 2.84522 4.32347 2.68338 4.17214 2.61265C4.02148 2.54128 3.84968 2.58755 3.78889 2.71571C3.72808 2.84393 3.80144 3.00585 3.95277 3.07722Z" fill="#6290A7"/>
<path d="M2.20692 3.82327C2.10383 3.92962 1.92607 3.92368 1.80911 3.81133C1.69148 3.69834 1.68026 3.52062 1.78335 3.4142C1.88642 3.30779 2.06419 3.31379 2.18114 3.42608C2.2981 3.53907 2.30935 3.71686 2.20692 3.82327Z" fill="#6290A7"/>
<path d="M3.47897 4.17904C3.51726 4.18691 3.54941 4.19349 3.57214 4.19924C3.73073 4.23892 3.80408 4.04462 3.79549 3.92304C3.79416 3.90252 3.78492 3.88271 3.76906 3.86948C3.53844 3.66794 3.27015 3.57741 2.9642 3.59922C2.94478 3.60051 2.92845 3.60412 2.91504 3.61025C2.90793 3.61354 2.90164 3.61754 2.89614 3.62238C2.86903 3.64484 2.86045 3.67123 2.86969 3.70163C2.87565 3.72215 2.87366 3.74261 2.86376 3.76177C2.72695 4.02448 3.23119 4.12812 3.47897 4.17904Z" fill="#6290A7"/>
<path d="M1.98025 4.93213C1.98091 5.05306 1.88311 5.15218 1.76219 5.15283L0.387711 5.16005C0.266778 5.16076 0.167657 5.06358 0.166996 4.942V4.90502C0.166334 4.78409 0.264132 4.68497 0.385065 4.68432L1.75955 4.67703C1.88047 4.67639 1.97959 4.77351 1.98025 4.89508V4.93213Z" fill="#6290A7"/>
<path d="M3.12411 5.19116C3.23315 5.19774 3.32764 5.11449 3.3349 5.00479L3.33953 4.93671C3.34615 4.82707 3.26289 4.73317 3.15318 4.72595L2.8512 4.70678C2.74216 4.69949 2.64767 4.78273 2.64039 4.89244L2.63578 4.96117C2.62917 5.07087 2.71243 5.1647 2.82212 5.17199L3.12411 5.19116Z" fill="#6290A7"/>
<path d="M3.15914 6.01452C3.18358 6.13345 3.10693 6.24974 2.98798 6.2742L2.43357 6.3879C2.31462 6.4123 2.19832 6.3357 2.17386 6.2167L2.16859 6.19095C2.14413 6.07202 2.22079 5.95573 2.33972 5.93128L2.89415 5.81757C3.0131 5.79318 3.1294 5.86978 3.15384 5.98877L3.15914 6.01452Z" fill="#6290A7"/>
<path d="M1.37495 6.68256C1.55601 6.60925 1.6591 6.4414 1.60491 6.30659C1.55072 6.17243 1.35976 6.12287 1.17803 6.19624C0.996974 6.26955 0.893884 6.4374 0.948075 6.57221C1.00227 6.70637 1.19323 6.75593 1.37495 6.68256Z" fill="#6290A7"/>
<path d="M3.07564 12.1973C4.04834 13.6597 7.07022 13.6023 8.55968 13.3934C9.59319 13.2493 10.4476 12.9487 11.2102 12.2165C11.2478 12.1795 11.2683 12.1398 11.2716 12.0982C11.2736 12.0685 11.2445 12.046 11.2161 12.0566C8.58875 13.0161 5.76117 12.9844 3.10603 12.1571C3.08225 12.1498 3.06176 12.1762 3.07564 12.1973Z" fill="#6290A7"/>
<path fill-rule="evenodd" clip-rule="evenodd" d="M7.95505 8.28999L7.86054 8.98784C7.85262 9.04599 7.8764 9.08496 7.93125 9.10478C8.16716 9.19002 8.40901 9.22177 8.65682 9.19925C8.67731 9.19731 8.69647 9.19002 8.71233 9.17744C8.91651 9.01688 9.07247 8.93957 9.34934 8.96603C10.5428 9.08167 11.4917 9.18079 12.4935 9.70873C12.775 9.85741 13.1516 9.5363 12.7928 9.36781C11.7391 8.87188 10.8227 8.73501 9.78713 8.58039L9.53834 8.54309C9.50793 8.53844 9.49207 8.50476 9.50727 8.47836L9.7597 8.04813C9.78085 8.0118 9.82051 7.99063 9.86213 7.99263C10.8441 8.03561 13.3208 8.32833 13.5891 9.49397C13.6347 9.69292 13.6089 9.94666 13.5118 10.2553C12.738 12.7121 10.7985 14.2386 8.27751 14.606C8.23391 14.6001 8.19491 14.6014 8.16055 14.6099C8.12619 14.6186 8.12619 14.6265 8.16121 14.6337C8.22994 14.647 8.30262 14.6463 8.37994 14.6311C9.2912 14.6609 10.2038 14.6761 11.1163 14.6767C11.5703 14.6767 11.5426 15.323 11.039 15.317C10.857 15.3149 10.668 15.3186 10.4908 15.3222C10.344 15.3251 10.2053 15.3279 10.0855 15.327C7.85922 15.3078 5.6323 15.3098 3.40604 15.3329C2.89127 15.3388 2.84237 14.6886 3.39481 14.6767C4.26575 14.6582 5.13669 14.6404 6.00763 14.6232C6.0116 14.6232 6.01359 14.6212 6.01359 14.6172V14.5961C6.01359 14.5941 6.01226 14.5928 6.01028 14.5921C3.50384 14.337 1.35555 12.7108 0.57381 10.2889C0.472705 9.97505 0.431081 9.7299 0.449586 9.55347C0.579763 8.32833 3.39084 7.98669 4.31531 7.97017C4.49008 7.96701 4.58352 8.24334 4.63416 8.39312L4.64109 8.41357C4.65694 8.45984 4.62721 8.50805 4.57964 8.51599C4.41229 8.54322 4.24815 8.56845 4.08658 8.59329L4.08329 8.59388H4.0828C3.10898 8.74404 2.22769 8.87995 1.29013 9.33741C1.11502 9.42266 1.0648 9.5938 1.25709 9.70215C1.39322 9.77881 1.64498 9.73054 1.79961 9.63078C2.05138 9.46757 2.35073 9.34729 2.69633 9.26933C3.27719 9.13782 3.97763 9.03011 4.79771 8.94551C4.86201 8.93919 4.92062 8.93725 4.97362 8.9399C5.01429 8.94196 5.05167 8.94667 5.08581 8.95409C5.09705 8.95674 5.10762 8.96339 5.11554 8.97261L5.29859 9.19331C5.31445 9.21248 5.33493 9.22242 5.35939 9.22435C5.62438 9.24023 5.88209 9.19996 6.13253 9.10348C6.19398 9.07967 6.22703 9.01359 6.20918 8.95016C6.11337 8.60981 6.08099 8.27018 6.11337 7.9312C6.22173 7.23141 6.50324 6.57983 6.95854 5.97652C6.99092 5.93361 7.05568 5.93361 7.08806 5.97652C7.60415 6.65714 7.89358 7.4283 7.95505 8.28999ZM6.85744 8.49617C6.82109 8.47565 6.79533 8.44132 6.78674 8.40099C6.72925 8.14131 6.76758 7.70714 7.01604 7.55252C7.03585 7.54 7.06163 7.54394 7.07683 7.56181C7.25392 7.76993 7.32331 8.00257 7.28432 8.26024C7.246 8.51534 7.1145 8.63756 6.85744 8.49617ZM6.7821 10.6504C6.79994 10.252 6.80259 9.85283 6.79003 9.45305C6.77879 9.0658 7.21956 8.94622 7.25194 9.27992C7.29488 9.7299 7.30216 10.1799 7.27243 10.6313C7.27189 10.6373 7.27228 10.6426 7.27357 10.6472L7.27425 10.6493C7.27498 10.6513 7.2759 10.6532 7.27703 10.6548C7.27856 10.657 7.28045 10.659 7.28269 10.6607C7.28522 10.6626 7.28819 10.6641 7.29163 10.6653C7.29511 10.6665 7.29906 10.6672 7.30348 10.6676C8.20482 10.7396 9.10352 10.7443 10.0002 10.6815C10.8811 10.62 11.7705 10.4357 12.6395 10.2235C12.7254 10.203 12.8093 10.2024 12.8906 10.2216C12.9111 10.2261 12.9276 10.2427 12.9322 10.2638C12.9613 10.3874 12.923 10.4753 12.8014 10.5216C10.9505 11.2306 9.15507 11.179 7.30481 11.1104C7.28696 11.1097 7.2777 11.1182 7.27704 11.1361L7.25854 11.7625C7.25788 11.7982 7.23939 11.8161 7.2037 11.8154L6.85678 11.8114C6.82703 11.8114 6.81052 11.7969 6.80854 11.7672L6.7603 11.1348C6.75898 11.1163 6.74246 11.1017 6.72329 11.1031C4.96223 11.2035 3.38489 11.2055 1.71966 10.6894C1.54387 10.6352 1.23726 10.4984 1.25972 10.2771C1.26075 10.2653 1.26666 10.2554 1.27527 10.2489C1.2796 10.2456 1.28461 10.2432 1.29003 10.2418C1.29258 10.2412 1.29523 10.2408 1.29794 10.2407L1.30084 10.2406C1.30189 10.2405 1.30294 10.2406 1.30401 10.2407C1.70156 10.2823 2.09275 10.3644 2.48239 10.4463C2.86734 10.5272 3.25079 10.6077 3.63732 10.6484C4.53383 10.7424 5.37052 10.7212 6.22294 10.6996L6.43632 10.6943C6.50169 10.6927 6.56717 10.6912 6.63282 10.6897L6.74443 10.6874C6.7567 10.6871 6.76598 10.6839 6.77226 10.6778C6.77632 10.6738 6.77913 10.6685 6.78069 10.662C6.78113 10.6602 6.78147 10.6582 6.78169 10.6561C6.7819 10.6543 6.78205 10.6524 6.7821 10.6504ZM8.78765 13.8058L8.78822 13.8057C9.54991 13.6913 10.2369 13.4244 10.8487 13.0035C11.3159 12.6778 11.6879 12.2754 11.9661 11.7976C11.973 11.7858 11.9777 11.7726 11.9794 11.7587C11.98 11.7539 11.9802 11.749 11.98 11.7441C11.978 11.6872 12.0058 11.6621 11.9886 11.6086C11.9661 11.5372 11.9086 11.5128 11.8155 11.5352C11.5299 11.604 11.2334 11.681 10.9367 11.7581C10.3457 11.9116 9.75394 12.0653 9.24625 12.1538C7.90019 12.3877 6.54949 12.4095 5.1955 12.2199C4.48437 12.1202 3.70748 11.9082 2.95933 11.7041C2.84892 11.6739 2.73912 11.644 2.63025 11.6146C2.53442 11.5887 2.43861 11.5722 2.34279 11.5656C2.32231 11.5636 2.30975 11.5736 2.30645 11.594C2.27341 11.7916 2.31438 11.9701 2.4287 12.13C3.22432 13.2408 4.34571 13.6643 5.68649 13.8428C6.76888 13.9875 7.80238 13.9749 8.78765 13.8058Z" fill="#6290A7"/>
</svg>
