<svg width="16" height="14" viewBox="0 0 16 14" fill="none" xmlns="http://www.w3.org/2000/svg">
<path fill-rule="evenodd" clip-rule="evenodd" d="M13.6903 0.912268C13.6598 0.942105 13.6111 0.942106 13.5812 0.911695L13.4912 0.821037C13.4326 0.761937 13.4366 0.662673 13.5003 0.599557L13.5141 0.585785C13.5778 0.522668 13.6765 0.519226 13.7356 0.578325L13.8257 0.668984C13.8555 0.699395 13.8555 0.748166 13.8251 0.778003L13.6903 0.912268ZM2.60704 0.982195C2.65289 0.928524 2.69898 0.886448 2.74366 0.84565C2.82032 0.775661 2.89286 0.709435 2.95303 0.594891C2.96508 0.571366 2.98057 0.569644 2.99835 0.589153L3.39714 1.02064C3.41091 1.03556 3.40804 1.05908 3.3914 1.06998C3.22902 1.17613 3.10107 1.31499 3.00811 1.48655C3.00008 1.50147 2.98 1.50319 2.9691 1.49057L2.60646 1.06138C2.58753 1.03843 2.58753 1.00457 2.60704 0.982195ZM1.97413 1.81895C1.99593 1.80632 2.0011 1.77649 1.98446 1.75755L1.65396 1.37656C1.62355 1.34098 1.56559 1.34959 1.54723 1.3932C1.49846 1.5091 1.41813 1.59517 1.30624 1.65083C1.24313 1.68238 1.22649 1.76444 1.27297 1.81723L1.56158 2.14772C1.59199 2.18273 1.64764 2.17584 1.66887 2.1351C1.74002 2.00026 1.84158 1.89526 1.97413 1.81895ZM2.60761 5.16911C2.4217 5.46346 2.24039 5.77273 2.06366 6.09749C1.75898 6.88472 1.6775 7.79532 1.68324 8.5619C1.69529 10.0193 1.70218 11.4761 1.70447 12.933C1.70555 13.3938 1.9933 13.3942 2.36325 13.3947L2.43031 13.3949C3.27205 13.4 4.11379 13.3978 4.95611 13.3874C5.29177 13.3828 5.45358 13.3375 5.44899 12.968C5.43924 12.2479 5.43177 11.5249 5.42604 10.7991C5.42546 10.7767 5.41456 10.767 5.39276 10.771C5.09382 10.8249 4.79947 10.8989 4.51028 10.993C4.25035 11.0785 4.11551 11.2707 4.10691 11.5702C4.08797 12.2031 4.07994 12.6295 4.08223 12.8492C4.08223 12.8704 4.07133 12.8819 4.0501 12.8825L3.70067 12.8974C3.67428 12.8986 3.6519 12.8768 3.6519 12.8504C3.6519 12.3575 3.6628 11.8904 3.68403 11.4492C3.70813 10.9557 4.05986 10.6637 4.52692 10.5656C5.80531 10.2976 7.07739 10.0009 8.34316 9.67619C8.38574 9.66535 8.43902 9.66133 8.49018 9.65747L8.49019 9.65746C8.51761 9.65539 8.54443 9.65337 8.56866 9.65036C8.59103 9.6475 8.60251 9.65725 8.60251 9.67963C8.59964 11.1755 8.59964 12.1888 8.60366 12.7184L8.6039 12.7514C8.60684 13.1692 8.60849 13.4049 9.12408 13.3943C9.62729 13.384 10.1311 13.3748 10.6349 13.3668C10.8661 13.3633 10.9814 13.2572 10.9814 13.0477C10.9826 11.0653 10.9831 9.08232 10.9826 7.09817C10.9826 7.07293 10.9946 7.05629 11.0187 7.04883L11.5432 6.88759C11.5621 6.88186 11.5782 6.88645 11.5914 6.90079C11.7074 7.02633 11.8139 7.14852 11.9177 7.26751L11.9178 7.26754C12.2699 7.67119 12.59 8.03819 13.1377 8.37542C13.1566 8.38747 13.1664 8.40468 13.1664 8.42706L13.1756 12.4384C13.1756 12.4602 13.1595 12.4785 13.1377 12.4814C13.0379 12.4935 12.9461 12.4757 12.8623 12.4281C12.8422 12.4166 12.829 12.3959 12.8273 12.3735C12.802 12.0981 12.7934 11.8221 12.8015 11.5456C12.8112 11.2042 12.3723 11.1393 12.1606 11.2988C11.9087 11.4888 12.0131 12.4441 12.1227 12.6914C12.3166 13.1292 12.8456 13.3748 13.311 13.2859C14.1608 13.1241 14.4281 12.2169 14.4373 11.4589C14.4499 10.3894 14.4597 9.31872 14.466 8.24632C14.466 8.22681 14.4563 8.2159 14.4373 8.21303C13.9123 8.14361 13.4412 7.94737 13.0241 7.62548C12.8067 7.45734 12.7 7.1521 12.6036 6.8764L12.6036 6.87638L12.6036 6.87635C12.5777 6.80208 12.5525 6.72996 12.5261 6.66324C12.5226 6.65406 12.526 6.64316 12.5347 6.63857C12.5433 6.63341 12.5542 6.63513 12.5605 6.64316C13.1991 7.44244 14.2267 8.01164 15.2791 7.89573C15.648 7.85499 15.7691 7.44015 15.3577 7.35523C15.1999 7.32252 14.913 7.27777 14.4981 7.22154C14.4775 7.21867 14.4672 7.20662 14.4672 7.18539C14.4677 7.06499 14.4692 6.94525 14.4707 6.82611C14.4813 5.99189 14.4916 5.18699 14.1481 4.3922C13.8544 3.7117 13.1733 2.65134 12.5593 2.26404C11.9144 1.8578 10.9682 1.9278 10.3657 2.46716C10.3531 2.47863 10.3571 2.49929 10.3732 2.50503C10.6412 2.602 10.8678 2.75921 11.052 2.97611C11.0652 2.99217 11.0721 3.01053 11.0727 3.03119C11.0738 3.17865 11.0049 3.28021 10.8661 3.33702C10.8535 3.34218 10.8391 3.33931 10.8288 3.32956C10.2108 2.73512 9.52229 2.62495 8.76374 2.99963C8.02356 3.36513 7.60298 4.18392 7.77798 5.00042C7.96905 5.8915 8.70751 6.58693 9.54753 6.87382C9.57048 6.88186 9.59401 6.86464 9.59401 6.84054C9.58885 6.25414 9.78049 4.89828 10.3904 4.60737C10.4082 4.59877 10.4243 4.60106 10.4386 4.61311C10.5161 4.67737 10.5706 4.75713 10.6027 4.85181C10.6096 4.87304 10.6067 4.89599 10.5953 4.91492C10.1833 5.58855 10.0628 6.04757 10.0043 6.8635C9.98418 7.14178 9.90271 7.35351 9.58081 7.29326C9.14129 7.21121 8.73391 6.97997 8.36152 6.68103C7.37346 5.88978 6.97067 4.53795 7.66437 3.40759C7.90134 3.02144 8.24332 2.72995 8.6903 2.532C8.71841 2.51937 8.71784 2.50847 8.68858 2.49929C8.41201 2.41494 8.1102 2.35527 7.78372 2.32084C6.73886 2.21068 5.4444 2.21527 4.45921 2.55782C4.44142 2.56413 4.42937 2.58077 4.42937 2.5997V7.28006C4.42937 7.31047 4.44487 7.32597 4.47585 7.32597C5.70891 7.32769 6.95058 7.33228 8.19971 7.33974C8.23357 7.34031 8.26972 7.34146 8.30759 7.34433C8.32709 7.34548 8.34431 7.35752 8.35291 7.37531C8.39537 7.45966 8.41086 7.55089 8.39882 7.64843C8.3925 7.69835 8.36439 7.7236 8.3139 7.72417L4.02715 7.74483C4.0042 7.74483 3.98527 7.72589 3.98527 7.70294L3.97494 2.74889C3.97494 2.72077 3.9474 2.70069 3.921 2.70987C1.4566 3.54358 0.613134 6.49513 0.532804 8.82412C0.516739 9.28314 0.509854 9.7416 0.512149 10.1995C0.512257 10.2156 0.512207 10.2314 0.512158 10.2471C0.511684 10.397 0.511279 10.5249 0.651578 10.6138C0.941339 10.7974 1.11347 10.5087 1.1129 10.2454C1.11269 10.1208 1.11177 9.99435 1.11084 9.86708C1.10664 9.29164 1.10231 8.69895 1.16339 8.17976C1.33323 6.72292 1.73374 5.07271 2.91803 4.08351C3.14582 3.89301 3.32943 4.1713 3.19861 4.36237L3.23131 4.42376C3.24107 4.4427 3.2382 4.45934 3.22386 4.47483C3.17342 4.52738 3.12238 4.57852 3.07164 4.62937L3.07162 4.62938L3.07162 4.62938L3.07162 4.62939C2.9024 4.79894 2.7365 4.96518 2.60761 5.16911ZM13.3781 5.09681C13.3781 5.25632 13.2484 5.386 13.0889 5.386C12.9294 5.386 12.7997 5.25632 12.7997 5.09681C12.7997 4.9373 12.9294 4.80762 13.0889 4.80762C13.2484 4.80762 13.3781 4.9373 13.3781 5.09681ZM4.90617 12.8946C4.94863 12.8952 4.98306 12.8613 4.98363 12.8194L4.98708 12.5578C4.98822 12.5153 4.95437 12.4809 4.91191 12.4803L4.62158 12.4769C4.57912 12.4763 4.54469 12.5102 4.54411 12.5521L4.54067 12.8137C4.53952 12.8562 4.57338 12.8906 4.61584 12.8912L4.90617 12.8946ZM3.49523 12.8212C3.49523 12.8602 3.46367 12.8918 3.42465 12.8918H3.15382C3.11481 12.8918 3.08325 12.8602 3.08325 12.8212V12.5492C3.08325 12.5102 3.11481 12.4786 3.15382 12.4786H3.42465C3.46367 12.4786 3.49523 12.5102 3.49523 12.5492V12.8212ZM2.67817 12.8385C2.67817 12.8683 2.65464 12.8924 2.62537 12.8924L2.27766 12.8947C2.2484 12.8947 2.2243 12.8712 2.22373 12.8419L2.22143 12.5424C2.22143 12.5126 2.24496 12.4885 2.27422 12.4885L2.62193 12.4862C2.6512 12.4862 2.67529 12.5097 2.67587 12.539L2.67817 12.8385ZM9.56471 12.8196C9.56586 12.8615 9.53258 12.8959 9.49069 12.897L9.18888 12.9034C9.147 12.9045 9.11257 12.8712 9.11142 12.8293L9.10626 12.5838C9.10511 12.5419 9.13839 12.5074 9.18028 12.5063L9.48209 12.5C9.52397 12.4988 9.5584 12.5321 9.55955 12.574L9.56471 12.8196ZM10.3818 12.89C10.4248 12.8871 10.4581 12.8499 10.4552 12.8062L10.4386 12.5566C10.4357 12.513 10.3979 12.4803 10.3548 12.4832L10.0754 12.5016C10.0324 12.5044 9.99909 12.5417 10.002 12.5853L10.0186 12.8349C10.0215 12.8785 10.0593 12.9112 10.1024 12.9084L10.3818 12.89ZM6.52327 3.39264C6.56401 3.23485 6.57205 3.07533 6.5468 2.9141C6.53704 2.85098 6.56401 2.82 6.6277 2.82172L6.94787 2.82975C6.97082 2.83033 6.98058 2.8418 6.97656 2.86418C6.9473 3.04607 6.94788 3.22739 6.97829 3.40755C7.00984 3.59461 6.97828 3.71051 6.79812 3.7765C6.69656 3.81379 6.71721 3.96355 6.82508 3.97158L6.85549 3.97388C6.87673 3.9756 6.88246 4.00372 6.86353 4.01347C6.85722 4.01691 6.85205 4.02093 6.84861 4.02552C6.8314 4.04675 6.82164 4.06454 6.81935 4.07888C6.73959 4.5425 6.73787 5.00554 6.81475 5.46801C6.8353 5.59089 6.88681 5.69875 6.93971 5.80951L6.93973 5.80956L6.93979 5.8097L6.93983 5.80977C6.95926 5.85047 6.97888 5.89156 6.99722 5.93393C7.04084 6.03547 7.01851 6.07329 6.99118 6.11959L6.99118 6.11959C6.97466 6.14759 6.9563 6.17868 6.9496 6.22885C6.9255 6.41533 6.95763 6.59206 7.04599 6.75788C7.05919 6.78256 7.05173 6.79575 7.02361 6.79747L6.58352 6.81698C6.56114 6.81756 6.55024 6.80666 6.55196 6.78428C6.55349 6.75898 6.55649 6.72847 6.55983 6.6946V6.6946C6.58401 6.4489 6.62556 6.02668 6.24786 6.13762C6.22777 6.14393 6.21687 6.15713 6.21572 6.17836L6.19048 6.65575C6.18933 6.67641 6.19277 6.69649 6.2008 6.716C6.21228 6.74182 6.20941 6.76305 6.19162 6.77969C6.179 6.79174 6.15892 6.79747 6.13195 6.79747C5.98965 6.79805 5.85137 6.79747 5.7171 6.7969C5.68555 6.7969 5.67235 6.75731 5.69702 6.7378C5.84466 6.62281 5.82075 6.44994 5.79644 6.27411C5.77332 6.1069 5.74983 5.93701 5.87318 5.81171C5.93055 5.75376 5.93801 5.66253 5.89039 5.59597C5.78825 5.45252 5.7458 5.29244 5.76243 5.11571C5.76416 5.09678 5.77047 5.07899 5.7808 5.06235C5.91406 4.85107 5.8753 4.66261 5.83632 4.4731C5.78988 4.24726 5.74313 4.01992 5.98678 3.75068C6.00055 3.73519 6.00113 3.71912 5.98851 3.70248C5.80719 3.47124 5.73547 3.2073 5.77334 2.91123C5.7785 2.87049 5.81121 2.83893 5.85194 2.83492L6.15605 2.8068C6.1813 2.80451 6.20253 2.82688 6.19908 2.85213C6.16695 3.07189 6.14515 3.59977 6.48425 3.43969C6.50434 3.42993 6.51754 3.41444 6.52327 3.39264ZM5.51456 6.04864C5.24372 6.29421 5.33658 6.37128 5.45177 6.4669C5.53279 6.53416 5.62487 6.61059 5.60923 6.76128C5.60751 6.77447 5.60005 6.78136 5.58686 6.78193L5.04176 6.81406C5.00389 6.81636 4.97233 6.78652 4.97233 6.74865V2.92323C4.97233 2.89856 4.99127 2.8779 5.01594 2.87561L5.44169 2.83429C5.47267 2.83143 5.49677 2.86184 5.48644 2.89167L5.37455 3.21643C5.36996 3.22906 5.37169 3.24283 5.37857 3.2543C5.39046 3.27457 5.403 3.29495 5.41565 3.31551C5.4836 3.42594 5.55482 3.54169 5.54611 3.67374C5.54439 3.6944 5.53407 3.71276 5.51743 3.72538C5.39865 3.81375 5.34701 3.93367 5.3625 4.08572C5.3648 4.1058 5.3757 4.12416 5.39292 4.13564L5.56792 4.24695C5.60923 4.27392 5.62071 4.32958 5.59317 4.37089L5.38775 4.67327C5.3539 4.72319 5.35619 4.78975 5.39406 4.83738L5.55243 5.03763C5.5639 5.05255 5.56907 5.07206 5.5662 5.09099C5.55257 5.18174 5.50625 5.24422 5.4609 5.30538C5.3993 5.38846 5.33951 5.46911 5.36595 5.61485C5.36939 5.63264 5.37857 5.64699 5.39406 5.65789C5.51226 5.73994 5.56104 5.85412 5.54038 5.99986C5.53751 6.0188 5.52833 6.03601 5.51456 6.04864ZM7.38395 3.10288L7.38554 3.10108C7.38646 3.09991 7.38721 3.09865 7.38796 3.09715L7.48665 2.88542C7.49698 2.86362 7.48034 2.83837 7.45624 2.83837H7.25485C7.23419 2.83837 7.22501 2.8487 7.22788 2.86935C7.23648 2.93534 7.24853 3.00075 7.26402 3.06502C7.26919 3.08739 7.2778 3.10403 7.28985 3.11378C7.31681 3.13674 7.3478 3.13329 7.38395 3.10288ZM7.12633 6.75609C7.12977 6.62986 7.22043 6.52026 7.31109 6.44739C7.33633 6.42731 7.35642 6.43133 7.37191 6.46002L7.52052 6.74462C7.53257 6.76757 7.5165 6.79511 7.49068 6.79511L7.16821 6.79855C7.14469 6.79855 7.12575 6.77962 7.12633 6.75609Z" fill="#6290A7"/>
</svg>
