<svg width="16" height="16" viewBox="0 0 16 16" fill="none" xmlns="http://www.w3.org/2000/svg">
<g clip-path="url(#clip0_315_2416)">
<path d="M14.2786 0H1.72141C0.770702 0 0 0.770702 0 1.72141V14.2786C0 15.2293 0.770702 16 1.72141 16H14.2786C15.2293 16 16 15.2293 16 14.2786V1.72141C16 0.770702 15.2293 0 14.2786 0Z" fill="black"/>
<path d="M12.597 12.5974C12.9419 12.2524 12.2421 11.1028 12.4854 10.7738C12.7762 10.3804 13.8228 10.7461 14.2313 10.5033C14.6398 10.2604 14.4482 9.64773 14.5504 9.18797C14.6525 8.7282 15.372 8.69008 15.372 8.00067C15.372 7.31126 14.6525 7.27267 14.5504 6.81338C14.4482 6.35361 14.6398 5.74091 14.2313 5.49808C13.8228 5.25526 12.7762 5.62091 12.4854 5.2275C12.2421 4.89808 12.9414 3.74844 12.597 3.40397C12.2525 3.05949 11.1024 3.75879 10.7734 3.5155C10.38 3.22467 10.7457 2.17808 10.5028 1.76961C10.26 1.36114 9.6473 1.55267 9.18754 1.45055C8.72777 1.34844 8.68966 0.628906 8.00024 0.628906C7.31083 0.628906 7.27224 1.34844 6.81295 1.45055C6.35319 1.55267 5.74048 1.36114 5.49766 1.76961C5.25483 2.17808 5.62048 3.22467 5.22707 3.5155C4.89766 3.75879 3.74801 3.05949 3.40354 3.40397C3.0586 3.74891 3.75836 4.89855 3.51507 5.2275C3.22424 5.62091 2.17766 5.25526 1.76918 5.49808C1.36071 5.74091 1.55224 6.35361 1.45013 6.81338C1.34801 7.27314 0.628479 7.31126 0.628479 8.00067C0.628479 8.69008 1.34801 8.72867 1.45013 9.18797C1.55224 9.64773 1.36071 10.2604 1.76918 10.5033C2.17766 10.7461 3.22424 10.3804 3.51507 10.7738C3.75836 11.1033 3.05907 12.2529 3.40354 12.5974C3.74848 12.9423 4.89813 12.2426 5.22707 12.4858C5.62048 12.7767 5.25483 13.8233 5.49766 14.2317C5.74048 14.6402 6.35319 14.4487 6.81295 14.5508C7.27272 14.6529 7.31083 15.3724 8.00024 15.3724C8.68966 15.3724 8.72824 14.6529 9.18754 14.5508C9.6473 14.4487 10.26 14.6402 10.5028 14.2317C10.7457 13.8233 10.38 12.7767 10.7734 12.4858C11.1028 12.2426 12.2525 12.9418 12.597 12.5974Z" fill="white"/>
<path d="M11.4082 11.4076C11.6637 11.152 11.1451 10.2993 11.3254 10.0551C11.5409 9.76332 12.3169 10.0344 12.62 9.85462C12.923 9.67485 12.7809 9.22026 12.8567 8.87956C12.9324 8.53885 13.4656 8.51014 13.4656 7.99909C13.4656 7.48803 12.9324 7.45932 12.8567 7.11862C12.7809 6.77791 12.923 6.32332 12.62 6.14356C12.3169 5.96379 11.5409 6.23485 11.3254 5.94309C11.1451 5.69885 11.6637 4.84662 11.4082 4.59062C11.1527 4.33509 10.3 4.85367 10.0557 4.67344C9.76396 4.45791 10.035 3.68191 9.85526 3.37885C9.67549 3.07579 9.2209 3.21791 8.8802 3.14214C8.53949 3.06638 8.51079 2.5332 7.99973 2.5332C7.48867 2.5332 7.45996 3.06638 7.11926 3.14214C6.77855 3.21791 6.32396 3.07579 6.1442 3.37885C5.96443 3.68191 6.23549 4.45791 5.94373 4.67344C5.69949 4.85367 4.84726 4.33509 4.59126 4.59062C4.33526 4.84614 4.85432 5.69885 4.67408 5.94309C4.45855 6.23485 3.68255 5.96379 3.37949 6.14356C3.07643 6.32332 3.21855 6.77791 3.14279 7.11862C3.06702 7.45932 2.53384 7.48803 2.53384 7.99909C2.53384 8.51014 3.06702 8.53885 3.14279 8.87956C3.21855 9.22026 3.07643 9.67485 3.37949 9.85462C3.68255 10.0344 4.45855 9.76332 4.67408 10.0551C4.85432 10.2993 4.33573 11.1516 4.59126 11.4076C4.84679 11.6636 5.69949 11.1445 5.94373 11.3247C6.23549 11.5403 5.96443 12.3163 6.1442 12.6193C6.32396 12.9224 6.77855 12.7803 7.11926 12.856C7.45996 12.9318 7.48867 13.465 7.99973 13.465C8.51079 13.465 8.53949 12.9318 8.8802 12.856C9.2209 12.7803 9.67549 12.9224 9.85526 12.6193C10.035 12.3163 9.76396 11.5403 10.0557 11.3247C10.3 11.1445 11.1522 11.6631 11.4082 11.4076Z" fill="black"/>
<path d="M10.1417 10.1419C10.3021 9.98139 9.97648 9.44539 10.0899 9.29198C10.2254 9.10892 10.7129 9.27881 10.9035 9.16587C11.0941 9.05292 11.0047 8.76728 11.0522 8.55316C11.0998 8.33904 11.4348 8.32116 11.4348 7.99975C11.4348 7.67834 11.0998 7.66045 11.0522 7.44634C11.0047 7.23222 11.0937 6.94657 10.9035 6.83363C10.7129 6.72069 10.2254 6.89104 10.0899 6.70751C9.97648 6.5541 10.3026 6.01857 10.1417 5.85763C9.98071 5.69669 9.44518 6.02281 9.29177 5.90939C9.10871 5.77386 9.27859 5.28634 9.16565 5.09575C9.05271 4.90516 8.76706 4.99457 8.55295 4.94704C8.33883 4.89951 8.32095 4.56445 7.99953 4.56445C7.67812 4.56445 7.66024 4.89951 7.44612 4.94704C7.232 4.99457 6.94636 4.90563 6.83342 5.09575C6.72048 5.28634 6.89083 5.77386 6.7073 5.90939C6.55389 6.02281 6.01836 5.69669 5.85742 5.85763C5.69648 6.01857 6.02259 6.5541 5.90918 6.70751C5.77365 6.89057 5.28612 6.72069 5.09553 6.83363C4.90495 6.94657 4.99436 7.23222 4.94683 7.44634C4.8993 7.66045 4.56424 7.67834 4.56424 7.99975C4.56424 8.32116 4.8993 8.33904 4.94683 8.55316C4.99436 8.76728 4.90542 9.05292 5.09553 9.16587C5.28612 9.27881 5.77365 9.10845 5.90918 9.29198C6.02259 9.44539 5.69648 9.98092 5.85742 10.1419C6.01836 10.3028 6.55389 9.97669 6.7073 10.0901C6.89036 10.2256 6.72048 10.7132 6.83342 10.9037C6.94636 11.0943 7.232 11.0049 7.44612 11.0525C7.66024 11.1 7.67812 11.435 7.99953 11.435C8.32095 11.435 8.33883 11.1 8.55295 11.0525C8.76706 11.0049 9.05271 11.0939 9.16565 10.9037C9.27859 10.7132 9.10824 10.2256 9.29177 10.0901C9.44518 9.97669 9.98071 10.3028 10.1417 10.1419Z" fill="white"/>
</g>
<defs>
<clipPath id="clip0_315_2416">
<rect width="16" height="16" fill="white"/>
</clipPath>
</defs>
</svg>
