<svg width="16" height="16" viewBox="0 0 16 16" fill="none" xmlns="http://www.w3.org/2000/svg">
<path d="M14.279 0H1.72146C0.770846 0 0 0.770846 0 1.72099V14.279C0 15.2296 0.770846 16 1.72146 16H14.2795C15.2301 16 16.0009 15.2292 16.0009 14.279V1.72099C16.0009 0.770376 15.2301 0 14.2795 0H14.279ZM14.551 9.18756C14.4489 9.64734 14.6404 10.2601 14.2319 10.5029C13.8235 10.7457 12.7768 10.3801 12.486 10.7735C12.2427 11.1029 12.942 12.2526 12.5975 12.5971C12.2526 12.942 11.1029 12.2422 10.774 12.4855C10.3805 12.7764 10.7462 13.823 10.5034 14.2315C10.2605 14.64 9.64781 14.4484 9.18803 14.5505C8.72825 14.6527 8.69014 15.3722 8.0007 15.3722C7.31127 15.3722 7.27268 14.6527 6.81337 14.5505C6.3536 14.4484 5.74087 14.64 5.49804 14.2315C5.25521 13.823 5.62087 12.7764 5.22745 12.4855C4.89803 12.2422 3.74834 12.9416 3.40386 12.5971C3.05891 12.2521 3.7587 11.1024 3.5154 10.7735C3.22456 10.3801 2.17795 10.7457 1.76946 10.5029C1.36098 10.2601 1.55252 9.64734 1.4504 9.18756C1.34827 8.72779 0.628724 8.68967 0.628724 8.00024C0.628724 7.3108 1.34827 7.27221 1.4504 6.81291C1.55252 6.35313 1.36098 5.7404 1.76946 5.49757C2.17795 5.25474 3.22456 5.6204 3.5154 5.22698C3.7587 4.89756 3.05938 3.74788 3.40386 3.40339C3.74882 3.05844 4.8985 3.75823 5.22745 3.51493C5.62087 3.2241 5.25521 2.17748 5.49804 1.76899C5.74087 1.36051 6.3536 1.55205 6.81337 1.44993C7.27315 1.3478 7.31127 0.628254 8.0007 0.628254C8.69014 0.628254 8.72872 1.3478 9.18803 1.44993C9.64781 1.55205 10.2605 1.36051 10.5034 1.76899C10.7462 2.17748 10.3805 3.2241 10.774 3.51493C11.1034 3.75823 12.2531 3.05891 12.5975 3.40339C12.9425 3.74835 12.2427 4.89803 12.486 5.22698C12.7768 5.6204 13.8235 5.25474 14.2319 5.49757C14.6404 5.7404 14.4489 6.35313 14.551 6.81291C14.6531 7.27269 15.3727 7.3108 15.3727 8.00024C15.3727 8.68967 14.6531 8.72826 14.551 9.18756ZM12.8573 7.11974C12.7815 6.77902 12.9237 6.32442 12.6206 6.14465C12.3175 5.96488 11.5415 6.23595 11.326 5.94418C11.1457 5.69993 11.6643 4.84767 11.4088 4.59166C11.1533 4.33566 10.3005 4.85473 10.0563 4.67449C9.76452 4.45895 10.0356 3.68293 9.85582 3.37986C9.67605 3.0768 9.22145 3.21892 8.88073 3.14315C8.54001 3.06738 8.51131 2.53419 8.00023 2.53419C7.48916 2.53419 7.46045 3.06738 7.11974 3.14315C6.77902 3.21892 6.32442 3.0768 6.14465 3.37986C5.96488 3.68293 6.23595 4.45895 5.94417 4.67449C5.69993 4.85473 4.84767 4.33613 4.59166 4.59166C4.33613 4.8472 4.85473 5.69993 4.67449 5.94418C4.45895 6.23595 3.68293 5.96488 3.37986 6.14465C3.0768 6.32442 3.21892 6.77902 3.14315 7.11974C3.06738 7.46045 2.53419 7.48916 2.53419 8.00024C2.53419 8.51131 3.06738 8.54002 3.14315 8.88073C3.21892 9.22145 3.0768 9.67605 3.37986 9.85582C3.68293 10.0356 4.45895 9.76452 4.67449 10.0563C4.85473 10.3005 4.33613 11.1528 4.59166 11.4088C4.8472 11.6643 5.69993 11.1457 5.94417 11.326C6.23595 11.5415 5.96488 12.3175 6.14465 12.6206C6.32442 12.9237 6.77902 12.7816 7.11974 12.8573C7.46045 12.9331 7.48916 13.4663 8.00023 13.4663C8.51131 13.4663 8.54001 12.9331 8.88073 12.8573C9.22145 12.7816 9.67605 12.9237 9.85582 12.6206C10.0356 12.3175 9.76452 11.5415 10.0563 11.326C10.3005 11.1457 11.1528 11.6643 11.4088 11.4088C11.6643 11.1533 11.1457 10.3005 11.326 10.0563C11.5415 9.76452 12.3175 10.0356 12.6206 9.85582C12.9237 9.67605 12.7815 9.22145 12.8573 8.88073C12.9331 8.54002 13.4663 8.51131 13.4663 8.00024C13.4663 7.48916 12.9331 7.46045 12.8573 7.11974ZM11.0526 8.55366C11.005 8.76779 11.094 9.05344 10.9038 9.16639C10.7133 9.27933 10.2257 9.10897 10.0902 9.29251C9.97676 9.44593 10.3029 9.98147 10.1419 10.1424C9.981 10.3034 9.44545 9.97723 9.29204 10.0907C9.10897 10.2262 9.27886 10.7137 9.16591 10.9043C9.05297 11.0949 8.76731 11.0055 8.55319 11.053C8.33907 11.1006 8.32118 11.4356 7.99976 11.4356C7.67834 11.4356 7.66046 11.1006 7.44633 11.053C7.23221 11.0055 6.94656 11.0949 6.83361 10.9043C6.72067 10.7137 6.89102 10.2262 6.70749 10.0907C6.55407 9.97723 6.01853 10.3034 5.85758 10.1424C5.69711 9.98194 6.02276 9.44593 5.90935 9.29251C5.77381 9.10945 5.28627 9.27933 5.09568 9.16639C4.90508 9.05344 4.9945 8.76779 4.94697 8.55366C4.89944 8.33954 4.56437 8.32166 4.56437 8.00024C4.56437 7.67881 4.89944 7.66093 4.94697 7.44681C4.9945 7.23268 4.90555 6.94703 5.09568 6.83408C5.28627 6.72114 5.77381 6.8915 5.90935 6.70796C6.02276 6.55455 5.69664 6.019 5.85758 5.85806C6.01806 5.69758 6.55407 6.02324 6.70749 5.90982C6.89055 5.77429 6.72067 5.28674 6.83361 5.09615C6.94656 4.90556 7.23221 4.99497 7.44633 4.94744C7.66046 4.89991 7.67834 4.56484 7.99976 4.56484C8.32118 4.56484 8.33907 4.89991 8.55319 4.94744C8.76731 4.99497 9.05297 4.90556 9.16591 5.09615C9.27886 5.28674 9.1085 5.77429 9.29204 5.90982C9.44545 6.02324 9.981 5.69711 10.1419 5.85806C10.3029 6.019 9.97676 6.55455 10.0902 6.70796C10.2257 6.89103 10.7133 6.72114 10.9038 6.83408C11.0944 6.94703 11.005 7.23268 11.0526 7.44681C11.1001 7.66093 11.4352 7.67881 11.4352 8.00024C11.4352 8.32166 11.1001 8.33954 11.0526 8.55366Z" fill="white"/>
</svg>
