<svg width="16" height="16" viewBox="0 0 16 16" fill="none" xmlns="http://www.w3.org/2000/svg">
<path d="M10.3578 1.00919C10.3578 1.1424 10.2499 1.25032 10.1167 1.25032C9.98349 1.25032 9.87556 1.1424 9.87556 1.00919C9.87556 0.875988 9.98349 0.768066 10.1167 0.768066C10.2499 0.768066 10.3578 0.875988 10.3578 1.00919Z" fill="#6692A9"/>
<path d="M5.18377 1.51491C5.18377 1.63578 5.08571 1.73384 4.96484 1.73384C4.84397 1.73384 4.74592 1.63578 4.74592 1.51491C4.74592 1.39404 4.84397 1.29599 4.96484 1.29599C5.08571 1.29599 5.18377 1.39404 5.18377 1.51491Z" fill="#6692A9"/>
<path d="M11.0867 1.82877C11.2181 1.82877 11.3242 1.7227 11.3242 1.59135C11.3242 1.45999 11.2181 1.35392 11.0867 1.35392C10.9554 1.35392 10.8493 1.45999 10.8493 1.59135C10.8493 1.7227 10.9554 1.82877 11.0867 1.82877Z" fill="#6692A9"/>
<path d="M14.9108 4.66372C14.9108 4.87155 14.7425 5.0399 14.5347 5.0399C14.3268 5.0399 14.1585 4.87155 14.1585 4.66372C14.1585 4.4559 14.3268 4.28754 14.5347 4.28754C14.7425 4.28754 14.9108 4.4559 14.9108 4.66372Z" fill="#6692A9"/>
<path d="M1.52926 5.03248C1.73339 5.03248 1.89866 4.86721 1.89866 4.66308C1.89866 4.45896 1.73339 4.29368 1.52926 4.29368C1.32514 4.29368 1.15986 4.45896 1.15986 4.66308C1.15986 4.86721 1.32514 5.03248 1.52926 5.03248Z" fill="#6692A9"/>
<path d="M0.955735 5.77931C0.955735 5.90203 0.856448 6.00132 0.733726 6.00132C0.611005 6.00132 0.511719 5.90203 0.511719 5.77931C0.511719 5.65659 0.611005 5.5573 0.733726 5.5573C0.856448 5.5573 0.955735 5.65659 0.955735 5.77931Z" fill="#6692A9"/>
<path d="M15.3401 6.27574C15.4924 6.27574 15.6157 6.1524 15.6157 6.00008C15.6157 5.84776 15.4924 5.72442 15.3401 5.72442C15.1877 5.72442 15.0644 5.84776 15.0644 6.00008C15.0644 6.1524 15.1877 6.27574 15.3401 6.27574Z" fill="#6692A9"/>
<path d="M0.812668 8.9565C0.681313 8.91827 0.60731 8.77581 0.647395 8.63767C0.68748 8.49953 0.826853 8.41875 0.958208 8.45698C1.08956 8.49522 1.16357 8.63767 1.12348 8.77581C1.0834 8.91395 0.944023 8.99474 0.812668 8.9565Z" fill="#6692A9"/>
<path d="M14.3793 9.21179C14.51 9.21179 14.6155 9.10633 14.6155 8.97559C14.6155 8.84485 14.51 8.7394 14.3793 8.7394C14.2485 8.7394 14.1431 8.84485 14.1431 8.97559C14.1431 9.10633 14.2485 9.21179 14.3793 9.21179Z" fill="#6692A9"/>
<path d="M1.90482 9.43138C1.82034 9.43446 1.74942 9.35614 1.74572 9.25624C1.74202 9.15634 1.80739 9.07308 1.89126 9.07C1.97574 9.06692 2.04666 9.14524 2.05036 9.24514C2.05406 9.34504 1.98869 9.4283 1.90482 9.43138Z" fill="#6692A9"/>
<path d="M1.01493 11.2826C1.0211 11.2888 1.03159 11.2888 1.03837 11.2826L1.45032 10.8695C1.45649 10.8633 1.45649 10.8528 1.45032 10.846L1.03282 10.4298C1.02665 10.4236 1.01617 10.4236 1.00938 10.4298L0.597435 10.8429C0.591268 10.8491 0.591268 10.8596 0.597435 10.8664L1.01493 11.2826Z" fill="#6692A9"/>
<path d="M12.7981 12.989C12.7981 13.1432 12.6729 13.2684 12.5187 13.2684C12.3645 13.2684 12.2393 13.1432 12.2393 12.989C12.2393 12.8348 12.3645 12.7097 12.5187 12.7097C12.6729 12.7097 12.7981 12.8348 12.7981 12.989Z" fill="#6692A9"/>
<path d="M4.11381 14.1213C4.10579 14.2675 4.20878 14.3908 4.34445 14.3982C4.47951 14.4056 4.59606 14.294 4.60408 14.1478C4.6121 14.0017 4.50911 13.8783 4.37344 13.8709C4.23776 13.8642 4.12121 13.9758 4.11381 14.1213Z" fill="#6692A9"/>
<path d="M11.9464 14.1799C11.9464 14.305 11.8447 14.4068 11.7195 14.4068C11.5943 14.4068 11.4925 14.305 11.4925 14.1799C11.4925 14.0547 11.5943 13.9529 11.7195 13.9529C11.8447 13.9529 11.9464 14.0547 11.9464 14.1799Z" fill="#6692A9"/>
<path d="M3.33062 14.548C3.43608 14.548 3.5218 14.4623 3.5218 14.3569C3.5218 14.2514 3.43608 14.1657 3.33062 14.1657C3.22517 14.1657 3.13945 14.2514 3.13945 14.3569C3.13945 14.4623 3.22517 14.548 3.33062 14.548Z" fill="#6692A9"/>
<path d="M5.75544 15.235C5.57167 15.2042 5.4508 15.0161 5.48533 14.8163C5.51925 14.6165 5.69562 14.4796 5.87939 14.511C6.06317 14.5419 6.18404 14.73 6.14951 14.9298C6.11497 15.1296 5.9386 15.2665 5.75544 15.235Z" fill="#6692A9"/>
<path d="M10.248 15.1006C10.3695 15.1006 10.4682 15.0019 10.4682 14.8805C10.4682 14.759 10.3695 14.6603 10.248 14.6603C10.1266 14.6603 10.0279 14.759 10.0279 14.8805C10.0279 15.0019 10.1266 15.1006 10.248 15.1006Z" fill="#6692A9"/>
<path fill-rule="evenodd" clip-rule="evenodd" d="M3.61293 5.85139C2.79335 6.07278 2.0712 6.4946 1.44526 7.11623L1.22634 7.32097C1.21092 7.33577 1.20969 7.3518 1.22325 7.36845C1.8529 8.14733 2.64658 8.68386 3.6043 8.97802C3.62835 8.98542 3.6302 8.99714 3.61108 9.01255C2.70516 9.75382 2.49796 10.7646 2.39127 11.8851C2.38942 11.9067 2.39867 11.9196 2.41902 11.924C3.2571 12.1077 4.17597 12.1145 4.89873 11.5842C4.91477 11.5724 4.93759 11.5829 4.93944 11.6027C4.9752 12.0781 5.04797 12.548 5.15775 13.0112C5.16761 13.0531 5.1929 13.0673 5.23421 13.0543L6.19009 12.7392C6.22709 12.7269 6.26717 12.746 6.28197 12.7824C6.61869 13.618 7.18666 14.231 7.91991 14.8212C7.93594 14.8341 7.95382 14.8378 7.97294 14.8335C8.04086 14.8169 8.08854 14.7712 8.12925 14.7323C8.14584 14.7164 8.16127 14.7017 8.17645 14.6904C8.85173 14.1866 9.3568 13.5465 9.69289 12.7688C9.70091 12.7503 9.71448 12.7442 9.73359 12.7509L10.7561 13.1018C10.8085 13.1197 10.8658 13.0913 10.8825 13.0383C11.0149 12.6288 11.0375 12.2441 11.0619 11.8306C11.0667 11.7491 11.0716 11.6664 11.0774 11.5823C11.0792 11.5533 11.0915 11.5478 11.1144 11.5657C11.8945 12.1608 12.8103 12.1219 13.6915 11.9233C13.715 11.9178 13.7248 11.9036 13.7211 11.8802C13.5632 10.809 13.2753 9.69954 12.3817 8.9959C12.3706 8.98665 12.3743 8.96877 12.3884 8.96568C13.3832 8.72949 14.1325 8.09923 14.8213 7.37894C14.8367 7.3629 14.8367 7.34687 14.8219 7.33022C14.1115 6.55997 13.2481 6.04565 12.2312 5.78726C12.2059 5.78047 12.2041 5.76999 12.2263 5.75519C13.0409 5.22175 13.2592 3.99454 13.3184 3.08183C13.3209 3.04298 13.2925 3.00968 13.2543 3.00598C12.415 2.91964 11.4973 2.96219 10.7487 3.45C10.7215 3.46788 10.7074 3.46048 10.7067 3.4278C10.7012 3.21504 10.6611 3.01153 10.5871 2.81727C10.5532 2.72908 10.4952 2.7075 10.4132 2.75375C10.2343 2.85304 10.0469 2.93136 9.85077 2.9881C9.8446 2.98995 9.83843 2.99364 9.83412 2.99858L9.72188 3.10712C9.70523 3.12315 9.67809 3.11698 9.67008 3.0954C9.37715 2.27027 8.70063 1.50249 8.02536 0.973365C7.99329 0.948081 7.94827 0.949314 7.91744 0.975215C7.22428 1.56045 6.66185 2.1716 6.31466 3.0732C6.30541 3.09725 6.28876 3.10342 6.26594 3.09108L5.57339 2.71922C5.46301 2.6594 5.3927 2.69085 5.3631 2.81357L5.22866 3.37353C5.22496 3.38895 5.2077 3.39696 5.19351 3.39018C4.3764 2.97946 3.5821 2.92088 2.67371 3.00536C2.65151 3.00721 2.64041 3.01955 2.64103 3.04175C2.64518 3.24734 2.68929 3.50048 2.72213 3.68887C2.73322 3.75252 2.74302 3.80878 2.74957 3.85331C2.847 4.50762 3.13315 5.40244 3.71777 5.76506C3.73997 5.77862 3.73936 5.79096 3.71592 5.80267L3.61293 5.85139ZM7.09168 3.80272L6.78395 3.52274C6.76977 3.50979 6.76422 3.49006 6.76915 3.47156C6.94121 2.80245 7.33959 2.28319 7.83726 1.82191C7.91188 1.75345 7.99143 1.75222 8.07715 1.81821C8.51685 2.16047 9.09531 2.80183 9.18226 3.40002C9.18534 3.42222 9.18041 3.44504 9.16808 3.46354C9.08113 3.59181 8.97135 3.69788 8.83876 3.78113C8.81718 3.79532 8.803 3.78977 8.79621 3.76448C8.64204 3.17554 8.46875 2.69761 8.04324 2.26716C8.00438 2.22769 7.96738 2.22892 7.93161 2.27148C7.68062 2.57119 7.48574 2.87213 7.34699 3.1737M7.09168 3.80272C7.1145 3.82369 7.13176 3.81999 7.14348 3.791L7.09168 3.80272ZM7.14348 3.791C7.17935 3.6991 7.20795 3.59982 7.23607 3.50222L7.14348 3.791ZM8.38673 4.93929C8.08147 4.89304 7.86995 4.89242 7.56653 4.92141C7.53508 4.92449 7.52707 4.91215 7.54248 4.8844C7.70884 4.59074 7.72201 4.24945 7.73479 3.91821C7.74906 3.5483 7.76285 3.19092 7.98897 2.92641C8.00069 2.91223 8.01178 2.91284 8.02103 2.92949C8.21444 3.26994 8.23213 3.62675 8.24994 3.98588C8.2653 4.2955 8.28074 4.60684 8.40893 4.91092C8.41819 4.93374 8.41079 4.94299 8.38673 4.93929ZM8.9473 5.06572C8.92942 5.07743 8.93373 5.10457 8.95409 5.11135L9.52638 5.29328C9.54426 5.29883 9.55598 5.29266 9.56153 5.27477C9.59338 5.17944 9.62628 5.08419 9.65922 4.98882C9.82595 4.50616 9.99376 4.02041 10.0308 3.50549C10.0339 3.4617 9.98766 3.43148 9.94881 3.45183C9.59649 3.63293 9.48784 3.97664 9.38143 4.31327C9.28854 4.60712 9.19736 4.89556 8.9473 5.06572ZM7.08674 5.07617C7.10216 5.0848 7.10093 5.107 7.08428 5.11317L6.40283 5.36724C6.38372 5.37464 6.37323 5.36786 6.372 5.34689C6.35768 5.04202 6.25606 4.75071 6.15474 4.46026C6.0466 4.15027 5.9388 3.84126 5.93785 3.51779C5.93785 3.48202 5.96868 3.45427 6.00383 3.45797C6.30177 3.49016 6.44293 3.86844 6.5879 4.25692C6.7151 4.59777 6.84523 4.94647 7.08674 5.07617ZM3.34528 7.18345C3.92929 6.77829 4.56386 6.57909 5.24839 6.58588C5.30328 6.62411 5.33843 6.6198 5.35261 6.57293C5.38036 6.48104 5.47472 6.33119 5.63691 6.12398C5.65109 6.10609 5.64986 6.08882 5.63321 6.07279C5.19782 5.64481 4.78217 5.19894 4.38564 4.73457C4.22653 4.54833 4.09888 4.3442 4.00206 4.1222C3.99342 4.10246 4.00822 4.08088 4.02919 4.08149C4.46078 4.09504 4.75478 4.32278 5.06225 4.56094C5.28682 4.7349 5.51858 4.91442 5.81636 5.0201C5.8509 5.03243 5.88605 5.00345 5.8805 4.96706C5.86138 4.84126 5.81081 4.721 5.72818 4.60692C5.18426 3.85085 4.43806 3.53572 3.48959 3.66215C3.46985 3.66461 3.45999 3.67571 3.4606 3.69545C3.48941 4.66179 4.08391 5.21812 4.70672 5.80092C4.79058 5.8794 4.87496 5.95837 4.95855 6.03887C4.9826 6.06169 4.96841 6.10178 4.93573 6.10548C3.904 6.21586 2.9876 6.59389 2.1859 7.24019C2.12978 7.28582 2.12053 7.36784 2.16555 7.42458C2.8655 8.30521 3.91757 8.59013 5.01837 8.47357C5.03625 8.47172 5.04612 8.46247 5.04797 8.44458C5.07325 8.23429 4.9863 8.11712 4.78772 8.0943C4.32335 8.04065 3.91942 7.96048 3.57469 7.85318C3.35577 7.78534 2.84638 7.6028 2.68419 7.38449C2.66754 7.36291 2.66939 7.34256 2.68912 7.32344C2.84145 7.17605 3.05975 7.1298 3.34528 7.18345ZM11.9808 4.0753C11.4958 4.0867 11.097 4.40766 10.7204 4.71076C10.6488 4.76836 10.5779 4.8254 10.5075 4.87947C10.4095 4.9547 10.2905 5.00034 10.1505 5.01637C10.1289 5.01946 10.1178 5.00959 10.1184 4.98739C10.1196 4.89673 10.132 4.83013 10.1554 4.78881C10.5451 4.09504 11.1458 3.72009 11.958 3.66397C12.1559 3.6504 12.3403 3.66582 12.5112 3.71022C12.5327 3.71577 12.5432 3.72995 12.5426 3.75216C12.513 4.56329 12.014 5.0756 11.5028 5.60042C11.3642 5.74275 11.2247 5.886 11.0934 6.03638C11.0804 6.05118 11.0891 6.07462 11.1088 6.07708C12.0721 6.20597 13.2111 6.64814 13.916 7.35055C13.9295 7.36412 13.932 7.3857 13.9215 7.40235C13.8654 7.49054 13.7994 7.56762 13.7242 7.63422C12.9416 8.32924 12.0234 8.61107 10.9694 8.48094C10.9448 8.47786 10.9275 8.45504 10.93 8.43038L10.9602 8.1578C10.9633 8.12881 10.9799 8.1134 11.0089 8.11093C11.3487 8.08133 13.4713 7.82232 13.3677 7.21858C13.364 7.19576 13.3468 7.17664 13.324 7.17048C13.2137 7.13947 13.111 7.16411 13.0118 7.18795C12.884 7.21863 12.7617 7.24799 12.6357 7.15567C12.0462 6.72214 11.3832 6.52172 10.6463 6.55378C10.6247 6.5544 10.6124 6.54454 10.6105 6.52295C10.5932 6.35583 10.5242 6.21584 10.4039 6.10237C10.3885 6.08818 10.3885 6.06413 10.4033 6.04933C10.9115 5.54241 11.3672 5.04166 11.8371 4.43545C11.9179 4.33123 11.9771 4.22763 12.016 4.12525C12.0252 4.10059 12.0067 4.07469 11.9808 4.0753ZM5.52836 10.2768C5.58572 10.2102 5.62703 10.1756 5.65355 10.1738C5.75654 10.167 5.79046 10.2151 5.75654 10.3193C5.54995 10.9483 5.50061 11.5909 5.60853 12.2471C5.61223 12.2693 5.62518 12.2792 5.648 12.2767C5.85028 12.2527 5.96128 12.1379 5.98163 11.9326C5.99235 11.8255 6.00102 11.7179 6.00969 11.6102C6.05094 11.0982 6.09235 10.5841 6.35473 10.1164C6.36398 10.0992 6.36028 10.0856 6.34363 10.0757L5.56907 9.63109C5.53453 9.61136 5.5037 9.61568 5.47595 9.64466C5.16513 9.96843 4.8648 10.2811 4.57434 10.5833C4.27586 10.8935 4.01069 10.9076 3.59874 10.9052C3.57654 10.9052 3.56852 10.8947 3.57469 10.8731C3.77203 10.167 4.63848 9.49912 5.28169 9.22531C5.29957 9.2173 5.30697 9.20373 5.30327 9.18461L5.21817 8.74553C5.21508 8.72888 5.20522 8.72332 5.18857 8.72887C4.11861 9.12849 3.24352 9.98754 3.06653 11.1463C3.05728 11.2055 3.09367 11.2622 3.15102 11.2789C4.24626 11.5983 4.86357 11.052 5.52836 10.2768ZM10.2602 10.2527C10.2602 10.2558 10.2584 10.2706 10.2547 10.2971C10.2528 10.3125 10.2541 10.3273 10.2584 10.3415C10.4625 10.9958 10.5131 11.6532 10.4095 12.3149C10.4039 12.3519 10.3836 12.363 10.3497 12.3476C10.1227 12.2458 10.0462 12.1459 10.0308 11.8826C9.99568 11.2751 9.89022 10.68 9.71385 10.0985C9.7083 10.0782 9.71446 10.0627 9.73235 10.0523L10.457 9.63228C10.4736 9.62303 10.489 9.62488 10.5032 9.63845C10.7474 9.88019 10.9885 10.1219 11.2272 10.3643C11.6065 10.7491 11.8797 10.968 12.4002 10.8953C12.4273 10.8916 12.4439 10.8632 12.4328 10.8379C12.1233 10.1256 11.406 9.53546 10.7246 9.2006C10.7061 9.19135 10.6987 9.17716 10.703 9.15681L10.7838 8.76028C10.7894 8.73376 10.8048 8.72636 10.8288 8.73808C11.7502 9.17347 12.4113 9.68409 12.8066 10.6554C12.8836 10.8453 12.9182 11.0297 12.9095 11.2079C12.9065 11.2671 12.8645 11.3165 12.8072 11.3288C12.0147 11.4984 11.3604 11.2788 10.8436 10.6714C10.7123 10.5172 10.5643 10.3587 10.3996 10.1966C10.3484 10.1466 10.2627 10.1811 10.2602 10.2527ZM7.29026 10.6116L7.31616 10.6307C7.32788 10.6387 7.33652 10.6492 7.34207 10.6622C7.52064 11.0446 6.78515 11.6856 6.49349 11.9398C6.48 11.9515 6.46733 11.9626 6.45588 11.9726C6.37818 12.0411 6.34056 12.12 6.34303 12.2082C6.34426 12.2415 6.36954 12.2693 6.40285 12.273C6.69146 12.3019 6.87585 12.2557 7.10772 12.0688C7.43888 11.8012 7.68865 11.4694 7.857 11.0735C7.91497 10.9366 8.04818 10.8928 8.1228 11.0396C8.33 11.4478 8.55695 11.8857 8.93745 12.1058C9.12985 12.2174 9.47273 12.3315 9.69042 12.2397C9.70769 12.2323 9.71448 12.2193 9.71078 12.2008C9.68611 12.083 9.64541 12.0028 9.58805 11.9597C9.3864 11.8073 8.1746 10.8089 8.79314 10.5943C8.79622 10.5931 8.79807 10.59 8.79746 10.5869C8.79684 10.5844 8.79376 10.582 8.79067 10.582L7.29335 10.6017C7.28225 10.6017 7.28101 10.6048 7.29026 10.6116ZM7.9902 12.9156C7.87488 12.9187 7.77559 12.7361 7.76881 12.5067C7.76202 12.2779 7.85021 12.0892 7.96553 12.0855C8.08085 12.0824 8.18014 12.265 8.18692 12.4944C8.1937 12.7232 8.10552 12.9119 7.9902 12.9156ZM6.82034 12.6325C7.02447 13.2437 7.42038 13.6556 7.92113 14.0287C7.94272 14.0447 7.9643 14.046 7.98712 14.0318C8.55078 13.6834 8.94854 13.1999 9.1798 12.5801C9.18967 12.553 9.18042 12.5363 9.15267 12.5301L8.81164 12.4568C8.78882 12.4518 8.766 12.4635 8.75613 12.4845C8.6032 12.8163 8.3078 13.3781 8.00069 13.5347C7.9828 13.544 7.96122 13.5421 7.94518 13.5304C7.60724 13.2911 7.36303 12.8397 7.23167 12.4697C7.21996 12.4383 7.19837 12.4278 7.16692 12.4395L6.85919 12.5517C6.82651 12.5641 6.80924 12.5998 6.82034 12.6325ZM8.42866 7.25183C7.99821 6.82755 8.40091 6.37181 8.81779 6.14179C8.83691 6.1313 8.84616 6.13686 8.84616 6.15844C8.84632 6.20355 8.84781 6.25309 8.84939 6.30548C8.86023 6.66492 8.8751 7.15799 8.48971 7.26725C8.46813 7.27342 8.4447 7.26725 8.42866 7.25183ZM7.27109 6.22409C7.27244 6.21011 7.27369 6.19703 7.27482 6.18497C7.27667 6.16339 7.28654 6.15969 7.30319 6.17387C7.5548 6.38971 7.87733 6.69313 7.76818 7.04526C7.71699 7.21053 7.5955 7.2537 7.40371 7.17538C7.35993 7.15749 7.32601 7.12851 7.30196 7.08842C7.20371 6.92623 7.24904 6.45388 7.27109 6.22409ZM9.06447 7.56757C9.02685 7.6169 9.03363 7.65884 9.08481 7.69399C9.51958 7.99062 9.87295 7.90983 10.283 7.62862C10.3157 7.60642 10.3151 7.58484 10.2812 7.56449C9.92105 7.33939 9.37651 7.1624 9.06447 7.56757ZM5.71706 7.68724C5.69486 7.66936 5.69547 7.65332 5.71953 7.63791C6.10557 7.39123 6.55638 7.23582 6.92146 7.60584C6.97943 7.66504 6.96401 7.76371 6.89001 7.80194C6.47374 8.01717 6.08276 7.97894 5.71706 7.68724ZM7.99203 8.10475C8.16409 8.10475 8.30408 7.96476 8.30408 7.79271C8.30408 7.62065 8.16409 7.48066 7.99203 7.48066C7.81997 7.48066 7.67999 7.62065 7.67999 7.79271C7.67999 7.96476 7.81997 8.10475 7.99203 8.10475ZM6.78764 8.43587C6.89864 8.30821 7.03061 8.20214 7.18355 8.11642C7.27791 8.064 7.37781 8.17624 7.31429 8.26381C7.20699 8.41243 6.99484 8.53824 6.80737 8.4963C6.78024 8.49014 6.76913 8.45683 6.78764 8.43587ZM8.87083 8.38529C8.99293 8.42969 9.11257 8.40872 9.13786 8.33965C9.16252 8.27058 9.08297 8.1787 8.96025 8.13491C8.83814 8.09051 8.7185 8.11148 8.69322 8.18055C8.66855 8.24961 8.74811 8.3415 8.87083 8.38529ZM8.81532 9.66745L8.79565 9.65467C8.42192 9.41197 8.05891 9.17623 8.24982 8.66533C8.27325 8.60304 8.31704 8.55309 8.38117 8.51609C8.39782 8.50622 8.41571 8.50375 8.43421 8.50807C8.77524 8.59009 8.86034 9.36836 8.83506 9.65758C8.83382 9.67177 8.82704 9.67547 8.81532 9.66745ZM7.80147 9.07049C7.93467 8.50622 7.45181 8.30887 7.29455 8.86883C7.22486 9.11859 7.19033 9.37575 7.19095 9.64154C7.19095 9.66806 7.20205 9.67423 7.22363 9.65881C7.23571 9.65039 7.2483 9.64166 7.26133 9.63264C7.45713 9.49697 7.74885 9.29484 7.80147 9.07049Z" fill="#6692A9"/>
</svg>
