<svg width="259" height="259" viewBox="0 0 259 259" fill="none" xmlns="http://www.w3.org/2000/svg">
<g style="mix-blend-mode:multiply">
<path d="M123.865 128.571C119.584 140.751 111.919 151.247 102.397 162.688C92.8516 174.173 82.4382 185.629 74.7962 197.704C67.2297 209.816 63.4465 221.392 65.6062 231.345C67.932 241.237 76.1102 248.472 87.4901 250.956C98.9456 253.237 110.718 250.171 119.168 242.529C127.513 234.773 131.779 223.288 133.131 209.884C134.384 196.48 132.844 182.525 132.074 168.887C131.288 155.295 131.5 143.243 135.736 131.047C140.018 118.867 147.682 108.371 157.212 96.9303C166.757 85.4446 177.17 73.9891 184.812 61.9144C192.379 49.802 196.162 38.2257 194.003 28.273C191.677 18.3807 183.499 11.1464 172.119 8.66203C160.663 6.38151 148.891 9.44737 140.441 17.0894C132.096 24.8522 127.83 36.3303 126.486 49.7341C125.232 63.1378 126.772 77.0852 127.543 90.7306C128.328 104.323 128.117 116.375 123.888 128.571H123.865Z" stroke="url(#paint0_radial_3081_14785)" stroke-width="0.254119"/>
</g>
<g style="mix-blend-mode:multiply">
<path d="M123.816 128.775C119.964 141.099 112.67 151.86 103.548 163.625C94.403 175.435 84.3974 187.253 77.1858 199.577C70.0497 211.946 66.6667 223.651 69.1738 233.521C71.8394 243.322 80.2668 250.27 91.7298 252.354C103.261 254.234 114.92 250.753 123.091 242.824C131.163 234.782 135.022 223.153 135.905 209.711C136.691 196.27 134.667 182.383 133.421 168.775C132.16 155.22 131.956 143.168 135.754 130.829C139.606 118.505 146.9 107.752 156.022 95.9797C165.16 84.1693 175.165 72.3514 182.384 60.0275C189.52 47.6583 192.903 35.9537 190.396 26.084C187.731 16.2747 179.303 9.335 167.84 7.24326C156.309 5.36297 144.65 8.84416 136.472 16.7731C128.399 24.8229 124.541 36.4445 123.665 49.886C122.879 63.3275 124.903 77.2145 126.149 90.8221C127.41 104.377 127.614 116.429 123.816 128.768V128.775Z" stroke="url(#paint1_radial_3081_14785)" stroke-width="0.254119"/>
</g>
<g style="mix-blend-mode:multiply">
<path d="M123.788 128.986C120.368 141.438 113.458 152.44 104.751 164.523C96.0295 176.65 86.4393 188.8 79.6581 201.373C72.96 213.984 69.9848 225.802 72.8392 235.574C75.8447 245.277 84.5137 251.922 96.0371 253.614C107.621 255.086 119.152 251.205 127.051 242.997C134.836 234.675 138.287 222.925 138.702 209.453C139.012 195.997 136.513 182.185 134.791 168.631C133.062 155.121 132.435 143.084 135.803 130.624C139.224 118.172 146.133 107.17 154.84 95.0875C163.562 82.9675 173.152 70.8098 179.933 58.2367C186.631 45.6259 189.606 33.8155 186.752 24.0365C183.747 14.3329 175.078 7.68768 163.554 5.99617C151.963 4.52365 140.432 8.40506 132.541 16.6134C124.755 24.9351 121.304 36.685 120.896 50.1567C120.579 63.6133 123.086 77.4248 124.808 90.9796C126.537 104.489 127.171 116.518 123.796 128.986H123.788Z" stroke="url(#paint2_radial_3081_14785)" stroke-width="0.254119"/>
</g>
<g style="mix-blend-mode:multiply">
<path d="M123.763 129.197C120.78 141.762 114.256 152.999 105.979 165.376C97.6881 177.798 88.5282 190.28 82.1851 203.08C75.9325 215.917 73.3726 227.826 76.5593 237.499C79.9045 247.097 88.7925 253.432 100.376 254.716C112.006 255.789 123.401 251.507 130.997 243.019C138.488 234.433 141.531 222.562 141.471 209.091C141.312 195.627 138.33 181.913 136.132 168.426C133.927 154.992 132.885 142.978 135.815 130.413C138.798 117.847 145.322 106.611 153.606 94.234C161.898 81.8119 171.057 69.3295 177.401 56.5299C183.653 43.6925 186.213 31.784 183.026 22.1106C179.681 12.5128 170.793 6.17718 159.209 4.89344C147.58 3.82115 136.185 8.10279 128.588 16.5906C121.097 25.184 118.054 37.0397 118.122 50.519C118.273 63.9755 121.264 77.6964 123.461 91.1832C125.666 104.617 126.716 116.624 123.778 129.197H123.763Z" stroke="url(#paint3_radial_3081_14785)" stroke-width="0.254119"/>
</g>
<g style="mix-blend-mode:multiply">
<path d="M123.742 129.409C121.197 142.065 115.073 153.528 107.227 166.185C99.3732 178.886 90.6514 191.686 84.7688 204.697C78.9618 217.745 76.8248 229.737 80.3513 239.29C84.0288 248.759 93.1358 254.785 104.757 255.669C116.417 256.333 127.653 251.651 134.955 242.914C142.144 234.072 144.765 222.103 144.236 208.646C143.609 195.197 140.143 181.597 137.485 168.193C134.819 154.842 133.347 142.881 135.839 130.21C138.384 117.546 144.508 106.091 152.354 93.4345C160.207 80.733 168.922 67.9334 174.812 54.9223C180.619 41.8735 182.756 29.8819 179.229 20.3294C175.552 10.86 166.445 4.83396 154.831 3.95044C143.171 3.28592 131.935 7.96778 124.633 16.7047C117.451 25.555 114.823 37.5088 115.352 50.973C115.979 64.422 119.445 78.0221 122.103 91.4258C124.776 104.777 126.241 116.738 123.749 129.409H123.742Z" stroke="url(#paint4_radial_3081_14785)" stroke-width="0.254119"/>
</g>
<g style="mix-blend-mode:multiply">
<path d="M123.737 129.62C121.638 142.36 115.914 154.027 108.513 166.947C101.105 179.92 92.8366 193.007 87.4072 206.222C82.0608 219.459 80.3391 231.526 84.1978 240.951C88.2001 250.292 97.5109 255.993 109.155 256.461C120.83 256.718 131.892 251.651 138.885 242.657C145.757 233.565 147.962 221.521 146.965 208.079C145.87 194.661 141.936 181.189 138.802 167.891C135.668 154.638 133.788 142.737 135.834 129.99C137.934 117.251 143.657 105.584 151.058 92.6563C158.466 79.6906 166.727 66.5965 172.164 53.3815C177.51 40.1439 179.225 28.0768 175.373 18.6527C171.364 9.31159 162.06 3.61029 150.416 3.13455C138.734 2.8778 127.679 7.94479 120.679 16.9385C113.807 26.0304 111.602 38.0748 112.599 51.5163C113.694 64.9352 117.628 78.4068 120.762 91.7049C123.895 104.958 125.783 116.859 123.729 129.605L123.737 129.62Z" stroke="url(#paint5_radial_3081_14785)" stroke-width="0.254119"/>
</g>
<g style="mix-blend-mode:multiply">
<path d="M123.737 129.832C122.084 142.639 116.768 154.495 109.828 167.672C102.881 180.895 95.0724 194.268 90.1111 207.657C85.2329 221.076 83.9341 233.188 88.1176 242.476C92.4445 251.666 101.952 257.043 113.604 257.111C125.286 256.96 136.16 251.508 142.835 242.28C149.39 232.954 151.172 220.834 149.699 207.445C148.136 194.072 143.734 180.744 140.139 167.566C136.545 154.435 134.249 142.602 135.85 129.794C137.504 116.987 142.82 105.132 149.76 91.9543C156.707 78.7318 164.515 65.3583 169.476 51.9697C174.354 38.5509 175.653 26.4384 171.47 17.1502C167.143 7.96018 157.636 2.58359 145.984 2.51562C134.302 2.66665 123.428 8.11876 116.752 17.3466C110.205 26.6725 108.416 38.785 109.888 52.1811C111.451 65.5547 115.854 78.8753 119.448 92.0601C123.043 105.192 125.338 117.025 123.737 129.832Z" stroke="url(#paint6_radial_3081_14785)" stroke-width="0.254119"/>
</g>
<g style="mix-blend-mode:multiply">
<path d="M123.737 130.042C122.528 142.895 117.635 154.939 111.156 168.343C104.669 181.8 97.3369 195.438 92.8438 208.992C88.4338 222.57 87.5578 234.727 92.066 243.857C96.7101 252.896 106.399 257.933 118.05 257.593C129.717 257.034 140.403 251.205 146.746 241.75C152.968 232.205 154.327 220.032 152.394 206.697C150.363 193.391 145.5 180.221 141.452 167.173C137.405 154.169 134.694 142.427 135.849 129.574C137.057 116.714 141.951 104.677 148.43 91.2736C154.916 77.817 162.241 64.1792 166.742 50.6244C171.152 37.047 172.02 24.8893 167.52 15.7597C162.868 6.72065 153.179 1.67632 141.535 2.01613C129.868 2.57493 119.183 8.40461 112.84 17.859C106.618 27.4115 105.258 39.5768 107.191 52.9125C109.215 66.2181 114.086 79.3877 118.133 92.4365C122.181 105.44 124.892 117.182 123.737 130.035V130.042Z" stroke="url(#paint7_radial_3081_14785)" stroke-width="0.254119"/>
</g>
<g style="mix-blend-mode:multiply">
<path d="M123.754 130.255C122.999 143.145 118.528 155.348 112.517 168.971C106.506 182.646 99.6573 196.526 95.6324 210.239C91.6981 223.968 91.2526 236.14 96.0704 245.112C101.032 253.977 110.886 258.674 122.515 257.934C134.152 256.967 144.626 250.775 150.644 241.102C156.527 231.345 157.463 219.127 155.062 205.875C152.57 192.644 147.246 179.656 142.746 166.758C138.245 153.906 135.126 142.262 135.836 129.379C136.591 116.489 141.069 104.286 147.072 90.6629C153.083 76.9873 159.932 63.1079 163.957 49.3945C167.892 35.6661 168.337 23.4933 163.519 14.5222C158.551 5.64176 148.696 0.944795 137.067 1.68483C125.423 2.65141 114.956 8.84355 108.938 18.5169C103.055 28.2808 102.119 40.4839 104.52 53.7441C107.012 66.9742 112.336 79.9626 116.837 92.8603C121.337 105.713 124.456 117.35 123.754 130.24V130.255Z" stroke="url(#paint8_radial_3081_14785)" stroke-width="0.254119"/>
</g>
<g style="mix-blend-mode:multiply">
<path d="M123.764 130.459C123.455 143.365 119.415 155.719 113.887 169.545C108.359 183.417 101.994 197.538 98.452 211.372C95.001 225.229 94.9784 237.41 100.106 246.207C105.369 254.899 115.382 259.248 126.981 258.093C138.58 256.719 148.827 250.164 154.506 240.287C160.049 230.326 160.555 218.093 157.693 204.924C154.74 191.792 148.971 178.992 144.017 166.26C139.071 153.574 135.552 142.051 135.801 129.145C136.111 116.232 140.151 103.886 145.678 90.0593C151.206 76.1874 157.572 62.0663 161.113 48.2321C164.564 34.3753 164.587 22.1949 159.46 13.3975C154.196 4.71344 144.183 0.36384 132.592 1.51165C120.993 2.88601 110.746 9.44062 105.067 19.3178C99.5318 29.2781 99.0183 41.5114 101.88 54.681C104.833 67.8129 110.602 80.6049 115.556 93.3441C120.502 106.03 124.029 117.554 123.772 130.459H123.764Z" stroke="url(#paint9_radial_3081_14785)" stroke-width="0.254119"/>
</g>
<g style="mix-blend-mode:multiply">
<path d="M123.794 130.669C123.937 143.582 120.328 156.064 115.284 170.072C110.239 184.132 104.372 198.457 101.321 212.412C98.3533 226.383 98.7611 238.555 104.191 247.172C109.756 255.674 119.92 259.669 131.466 258.113C143.012 256.339 153.025 249.429 158.349 239.356C163.537 229.214 163.62 216.958 160.297 203.902C156.892 190.876 150.669 178.295 145.285 165.737C139.901 153.232 135.974 141.837 135.778 128.932C135.635 116.019 139.244 103.536 144.288 89.5286C149.333 75.4679 155.193 61.1429 158.251 47.188C161.219 33.2179 160.811 21.045 155.381 12.4289C149.816 3.93359 139.659 -0.0610979 128.113 1.49449C116.567 3.26907 106.554 10.1786 101.23 20.2522C96.0426 30.4012 95.9595 42.642 99.2821 55.7059C102.688 68.7321 108.91 81.3127 114.294 93.8707C119.678 106.376 123.605 117.771 123.802 130.676L123.794 130.669Z" stroke="url(#paint10_radial_3081_14785)" stroke-width="0.254119"/>
</g>
<g style="mix-blend-mode:multiply">
<path d="M123.825 130.881C124.421 143.779 121.25 156.382 116.696 170.556C112.15 184.783 106.781 199.304 104.221 213.357C101.745 227.418 102.575 239.576 108.299 247.995C114.159 256.294 124.452 259.942 135.937 257.978C147.415 255.803 157.179 248.547 162.148 238.299C166.981 227.977 166.634 215.736 162.858 202.8C158.999 189.902 152.346 177.541 146.517 165.187C140.695 152.878 136.383 141.626 135.733 128.729C135.137 115.831 138.308 103.228 142.862 89.0461C147.408 74.8192 152.769 60.2979 155.337 46.2448C157.814 32.1841 156.983 20.0263 151.259 11.6141C145.414 3.3151 135.122 -0.332227 123.636 1.63113C112.158 3.80594 102.394 11.0628 97.4176 21.3101C92.5847 31.6328 92.932 43.8736 96.7077 56.8092C100.567 69.7069 107.219 82.061 113.041 94.4227C118.864 106.731 123.183 117.983 123.825 130.881Z" stroke="url(#paint11_radial_3081_14785)" stroke-width="0.254119"/>
</g>
<g style="mix-blend-mode:multiply">
<path d="M123.873 131.085C124.915 143.953 122.189 156.662 118.134 170.987C114.086 185.364 109.231 200.067 107.162 214.203C105.176 228.339 106.429 240.467 112.448 248.675C118.594 256.77 129.008 260.048 140.418 257.692C151.813 255.117 161.32 247.52 165.927 237.107C170.397 226.625 169.619 214.4 165.398 201.608C161.086 188.853 154.011 176.733 147.758 164.583C141.513 152.486 136.801 141.385 135.713 128.525C134.671 115.65 137.397 102.949 141.453 88.6236C145.5 74.2457 150.356 59.5431 152.425 45.4069C154.411 31.2707 153.157 19.1507 147.139 10.9348C140.992 2.84728 130.579 -0.437575 119.168 1.91846C107.773 4.49349 98.2661 12.0902 93.6598 22.5036C89.1969 32.9849 89.9671 45.2106 94.1884 58.0027C98.4927 70.757 105.576 82.877 111.828 95.0272C118.073 107.124 122.786 118.217 123.88 131.085H123.873Z" stroke="url(#paint12_radial_3081_14785)" stroke-width="0.254119"/>
</g>
<g style="mix-blend-mode:multiply">
<path d="M123.918 131.296C125.413 144.118 123.125 156.918 119.576 171.371C116.027 185.877 111.692 200.746 110.114 214.943C108.626 229.147 110.295 241.214 116.601 249.211C123.027 257.08 133.546 259.994 144.873 257.246C156.17 254.27 165.405 246.357 169.649 235.785C173.75 225.152 172.549 212.964 167.882 200.323C163.132 187.728 155.634 175.864 148.958 163.941C142.291 152.07 137.201 141.143 135.66 128.328C134.165 115.499 136.453 102.714 140.002 88.2455C143.544 73.7393 147.886 58.8706 149.464 44.674C150.952 30.4698 149.283 18.4027 142.978 10.4058C136.551 2.52966 126.032 -0.385181 114.713 2.37108C103.416 5.34633 94.1806 13.2602 89.9367 23.8321C85.8363 34.4645 87.037 46.6525 91.7037 59.2935C96.4536 71.8892 103.952 83.7525 110.628 95.6761C117.295 107.547 122.385 118.474 123.926 131.288L123.918 131.296Z" stroke="url(#paint13_radial_3081_14785)" stroke-width="0.254119"/>
</g>
<g style="mix-blend-mode:multiply">
<path d="M123.976 131.501C125.917 144.27 124.075 157.13 121.039 171.705C118.003 186.332 114.19 201.336 113.102 215.578C112.113 229.82 114.205 241.827 120.782 249.597C127.48 257.239 138.098 259.784 149.311 256.635C160.495 253.267 169.451 245.036 173.325 234.321C177.055 223.552 175.432 211.41 170.327 198.942C165.139 186.52 157.233 174.921 150.15 163.239C143.074 151.603 137.607 140.865 135.613 128.11C133.672 115.341 135.515 102.481 138.551 87.9068C141.586 73.2873 145.4 58.2751 146.487 44.0332C147.476 29.7913 145.385 17.7845 138.807 10.0142C132.102 2.37215 121.492 -0.17267 110.271 2.97626C99.087 6.34418 90.1311 14.5752 86.2572 25.2906C82.5344 36.0589 84.1579 48.2016 89.2627 60.6689C94.4505 73.091 102.357 84.6899 109.44 96.3719C116.516 108.009 121.983 118.747 123.976 131.501Z" stroke="url(#paint14_radial_3081_14785)" stroke-width="0.254119"/>
</g>
<g style="mix-blend-mode:multiply">
<path d="M124.039 131.697C126.425 144.39 125.035 157.311 122.506 171.983C119.984 186.701 116.691 201.834 116.11 216.106C115.611 230.378 118.126 242.302 124.967 249.838C131.922 257.246 142.623 259.413 153.731 255.879C164.794 252.126 173.455 243.578 176.951 232.742C180.304 221.853 178.25 209.77 172.715 197.492C167.097 185.259 158.79 173.947 151.299 162.514C143.823 151.134 137.979 140.592 135.547 127.913C133.161 115.219 134.55 102.299 137.08 87.6266C139.602 72.9089 142.894 57.776 143.476 43.5038C143.974 29.2317 141.46 17.3156 134.618 9.77174C127.656 2.37138 116.963 0.196574 105.855 3.73063C94.7921 7.48367 86.1307 16.0318 82.6344 26.8681C79.2891 37.7648 81.3355 49.8394 86.8707 62.118C92.4889 74.3513 100.795 85.6633 108.286 97.0961C115.762 108.476 121.607 119.018 124.039 131.697Z" stroke="url(#paint15_radial_3081_14785)" stroke-width="0.254119"/>
</g>
<g style="mix-blend-mode:multiply">
<path d="M124.106 131.9C126.93 144.504 125.993 157.462 123.977 172.21C121.968 187.01 119.205 202.242 119.122 216.529C119.122 230.808 122.052 242.634 129.157 249.929C136.369 257.087 147.137 258.885 158.109 254.965C169.036 250.827 177.388 241.985 180.507 231.035C183.475 220.033 181.005 208.033 175.047 195.951C169.006 183.922 160.307 172.904 152.423 161.743C144.555 150.628 138.347 140.298 135.478 127.717C132.654 115.114 133.59 102.155 135.606 87.4C137.615 72.5993 140.371 57.3681 140.462 43.0809C140.462 28.8012 137.532 16.9757 130.426 9.68105C123.207 2.52233 112.446 0.725101 101.474 4.64427C90.5471 8.78244 82.1878 17.6251 79.0766 28.5822C76.1089 39.5846 78.5782 51.5837 84.5362 63.666C90.5774 75.6953 99.2766 86.7128 107.16 97.8738C115.029 108.989 121.236 119.32 124.113 131.9H124.106Z" stroke="url(#paint16_radial_3081_14785)" stroke-width="0.254119"/>
</g>
<g style="mix-blend-mode:multiply">
<path d="M124.18 132.098C127.442 144.588 126.959 157.576 125.456 172.392C123.961 187.253 121.741 202.575 122.149 216.855C122.647 231.127 125.985 242.847 133.34 249.885C140.801 256.787 151.622 258.206 162.45 253.902C173.226 249.386 181.268 240.257 183.995 229.201C186.577 218.101 183.692 206.2 177.312 194.329C170.855 182.519 161.778 171.811 153.51 160.929C145.256 150.1 138.694 139.989 135.386 127.514C132.124 115.017 132.607 102.036 134.11 87.22C135.605 72.3589 137.825 57.0371 137.418 42.7574C136.919 28.4853 133.581 16.7731 126.226 9.7276C118.773 2.83318 107.944 1.40597 97.1158 5.71026C86.3399 10.226 78.2977 19.3556 75.5641 30.4109C72.9891 41.5114 75.8661 53.4124 82.2471 65.2832C88.7035 77.0936 97.7803 87.8015 106.049 98.683C114.303 109.512 120.865 119.623 124.18 132.098Z" stroke="url(#paint17_radial_3081_14785)" stroke-width="0.254119"/>
</g>
<g style="mix-blend-mode:multiply">
<path d="M124.262 132.293C127.962 144.662 127.932 157.658 126.942 172.52C125.968 187.426 124.277 202.816 125.19 217.073C126.187 231.315 129.933 242.914 137.529 249.695C145.224 256.332 156.091 257.375 166.761 252.7C177.371 247.814 185.088 238.405 187.437 227.26C189.626 216.076 186.334 204.281 179.538 192.644C172.674 181.068 163.227 170.685 154.588 160.097C145.964 149.563 139.055 139.686 135.309 127.332C131.609 114.955 131.639 101.967 132.629 87.1057C133.603 72.1993 135.287 56.8095 134.381 42.5525C133.384 28.3106 129.638 16.7116 122.042 9.93803C114.347 3.30035 103.48 2.25826 92.8101 6.93257C82.2004 11.8259 74.4829 21.2274 72.1344 32.3732C69.9445 43.5568 73.2444 55.3521 80.0331 66.9888C86.8974 78.5651 96.3441 88.9482 104.983 99.5353C113.607 110.069 120.524 119.947 124.269 132.301L124.262 132.293Z" stroke="url(#paint18_radial_3081_14785)" stroke-width="0.254119"/>
</g>
<g style="mix-blend-mode:multiply">
<path d="M124.354 132.482C128.477 144.715 128.908 157.704 128.44 172.588C127.987 187.517 126.839 202.959 128.243 217.171C129.739 231.368 133.884 242.831 141.715 249.34C149.636 255.706 160.533 256.37 171.037 251.318C181.466 246.063 188.858 236.397 190.807 225.175C192.604 213.924 188.896 202.249 181.707 190.854C174.443 179.52 164.641 169.476 155.632 159.199C146.646 148.967 139.389 139.339 135.221 127.128C131.09 114.895 130.667 101.907 131.136 87.0227C131.589 72.0936 132.736 56.651 131.332 42.4393C129.837 28.2427 125.691 16.7797 117.86 10.2704C109.939 3.90454 99.0422 3.24002 88.5382 8.2919C78.1097 13.5477 70.7244 23.2135 68.7686 34.4348C66.9714 45.6864 70.6791 57.3609 77.8681 68.7559C85.1325 80.0905 94.9342 90.1339 103.943 100.411C112.929 110.643 120.186 120.264 124.354 132.482Z" stroke="url(#paint19_radial_3081_14785)" stroke-width="0.254119"/>
</g>
<g style="mix-blend-mode:multiply">
<path d="M124.455 132.671C129.008 144.754 129.884 157.719 129.937 172.611C130.005 187.547 129.393 203.02 131.296 217.171C133.29 231.308 137.828 242.62 145.878 248.85C154.018 254.936 164.93 255.215 175.253 249.809C185.493 244.19 192.538 234.275 194.101 222.994C195.506 211.689 191.398 200.151 183.809 189.012C176.152 177.942 166.002 168.238 156.646 158.286C147.305 148.378 139.724 139.007 135.125 126.947C130.571 114.865 129.695 101.899 129.643 87.0081C129.575 72.0715 130.186 56.5987 128.283 42.4474C126.29 28.3112 121.751 17.0067 113.702 10.7693C105.561 4.68285 94.6494 4.40344 84.3266 9.81024C74.0869 15.4209 67.0415 25.3435 65.4783 36.6252C64.0738 47.9372 68.1817 59.4682 75.7709 70.6065C83.428 81.6769 93.5695 91.3804 102.933 101.333C112.274 111.241 119.856 120.612 124.455 132.671Z" stroke="url(#paint20_radial_3081_14785)" stroke-width="0.254119"/>
</g>
<g style="mix-blend-mode:multiply">
<path d="M128.568 135.743C140.749 140.025 151.245 147.689 162.685 157.212C174.171 166.757 185.626 177.17 197.701 184.812C209.814 192.378 221.39 196.162 231.343 194.002C241.235 191.676 248.469 183.498 250.954 172.118C253.234 160.663 250.168 148.89 242.526 140.44C234.771 132.096 223.285 127.829 209.882 126.477C196.478 125.224 182.523 126.764 168.885 127.535C155.293 128.32 143.241 128.108 131.045 123.872C118.865 119.591 108.368 111.926 96.9278 102.396C85.4421 92.851 73.9867 82.4377 61.912 74.7957C49.7996 67.2292 38.2233 63.4459 28.2705 65.6056C18.3782 67.9314 11.144 76.1096 8.65958 87.4896C6.37906 98.945 9.44493 110.718 17.0869 119.168C24.8498 127.512 36.3279 131.778 49.7316 133.123C63.1353 134.376 77.0828 132.836 90.7281 132.065C104.321 131.28 116.373 131.492 128.568 135.72L128.568 135.743Z" stroke="url(#paint21_radial_3081_14785)" stroke-width="0.254119"/>
</g>
<g style="mix-blend-mode:multiply">
<path d="M128.773 135.789C141.097 139.641 151.858 146.935 163.623 156.057C175.433 165.202 187.251 175.208 199.575 182.419C211.944 189.555 223.649 192.938 233.519 190.431C243.321 187.766 250.268 179.338 252.352 167.875C254.232 156.344 250.751 144.685 242.822 136.514C234.78 128.442 223.151 124.583 209.709 123.7C196.268 122.914 182.381 124.938 168.773 126.184C155.218 127.445 143.166 127.649 130.827 123.851C118.504 119.999 107.75 112.705 95.9777 103.583C84.1674 94.4454 72.3494 84.4398 60.0255 77.2207C47.6564 70.0846 35.9517 66.7016 26.082 69.2087C16.2728 71.8743 9.33304 80.3017 7.24131 91.7647C5.36101 103.296 8.8422 114.955 16.7712 123.133C24.821 131.206 36.4425 135.064 49.884 135.94C63.3255 136.726 77.2125 134.702 90.8201 133.456C104.375 132.195 116.427 131.991 128.766 135.789L128.773 135.789Z" stroke="url(#paint22_radial_3081_14785)" stroke-width="0.254119"/>
</g>
<g style="mix-blend-mode:multiply">
<path d="M128.981 135.819C141.433 139.24 152.436 146.15 164.518 154.857C176.645 163.578 188.796 173.169 201.369 179.95C213.98 186.648 225.798 189.623 235.569 186.769C245.273 183.763 251.918 175.094 253.609 163.571C255.082 151.987 251.2 140.456 242.992 132.557C234.67 124.772 222.92 121.321 209.449 120.905C195.992 120.596 182.181 123.095 168.626 124.817C155.116 126.546 143.08 127.173 130.62 123.805C118.167 120.384 107.165 113.475 95.0829 104.768C82.9629 96.0462 70.8051 86.456 58.2321 79.6748C45.6212 72.9767 33.8109 70.0015 24.0318 72.8559C14.3283 75.8614 7.68304 84.5304 5.99153 96.0538C4.519 107.645 8.40042 119.176 16.6088 127.067C24.9304 134.853 36.6804 138.304 50.1521 138.712C63.6087 139.029 77.4202 136.522 90.9749 134.8C104.484 133.071 116.514 132.436 128.981 135.812L128.981 135.819Z" stroke="url(#paint23_radial_3081_14785)" stroke-width="0.254119"/>
</g>
<g style="mix-blend-mode:multiply">
<path d="M129.196 135.845C141.762 138.828 152.998 145.353 165.375 153.629C177.797 161.92 190.279 171.08 203.079 177.423C215.916 183.676 227.825 186.236 237.498 183.049C247.096 179.704 253.432 170.816 254.715 159.232C255.788 147.603 251.506 136.208 243.018 128.611C234.432 121.12 222.562 118.077 209.09 118.137C195.626 118.296 181.912 121.279 168.426 123.476C154.992 125.681 142.977 126.723 130.412 123.793C117.846 120.811 106.61 114.286 94.2332 106.002C81.8112 97.7108 69.3287 88.551 56.5291 82.2078C43.6918 75.9553 31.7832 73.3954 22.1099 76.582C12.5121 79.9273 6.17644 88.8153 4.89271 100.399C3.82041 112.028 8.10205 123.423 16.5898 131.02C25.1833 138.511 37.039 141.554 50.5182 141.486C63.9748 141.335 77.6957 138.345 91.1825 136.147C104.616 133.942 116.623 132.893 129.196 135.83L129.196 135.845Z" stroke="url(#paint24_radial_3081_14785)" stroke-width="0.254119"/>
</g>
<g style="mix-blend-mode:multiply">
<path d="M129.41 135.867C142.066 138.412 153.529 144.536 166.185 152.382C178.887 160.235 191.686 168.957 204.697 174.84C217.746 180.647 229.738 182.784 239.29 179.257C248.76 175.58 254.786 166.473 255.669 154.851C256.334 143.192 251.652 131.955 242.915 124.653C234.072 117.464 222.103 114.844 208.647 115.373C195.197 115.999 181.597 119.465 168.194 122.124C154.843 124.789 142.881 126.262 130.21 123.77C117.547 121.225 106.091 115.101 93.4349 107.255C80.7335 99.4014 67.9339 90.6871 54.9228 84.797C41.874 78.99 29.8824 76.8529 20.3299 80.3794C10.8605 84.0569 4.83444 93.1639 3.95093 104.778C3.28641 116.437 7.96827 127.674 16.7052 134.976C25.5555 142.157 37.5093 144.785 50.9735 144.257C64.4225 143.63 78.0225 140.164 91.4263 137.506C104.777 134.833 116.739 133.368 129.41 135.86L129.41 135.867Z" stroke="url(#paint25_radial_3081_14785)" stroke-width="0.254119"/>
</g>
<g style="mix-blend-mode:multiply">
<path d="M129.615 135.872C142.354 137.971 154.021 143.695 166.942 151.096C179.915 158.503 193.002 166.772 206.217 172.202C219.454 177.548 231.521 179.27 240.945 175.411C250.287 171.409 255.988 162.098 256.456 150.454C256.713 138.779 251.646 127.716 242.652 120.724C233.56 113.852 221.516 111.647 208.074 112.644C194.655 113.739 181.184 117.673 167.886 120.807C154.633 123.941 142.732 125.821 129.985 123.775C117.246 121.675 105.579 115.951 92.6512 108.551C79.6855 101.143 66.5913 92.8819 53.3764 87.4449C40.1388 82.0985 28.0717 80.3843 18.6475 84.2355C9.30646 88.2453 3.60516 97.5487 3.12942 109.193C2.87267 120.875 7.93966 131.93 16.9334 138.93C26.0252 145.802 38.0697 148.007 51.5112 147.01C64.93 145.915 78.4017 141.981 91.6997 138.847C104.952 135.713 116.853 133.826 129.6 135.88L129.615 135.872Z" stroke="url(#paint26_radial_3081_14785)" stroke-width="0.254119"/>
</g>
<g style="mix-blend-mode:multiply">
<path d="M129.829 135.871C142.636 137.524 154.492 142.841 167.669 149.78C180.891 156.728 194.265 164.536 207.653 169.497C221.072 174.375 233.185 175.674 242.473 171.491C251.663 167.164 257.039 157.656 257.107 146.005C256.956 134.323 251.504 123.449 242.277 116.773C232.951 110.219 220.831 108.436 207.442 109.909C194.068 111.472 180.74 115.875 167.563 119.469C154.431 123.063 142.598 125.359 129.791 123.758C116.984 122.104 105.128 116.788 91.9509 109.849C78.7284 102.901 65.3549 95.0931 51.9663 90.1319C38.5475 85.2537 26.435 83.9548 17.1468 88.1383C7.95676 92.4653 2.58017 101.972 2.5122 113.624C2.66323 125.306 8.11534 136.18 17.3431 142.856C26.6691 149.403 38.7815 151.192 52.1777 149.72C65.5512 148.157 78.8719 143.754 92.0566 140.16C105.189 136.565 117.022 134.27 129.829 135.871Z" stroke="url(#paint27_radial_3081_14785)" stroke-width="0.254119"/>
</g>
<g style="mix-blend-mode:multiply">
<path d="M130.041 135.874C142.893 137.082 154.938 141.976 168.342 148.455C181.798 154.942 195.436 162.274 208.991 166.767C222.568 171.177 234.726 172.053 243.856 167.545C252.895 162.901 257.931 153.212 257.592 141.56C257.033 129.894 251.203 119.208 241.749 112.865C232.204 106.643 220.031 105.284 206.695 107.217C193.39 109.248 180.22 114.111 167.171 118.159C154.168 122.206 142.425 124.917 129.573 123.762C116.713 122.554 104.676 117.66 91.2721 111.181C77.8155 104.695 64.1777 97.3697 50.623 92.8691C37.0456 88.4591 24.8878 87.5907 15.7582 92.0913C6.71918 96.7429 1.67485 106.431 2.01466 118.076C2.57347 129.743 8.40314 140.428 17.8575 146.771C27.41 152.993 39.5753 154.353 52.9111 152.419C66.2166 150.396 79.3862 145.525 92.435 141.477C105.439 137.43 117.181 134.719 130.033 135.874L130.041 135.874Z" stroke="url(#paint28_radial_3081_14785)" stroke-width="0.254119"/>
</g>
<g style="mix-blend-mode:multiply">
<path d="M130.252 135.858C143.143 136.613 155.346 141.083 168.968 147.094C182.644 153.105 196.523 159.954 210.237 163.979C223.965 167.913 236.138 168.359 245.109 163.541C253.974 158.58 258.671 148.725 257.931 137.096C256.965 125.459 250.773 114.986 241.099 108.967C231.343 103.085 219.125 102.148 205.872 104.549C192.642 107.041 179.654 112.365 166.756 116.866C153.903 121.366 142.259 124.485 129.376 123.775C116.486 123.02 104.283 118.542 90.6604 112.539C76.9849 106.528 63.1054 99.6788 49.3921 95.6539C35.6637 91.7197 23.4908 91.2741 14.5198 96.0919C5.63932 101.061 0.942352 110.915 1.68239 122.544C2.64897 134.189 8.84111 144.655 18.5144 150.673C28.2784 156.556 40.4814 157.492 53.7417 155.091C66.9717 152.599 79.9601 147.275 92.8579 142.775C105.71 138.274 117.347 135.155 130.237 135.858L130.252 135.858Z" stroke="url(#paint29_radial_3081_14785)" stroke-width="0.254119"/>
</g>
<g style="mix-blend-mode:multiply">
<path d="M130.452 135.841C143.358 136.151 155.712 140.191 169.538 145.718C183.41 151.246 197.531 157.612 211.366 161.153C225.222 164.604 237.403 164.627 246.2 159.5C254.892 154.236 259.241 144.223 258.086 132.624C256.712 121.025 250.157 110.778 240.28 105.099C230.32 99.5567 218.086 99.0508 204.917 101.913C191.785 104.865 178.985 110.635 166.254 115.588C153.567 120.535 142.044 124.053 129.138 123.804C116.226 123.495 103.879 119.455 90.0525 113.927C76.1805 108.399 62.0594 102.034 48.2253 98.492C34.3685 95.041 22.1881 95.0184 13.3907 100.146C4.7066 105.409 0.357002 115.422 1.50481 127.014C2.87917 138.613 9.43378 148.86 19.311 154.538C29.2713 160.074 41.5045 160.587 54.6742 157.725C67.806 154.773 80.5981 149.003 93.3373 144.05C106.024 139.103 117.547 135.577 130.452 135.834L130.452 135.841Z" stroke="url(#paint30_radial_3081_14785)" stroke-width="0.254119"/>
</g>
<g style="mix-blend-mode:multiply">
<path d="M130.667 135.812C143.58 135.669 156.062 139.279 170.07 144.323C184.131 149.367 198.456 155.235 212.411 158.285C226.381 161.253 238.553 160.845 247.17 155.416C255.672 149.851 259.667 139.686 258.112 128.14C256.337 116.594 249.427 106.581 239.354 101.257C229.212 96.0695 216.956 95.9864 203.9 99.309C190.874 102.715 178.293 108.937 165.735 114.321C153.23 119.705 141.835 123.632 128.93 123.828C116.017 123.972 103.535 120.362 89.5267 115.318C75.466 110.274 61.141 104.414 47.186 101.355C33.2159 98.3878 21.0431 98.7955 12.427 104.225C3.93163 109.79 -0.0630529 119.947 1.49253 131.493C3.26711 143.039 10.1766 153.052 20.2502 158.376C30.3993 163.564 42.6401 163.647 55.704 160.324C68.7301 156.919 81.3108 150.696 93.8687 145.312C106.374 139.928 117.769 136.001 130.674 135.805L130.667 135.812Z" stroke="url(#paint31_radial_3081_14785)" stroke-width="0.254119"/>
</g>
<g style="mix-blend-mode:multiply">
<path d="M130.879 135.781C143.777 135.185 156.38 138.356 170.554 142.91C184.781 147.456 199.302 152.825 213.355 155.385C227.416 157.861 239.574 157.031 247.994 151.307C256.293 145.447 259.94 135.154 257.977 123.669C255.802 112.191 248.545 102.427 238.298 97.4578C227.975 92.6249 215.734 92.9723 202.799 96.748C189.901 100.607 177.539 107.26 165.185 113.089C152.876 118.911 141.625 123.223 128.727 123.873C115.829 124.469 103.226 121.298 89.0444 116.744C74.8175 112.198 60.2962 106.837 46.2431 104.269C32.1824 101.792 20.0246 102.623 11.6124 108.347C3.31338 114.192 -0.333938 124.484 1.62942 135.97C3.80423 147.448 11.0611 157.212 21.3084 162.188C31.6311 167.021 43.8719 166.674 56.8075 162.898C69.7052 159.039 82.0593 152.387 94.4209 146.565C106.73 140.742 117.981 136.423 130.879 135.781Z" stroke="url(#paint32_radial_3081_14785)" stroke-width="0.254119"/>
</g>
<g style="mix-blend-mode:multiply">
<path d="M131.08 135.736C143.948 134.694 156.657 137.42 170.982 141.475C185.36 145.522 200.062 150.378 214.199 152.447C228.335 154.433 240.462 153.179 248.671 147.161C256.766 141.014 260.043 130.601 257.687 119.191C255.112 107.796 247.515 98.2884 237.102 93.682C226.621 89.2116 214.395 89.9894 201.603 94.2106C188.849 98.5225 176.729 105.598 164.578 111.851C152.481 118.096 141.381 122.808 128.52 123.895C115.645 124.937 102.944 122.211 88.6189 118.156C74.2411 114.109 59.5385 109.253 45.4023 107.184C31.2661 105.198 19.1461 106.451 10.9302 112.47C2.84264 118.617 -0.442215 129.03 1.91382 140.44C4.48885 151.835 12.0855 161.343 22.4989 165.949C32.9803 170.412 45.206 169.641 57.998 165.42C70.7523 161.116 82.8723 154.033 95.0225 147.78C107.12 141.535 118.213 136.823 131.08 135.728L131.08 135.736Z" stroke="url(#paint33_radial_3081_14785)" stroke-width="0.254119"/>
</g>
<g style="mix-blend-mode:multiply">
<path d="M131.297 135.69C144.119 134.194 156.918 136.483 171.372 140.032C185.878 143.581 200.747 147.915 214.943 149.494C229.147 150.981 241.215 149.312 249.212 143.007C257.08 136.581 259.995 126.062 257.246 114.735C254.271 103.438 246.357 94.2023 235.785 89.9584C225.153 85.858 212.965 87.0587 200.324 91.7255C187.728 96.4753 175.865 103.974 163.941 110.649C152.07 117.317 141.144 122.407 128.329 123.947C115.499 125.442 102.714 123.154 88.246 119.605C73.7398 116.064 58.8711 111.722 44.6745 110.143C30.4703 108.656 18.4032 110.325 10.4062 116.63C2.53014 123.056 -0.384694 133.575 2.37157 144.895C5.34681 156.192 13.2607 165.427 23.8326 169.671C34.465 173.771 46.6529 172.571 59.294 167.904C71.8897 163.154 83.7529 155.656 95.6766 148.98C107.547 142.312 118.474 137.223 131.289 135.682L131.297 135.69Z" stroke="url(#paint34_radial_3081_14785)" stroke-width="0.254119"/>
</g>
<g style="mix-blend-mode:multiply">
<path d="M131.496 135.633C144.265 133.692 157.125 135.535 171.699 138.57C186.326 141.606 201.331 145.42 215.573 146.507C229.815 147.496 241.821 145.404 249.592 138.827C257.234 132.129 259.779 121.512 256.63 110.298C253.262 99.1144 245.031 90.1584 234.315 86.2846C223.547 82.5542 211.404 84.1777 198.937 89.2825C186.515 94.4703 174.916 102.377 163.234 109.46C151.597 116.535 140.859 122.003 128.105 123.996C115.336 125.937 102.476 124.094 87.9014 121.059C73.2819 118.023 58.2697 114.21 44.0278 113.122C29.7859 112.133 17.7792 114.225 10.0088 120.802C2.36678 127.508 -0.178043 138.117 2.97089 149.339C6.33881 160.522 14.5698 169.478 25.2853 173.352C36.0535 177.075 48.1962 175.451 60.6635 170.347C73.0856 165.159 84.6845 157.253 96.3665 150.169C108.003 143.094 118.741 137.627 131.496 135.633Z" stroke="url(#paint35_radial_3081_14785)" stroke-width="0.254119"/>
</g>
<g style="mix-blend-mode:multiply">
<path d="M131.693 135.57C144.387 133.184 157.307 134.573 171.979 137.103C186.697 139.625 201.83 142.918 216.102 143.499C230.374 143.998 242.298 141.483 249.834 134.641C257.242 127.687 259.409 116.986 255.875 105.878C252.122 94.8153 243.574 86.1539 232.738 82.6576C221.849 79.3048 209.767 81.3588 197.488 86.8939C185.255 92.5122 173.943 100.819 162.51 108.31C151.13 115.786 140.588 121.63 127.909 124.062C115.215 126.448 102.295 125.059 87.6227 122.529C72.905 120.007 57.772 116.714 43.4999 116.133C29.2278 115.635 17.3117 118.149 9.76783 124.991C2.36747 131.953 0.192666 142.646 3.72672 153.754C7.47976 164.817 16.0279 173.478 26.8642 176.975C37.7609 180.32 49.8355 178.273 62.1141 172.738C74.3474 167.12 85.6593 158.813 97.0922 151.322C108.472 143.847 119.014 138.002 131.693 135.57Z" stroke="url(#paint36_radial_3081_14785)" stroke-width="0.254119"/>
</g>
<g style="mix-blend-mode:multiply">
<path d="M131.898 135.504C144.501 132.68 157.459 133.616 172.207 135.632C187.008 137.641 202.239 140.405 216.526 140.488C230.806 140.488 242.631 137.558 249.926 130.452C257.085 123.241 258.882 112.472 254.963 101.5C250.825 90.5733 241.982 82.2214 231.032 79.1027C220.03 76.135 208.031 78.6043 195.949 84.5624C183.919 90.6035 172.902 99.3027 161.741 107.186C150.625 115.055 140.295 121.262 127.714 124.132C115.111 126.956 102.153 126.02 87.3973 124.003C72.5966 121.995 57.3654 119.238 43.0782 119.148C28.7985 119.148 16.973 122.078 9.67837 129.184C2.51965 136.403 0.722414 147.163 4.64159 158.136C8.77975 169.062 17.6224 177.422 28.5795 180.533C39.5819 183.501 51.581 181.031 63.6633 175.073C75.6926 169.032 86.7101 160.333 97.8711 152.449C108.987 144.581 119.317 138.374 131.898 135.497L131.898 135.504Z" stroke="url(#paint37_radial_3081_14785)" stroke-width="0.254119"/>
</g>
<g style="mix-blend-mode:multiply">
<path d="M132.094 135.426C144.584 132.164 157.573 132.647 172.389 134.15C187.25 135.645 202.571 137.865 216.851 137.458C231.123 136.959 242.843 133.621 249.881 126.266C256.783 118.806 258.203 107.984 253.898 97.1558C249.383 86.3799 240.253 78.3377 229.198 75.6117C218.097 73.0291 206.196 75.9137 194.325 82.2946C182.515 88.7511 171.807 97.8279 160.925 106.097C150.097 114.35 139.985 120.912 127.511 124.22C115.013 127.482 102.032 126.999 87.2163 125.496C72.3552 124.001 57.0334 121.781 42.7537 122.189C28.4816 122.687 16.7694 126.025 9.72394 133.38C2.82952 140.833 1.4023 151.662 5.7066 162.49C10.2223 173.266 19.352 181.309 30.4072 184.042C41.5078 186.617 53.4088 183.74 65.2795 177.359C77.0899 170.903 87.7978 161.826 98.6794 153.557C109.508 145.303 119.619 138.741 132.094 135.426Z" stroke="url(#paint38_radial_3081_14785)" stroke-width="0.254119"/>
</g>
<g style="mix-blend-mode:multiply">
<path d="M132.289 135.345C144.658 131.645 157.654 131.675 172.515 132.665C187.422 133.639 202.811 135.33 217.068 134.416C231.31 133.42 242.909 129.674 249.69 122.077C256.328 114.383 257.37 103.516 252.696 92.846C247.81 82.2363 238.401 74.5188 227.255 72.1703C216.072 69.9804 204.276 73.2728 192.64 80.0691C181.063 86.9333 170.68 96.3801 160.093 105.019C149.559 113.643 139.682 120.552 127.328 124.298C114.951 127.998 101.962 127.968 87.1013 126.978C72.1949 126.004 56.8051 124.32 42.5481 125.226C28.3062 126.223 16.7072 129.969 9.93363 137.565C3.29596 145.26 2.25386 156.127 6.92818 166.797C11.8215 177.407 21.223 185.124 32.3688 187.473C43.5524 189.662 55.3477 186.362 66.9844 179.574C78.5607 172.71 88.9439 163.263 99.5309 154.624C110.065 146 119.942 139.083 132.296 135.338L132.289 135.345Z" stroke="url(#paint39_radial_3081_14785)" stroke-width="0.254119"/>
</g>
<g style="mix-blend-mode:multiply">
<path d="M132.475 135.254C144.708 131.131 157.697 130.7 172.58 131.169C187.51 131.622 202.952 132.77 217.164 131.365C231.361 129.87 242.824 125.724 249.333 117.893C255.699 109.972 256.363 99.0752 251.311 88.5712C246.056 78.1428 236.39 70.75 225.168 68.8017C213.917 67.0045 202.242 70.7122 190.847 77.9011C179.513 85.1656 169.469 94.9673 159.192 103.976C148.96 112.962 139.332 120.219 127.121 124.388C114.888 128.518 101.899 128.941 87.0156 128.473C72.0865 128.02 56.6439 126.872 42.4322 128.276C28.2356 129.772 16.7726 133.917 10.2633 141.748C3.89746 149.67 3.23294 160.566 8.28482 171.07C13.5406 181.499 23.2064 188.884 34.4277 190.84C45.6793 192.637 57.3538 188.929 68.7488 181.74C80.0835 174.476 90.1268 164.674 100.404 155.665C110.636 146.679 120.257 139.422 132.475 135.254Z" stroke="url(#paint40_radial_3081_14785)" stroke-width="0.254119"/>
</g>
<g style="mix-blend-mode:multiply">
<path d="M132.666 135.155C144.748 130.601 157.714 129.725 172.605 129.673C187.542 129.605 203.015 130.216 217.166 128.313C231.302 126.32 242.614 121.781 248.844 113.732C254.931 105.591 255.21 94.6794 249.803 84.3567C244.185 74.117 234.27 67.0715 222.988 65.5084C211.684 64.1038 200.145 68.2118 189.007 75.8009C177.937 83.4581 168.233 93.6071 158.28 102.963C148.373 112.304 139.002 119.886 126.942 124.485C114.86 129.038 101.894 129.914 87.0028 129.967C72.0661 130.035 56.5933 129.423 42.442 131.326C28.3058 133.32 17.0013 137.858 10.7639 145.908C4.67747 154.048 4.39807 164.96 9.80487 175.283C15.4156 185.523 25.3381 192.568 36.6199 194.131C47.9319 195.536 59.4628 191.428 70.6011 183.839C81.6715 176.182 91.375 166.04 101.328 156.676C111.235 147.335 120.606 139.754 132.666 135.155Z" stroke="url(#paint41_radial_3081_14785)" stroke-width="0.254119"/>
</g>
<g style="mix-blend-mode:plus-lighter" opacity="0.6">
<path d="M47.4633 115.393L47.4633 115.392C47.7873 113.942 47.8777 112.374 47.9127 110.798C47.9238 110.299 47.9293 109.8 47.9348 109.303C47.9467 108.226 47.9585 107.16 48.0265 106.131C48.2251 103.126 48.9008 100.512 51.4055 99.0315C52.6581 98.291 54.4117 98.0089 56.415 97.9346C57.9698 97.8769 59.66 97.9444 61.3649 98.0125C61.8546 98.0321 62.3455 98.0517 62.8348 98.0684C65.0222 98.143 67.1751 98.1595 69.0113 97.8471C70.8466 97.5348 72.3884 96.8902 73.3279 95.623C73.7285 95.0828 73.9294 94.3821 73.9911 93.5731C74.0528 92.7639 73.9758 91.837 73.8123 90.8354C73.5302 89.1086 72.9873 87.1407 72.4364 85.1441C72.3486 84.8261 72.2607 84.5074 72.1736 84.1887C71.538 81.8643 70.9457 79.5458 70.7803 77.5412C70.6145 75.5319 70.881 73.8755 71.92 72.8393C72.9591 71.803 74.6203 71.5372 76.6354 71.7026C78.6455 71.8676 80.9705 72.4582 83.3013 73.0921C83.6209 73.179 83.9405 73.2667 84.2595 73.3542C86.2615 73.9036 88.2347 74.445 89.9662 74.7263C90.9705 74.8894 91.8998 74.9661 92.7112 74.9046C93.5222 74.8431 94.2247 74.6428 94.7663 74.2434C96.037 73.3065 96.6834 71.7687 96.9966 69.9383C97.3099 68.107 97.2934 65.9599 97.2185 63.7785C97.2017 63.2906 97.1821 62.801 97.1625 62.3126C97.0942 60.6124 97.0265 58.9268 97.0844 57.3764C97.1589 55.3786 97.4417 53.63 98.1841 52.381C99.6689 49.8831 102.29 49.2093 105.304 49.0112C106.335 48.9433 107.404 48.9316 108.485 48.9197C108.983 48.9142 109.483 48.9087 109.983 48.8977C111.564 48.8628 113.136 48.7726 114.59 48.4495C116.065 48.122 117.197 47.3019 118.197 46.2685C118.902 45.5404 119.548 44.6983 120.203 43.8446C120.474 43.4921 120.746 43.1376 121.024 42.7883C122.935 40.3909 125.181 38.1805 129.445 38.1805C133.709 38.1805 135.958 40.391 137.871 42.7884C138.15 43.1392 138.424 43.4953 138.696 43.8494C139.35 44.7015 139.995 45.5417 140.698 46.2685C141.698 47.3018 142.828 48.122 144.3 48.4495L144.3 48.4495C145.754 48.7726 147.326 48.8628 148.907 48.8977C149.407 48.9087 149.907 48.9142 150.405 48.9197C151.486 48.9316 152.555 48.9433 153.586 49.0112C156.6 49.2093 159.221 49.8831 160.706 52.381C161.448 53.63 161.731 55.3786 161.806 57.3764C161.864 58.9268 161.796 60.6124 161.728 62.3125C161.708 62.8009 161.688 63.2905 161.672 63.7785C161.597 65.9599 161.58 68.107 161.893 69.9383C162.207 71.7687 162.853 73.3065 164.124 74.2434C164.665 74.6428 165.368 74.8431 166.179 74.9046C166.99 74.9661 167.92 74.8894 168.924 74.7263C170.655 74.445 172.629 73.9036 174.631 73.3542C174.949 73.2667 175.269 73.179 175.589 73.0921C177.92 72.4582 180.244 71.8676 182.255 71.7026C184.27 71.5372 185.931 71.803 186.97 72.8393C188.009 73.8755 188.276 75.5319 188.11 77.5412C187.944 79.5458 187.352 81.8643 186.716 84.1887C186.629 84.5074 186.541 84.8262 186.454 85.1443C185.903 87.1408 185.36 89.1087 185.078 90.8354C184.914 91.837 184.837 92.7639 184.899 93.5731C184.961 94.3821 185.162 95.0828 185.562 95.623C186.502 96.8902 188.043 97.5348 189.879 97.8471C191.715 98.1595 193.868 98.143 196.055 98.0684C196.545 98.0517 197.035 98.0321 197.525 98.0125C199.23 97.9444 200.92 97.8769 202.475 97.9346C204.478 98.0089 206.232 98.291 207.485 99.0315C209.989 100.512 210.665 103.126 210.864 106.131C210.932 107.16 210.943 108.226 210.955 109.303C210.961 109.8 210.966 110.299 210.977 110.798C211.012 112.374 211.103 113.942 211.427 115.392C211.755 116.863 212.578 117.992 213.614 118.989C214.344 119.692 215.188 120.337 216.044 120.99C216.398 121.26 216.753 121.531 217.104 121.809C219.508 123.714 221.724 125.954 221.724 130.206C221.724 134.458 219.508 136.701 217.104 138.608C216.752 138.887 216.395 139.16 216.039 139.431C215.185 140.084 214.343 140.727 213.614 141.428C212.578 142.425 211.755 143.552 211.427 145.02L211.551 145.048L211.427 145.02C211.103 146.471 211.012 148.038 210.977 149.615C210.966 150.113 210.961 150.613 210.955 151.109C210.943 152.187 210.932 153.253 210.864 154.281C210.665 157.287 209.989 159.9 207.485 161.381C206.232 162.122 204.478 162.404 202.475 162.478C200.92 162.536 199.23 162.468 197.525 162.4C197.035 162.38 196.545 162.361 196.055 162.344C193.868 162.269 191.715 162.253 189.879 162.565C188.043 162.878 186.502 163.522 185.562 164.789C185.162 165.33 184.961 166.03 184.899 166.839C184.837 167.649 184.914 168.576 185.078 169.577C185.36 171.304 185.903 173.272 186.454 175.268C186.541 175.586 186.629 175.905 186.716 176.224C187.352 178.548 187.944 180.867 188.11 182.871C188.276 184.881 188.009 186.537 186.97 187.573C185.931 188.61 184.27 188.875 182.255 188.71C180.244 188.545 177.92 187.954 175.589 187.32C175.269 187.234 174.95 187.146 174.631 187.058C172.629 186.509 170.655 185.967 168.924 185.686C167.92 185.523 166.99 185.446 166.179 185.508C165.368 185.569 164.665 185.77 164.124 186.169C162.853 187.106 162.207 188.644 161.893 190.474C161.58 192.305 161.597 194.453 161.672 196.634C161.688 197.122 161.708 197.612 161.728 198.1C161.796 199.8 161.864 201.486 161.806 203.036C161.731 205.034 161.448 206.783 160.706 208.032C159.221 210.529 156.6 211.203 153.586 211.401C152.555 211.469 151.486 211.481 150.405 211.493C149.907 211.498 149.407 211.504 148.907 211.515C147.326 211.55 145.754 211.64 144.3 211.963C142.825 212.29 141.693 213.111 140.693 214.144C139.988 214.872 139.342 215.714 138.687 216.568C138.416 216.92 138.144 217.275 137.866 217.624C135.955 220.022 133.709 222.232 129.445 222.232C125.181 222.232 122.932 220.022 121.019 217.624C120.74 217.273 120.466 216.917 120.194 216.563C119.54 215.711 118.895 214.871 118.192 214.144C117.192 213.111 116.062 212.291 114.59 211.963C113.136 211.64 111.564 211.55 109.983 211.515C109.483 211.504 108.983 211.498 108.485 211.493C107.404 211.481 106.335 211.469 105.304 211.401C102.29 211.203 99.6689 210.529 98.1841 208.032C97.4417 206.783 97.1589 205.034 97.0844 203.036C97.0265 201.486 97.0942 199.8 97.1625 198.1C97.1821 197.612 97.2017 197.122 97.2185 196.634C97.2934 194.453 97.3099 192.305 96.9966 190.474C96.6834 188.644 96.037 187.106 94.7663 186.169C94.2247 185.77 93.5222 185.569 92.7112 185.508C91.8998 185.446 90.9705 185.523 89.9662 185.686C88.2347 185.967 86.2615 186.509 84.2594 187.058C83.9405 187.146 83.6208 187.234 83.3013 187.32C80.9705 187.954 78.6455 188.545 76.6354 188.71C74.6203 188.875 72.9591 188.61 71.92 187.573C70.881 186.537 70.6145 184.881 70.7803 182.871C70.9457 180.867 71.538 178.548 72.1736 176.224C72.2607 175.905 72.3487 175.586 72.4364 175.268C72.9873 173.272 73.5302 171.304 73.8123 169.577C73.9758 168.576 74.0528 167.649 73.9911 166.839C73.9294 166.03 73.7285 165.33 73.3279 164.789C72.3884 163.522 70.8466 162.878 69.0113 162.565C67.1751 162.253 65.0222 162.269 62.8348 162.344C62.3455 162.361 61.8546 162.38 61.3649 162.4C59.66 162.468 57.9698 162.536 56.415 162.478C54.4117 162.404 52.6581 162.122 51.4055 161.381C48.9008 159.9 48.2251 157.287 48.0265 154.281C47.9585 153.253 47.9467 152.186 47.9348 151.109C47.9293 150.612 47.9238 150.113 47.9127 149.615C47.8777 148.038 47.7873 146.471 47.4633 145.02C47.1349 143.549 46.3123 142.42 45.2761 141.423C44.546 140.72 43.7017 140.076 42.8457 139.422C42.4922 139.153 42.1367 138.881 41.7864 138.604C39.3823 136.698 37.1661 134.458 37.1661 130.206C37.1661 125.954 39.3824 123.711 41.7865 121.804C42.1383 121.525 42.4954 121.252 42.8505 120.981C43.7049 120.329 44.5474 119.685 45.2761 118.984C46.3123 117.988 47.1348 116.86 47.4633 115.393Z" fill="url(#paint42_radial_3081_14785)"/>
<path d="M47.4633 115.393L47.4633 115.392C47.7873 113.942 47.8777 112.374 47.9127 110.798C47.9238 110.299 47.9293 109.8 47.9348 109.303C47.9467 108.226 47.9585 107.16 48.0265 106.131C48.2251 103.126 48.9008 100.512 51.4055 99.0315C52.6581 98.291 54.4117 98.0089 56.415 97.9346C57.9698 97.8769 59.66 97.9444 61.3649 98.0125C61.8546 98.0321 62.3455 98.0517 62.8348 98.0684C65.0222 98.143 67.1751 98.1595 69.0113 97.8471C70.8466 97.5348 72.3884 96.8902 73.3279 95.623C73.7285 95.0828 73.9294 94.3821 73.9911 93.5731C74.0528 92.7639 73.9758 91.837 73.8123 90.8354C73.5302 89.1086 72.9873 87.1407 72.4364 85.1441C72.3486 84.8261 72.2607 84.5074 72.1736 84.1887C71.538 81.8643 70.9457 79.5458 70.7803 77.5412C70.6145 75.5319 70.881 73.8755 71.92 72.8393C72.9591 71.803 74.6203 71.5372 76.6354 71.7026C78.6455 71.8676 80.9705 72.4582 83.3013 73.0921C83.6209 73.179 83.9405 73.2667 84.2595 73.3542C86.2615 73.9036 88.2347 74.445 89.9662 74.7263C90.9705 74.8894 91.8998 74.9661 92.7112 74.9046C93.5222 74.8431 94.2247 74.6428 94.7663 74.2434C96.037 73.3065 96.6834 71.7687 96.9966 69.9383C97.3099 68.107 97.2934 65.9599 97.2185 63.7785C97.2017 63.2906 97.1821 62.801 97.1625 62.3126C97.0942 60.6124 97.0265 58.9268 97.0844 57.3764C97.1589 55.3786 97.4417 53.63 98.1841 52.381C99.6689 49.8831 102.29 49.2093 105.304 49.0112C106.335 48.9433 107.404 48.9316 108.485 48.9197C108.983 48.9142 109.483 48.9087 109.983 48.8977C111.564 48.8628 113.136 48.7726 114.59 48.4495C116.065 48.122 117.197 47.3019 118.197 46.2685C118.902 45.5404 119.548 44.6983 120.203 43.8446C120.474 43.4921 120.746 43.1376 121.024 42.7883C122.935 40.3909 125.181 38.1805 129.445 38.1805C133.709 38.1805 135.958 40.391 137.871 42.7884C138.15 43.1392 138.424 43.4953 138.696 43.8494C139.35 44.7015 139.995 45.5417 140.698 46.2685C141.698 47.3018 142.828 48.122 144.3 48.4495L144.3 48.4495C145.754 48.7726 147.326 48.8628 148.907 48.8977C149.407 48.9087 149.907 48.9142 150.405 48.9197C151.486 48.9316 152.555 48.9433 153.586 49.0112C156.6 49.2093 159.221 49.8831 160.706 52.381C161.448 53.63 161.731 55.3786 161.806 57.3764C161.864 58.9268 161.796 60.6124 161.728 62.3125C161.708 62.8009 161.688 63.2905 161.672 63.7785C161.597 65.9599 161.58 68.107 161.893 69.9383C162.207 71.7687 162.853 73.3065 164.124 74.2434C164.665 74.6428 165.368 74.8431 166.179 74.9046C166.99 74.9661 167.92 74.8894 168.924 74.7263C170.655 74.445 172.629 73.9036 174.631 73.3542C174.949 73.2667 175.269 73.179 175.589 73.0921C177.92 72.4582 180.244 71.8676 182.255 71.7026C184.27 71.5372 185.931 71.803 186.97 72.8393C188.009 73.8755 188.276 75.5319 188.11 77.5412C187.944 79.5458 187.352 81.8643 186.716 84.1887C186.629 84.5074 186.541 84.8262 186.454 85.1443C185.903 87.1408 185.36 89.1087 185.078 90.8354C184.914 91.837 184.837 92.7639 184.899 93.5731C184.961 94.3821 185.162 95.0828 185.562 95.623C186.502 96.8902 188.043 97.5348 189.879 97.8471C191.715 98.1595 193.868 98.143 196.055 98.0684C196.545 98.0517 197.035 98.0321 197.525 98.0125C199.23 97.9444 200.92 97.8769 202.475 97.9346C204.478 98.0089 206.232 98.291 207.485 99.0315C209.989 100.512 210.665 103.126 210.864 106.131C210.932 107.16 210.943 108.226 210.955 109.303C210.961 109.8 210.966 110.299 210.977 110.798C211.012 112.374 211.103 113.942 211.427 115.392C211.755 116.863 212.578 117.992 213.614 118.989C214.344 119.692 215.188 120.337 216.044 120.99C216.398 121.26 216.753 121.531 217.104 121.809C219.508 123.714 221.724 125.954 221.724 130.206C221.724 134.458 219.508 136.701 217.104 138.608C216.752 138.887 216.395 139.16 216.039 139.431C215.185 140.084 214.343 140.727 213.614 141.428C212.578 142.425 211.755 143.552 211.427 145.02L211.551 145.048L211.427 145.02C211.103 146.471 211.012 148.038 210.977 149.615C210.966 150.113 210.961 150.613 210.955 151.109C210.943 152.187 210.932 153.253 210.864 154.281C210.665 157.287 209.989 159.9 207.485 161.381C206.232 162.122 204.478 162.404 202.475 162.478C200.92 162.536 199.23 162.468 197.525 162.4C197.035 162.38 196.545 162.361 196.055 162.344C193.868 162.269 191.715 162.253 189.879 162.565C188.043 162.878 186.502 163.522 185.562 164.789C185.162 165.33 184.961 166.03 184.899 166.839C184.837 167.649 184.914 168.576 185.078 169.577C185.36 171.304 185.903 173.272 186.454 175.268C186.541 175.586 186.629 175.905 186.716 176.224C187.352 178.548 187.944 180.867 188.11 182.871C188.276 184.881 188.009 186.537 186.97 187.573C185.931 188.61 184.27 188.875 182.255 188.71C180.244 188.545 177.92 187.954 175.589 187.32C175.269 187.234 174.95 187.146 174.631 187.058C172.629 186.509 170.655 185.967 168.924 185.686C167.92 185.523 166.99 185.446 166.179 185.508C165.368 185.569 164.665 185.77 164.124 186.169C162.853 187.106 162.207 188.644 161.893 190.474C161.58 192.305 161.597 194.453 161.672 196.634C161.688 197.122 161.708 197.612 161.728 198.1C161.796 199.8 161.864 201.486 161.806 203.036C161.731 205.034 161.448 206.783 160.706 208.032C159.221 210.529 156.6 211.203 153.586 211.401C152.555 211.469 151.486 211.481 150.405 211.493C149.907 211.498 149.407 211.504 148.907 211.515C147.326 211.55 145.754 211.64 144.3 211.963C142.825 212.29 141.693 213.111 140.693 214.144C139.988 214.872 139.342 215.714 138.687 216.568C138.416 216.92 138.144 217.275 137.866 217.624C135.955 220.022 133.709 222.232 129.445 222.232C125.181 222.232 122.932 220.022 121.019 217.624C120.74 217.273 120.466 216.917 120.194 216.563C119.54 215.711 118.895 214.871 118.192 214.144C117.192 213.111 116.062 212.291 114.59 211.963C113.136 211.64 111.564 211.55 109.983 211.515C109.483 211.504 108.983 211.498 108.485 211.493C107.404 211.481 106.335 211.469 105.304 211.401C102.29 211.203 99.6689 210.529 98.1841 208.032C97.4417 206.783 97.1589 205.034 97.0844 203.036C97.0265 201.486 97.0942 199.8 97.1625 198.1C97.1821 197.612 97.2017 197.122 97.2185 196.634C97.2934 194.453 97.3099 192.305 96.9966 190.474C96.6834 188.644 96.037 187.106 94.7663 186.169C94.2247 185.77 93.5222 185.569 92.7112 185.508C91.8998 185.446 90.9705 185.523 89.9662 185.686C88.2347 185.967 86.2615 186.509 84.2594 187.058C83.9405 187.146 83.6208 187.234 83.3013 187.32C80.9705 187.954 78.6455 188.545 76.6354 188.71C74.6203 188.875 72.9591 188.61 71.92 187.573C70.881 186.537 70.6145 184.881 70.7803 182.871C70.9457 180.867 71.538 178.548 72.1736 176.224C72.2607 175.905 72.3487 175.586 72.4364 175.268C72.9873 173.272 73.5302 171.304 73.8123 169.577C73.9758 168.576 74.0528 167.649 73.9911 166.839C73.9294 166.03 73.7285 165.33 73.3279 164.789C72.3884 163.522 70.8466 162.878 69.0113 162.565C67.1751 162.253 65.0222 162.269 62.8348 162.344C62.3455 162.361 61.8546 162.38 61.3649 162.4C59.66 162.468 57.9698 162.536 56.415 162.478C54.4117 162.404 52.6581 162.122 51.4055 161.381C48.9008 159.9 48.2251 157.287 48.0265 154.281C47.9585 153.253 47.9467 152.186 47.9348 151.109C47.9293 150.612 47.9238 150.113 47.9127 149.615C47.8777 148.038 47.7873 146.471 47.4633 145.02C47.1349 143.549 46.3123 142.42 45.2761 141.423C44.546 140.72 43.7017 140.076 42.8457 139.422C42.4922 139.153 42.1367 138.881 41.7864 138.604C39.3823 136.698 37.1661 134.458 37.1661 130.206C37.1661 125.954 39.3824 123.711 41.7865 121.804C42.1383 121.525 42.4954 121.252 42.8505 120.981C43.7049 120.329 44.5474 119.685 45.2761 118.984C46.3123 117.988 47.1348 116.86 47.4633 115.393Z" stroke="white" stroke-width="0.254119"/>
</g>
<path d="M66.9641 118.951L66.9641 118.951C67.2128 117.818 67.2821 116.595 67.3089 115.367C67.3173 114.978 67.3216 114.588 67.3258 114.201C67.3349 113.362 67.3439 112.533 67.396 111.732C67.548 109.392 68.065 107.369 69.9702 106.224C70.9225 105.651 72.2588 105.431 73.7921 105.374C74.9815 105.329 76.2743 105.381 77.5798 105.434C77.9551 105.449 78.3314 105.465 78.7066 105.478C80.3818 105.536 82.0337 105.549 83.4435 105.305C84.8527 105.061 86.0427 104.557 86.7687 103.561C87.0796 103.134 87.2344 102.583 87.2818 101.95C87.3293 101.316 87.27 100.592 87.1445 99.8109C86.9283 98.4642 86.512 96.9296 86.0902 95.3744C86.023 95.1267 85.9556 94.8784 85.8889 94.6303C85.4021 92.8193 84.9491 91.0154 84.8227 89.4565C84.6958 87.8927 84.9009 86.6129 85.6876 85.8149C86.4737 85.0175 87.7338 84.8096 89.2747 84.9383C90.8109 85.0665 92.5889 85.5258 94.3743 86.0197C94.6189 86.0873 94.8636 86.1556 95.1078 86.2238C96.641 86.6517 98.1541 87.0741 99.482 87.2934C100.252 87.4207 100.967 87.4809 101.592 87.4327C102.217 87.3845 102.761 87.2274 103.182 86.9116C104.164 86.1751 104.661 84.9686 104.901 83.5403C105.141 82.1108 105.129 80.4357 105.071 78.7364C105.058 78.3559 105.043 77.9742 105.028 77.5936C104.976 76.2693 104.924 74.9576 104.969 73.7509C105.026 72.1953 105.242 70.8388 105.807 69.872C106.937 67.9392 108.93 67.4154 111.236 67.2613C112.025 67.2085 112.843 67.1993 113.67 67.1901C114.051 67.1858 114.435 67.1815 114.819 67.1729C116.029 67.1457 117.236 67.0754 118.353 66.8231C119.491 66.5661 120.363 65.9227 121.131 65.1154C121.672 64.5469 122.168 63.8889 122.67 63.2233C122.877 62.949 123.085 62.6734 123.298 62.4022C124.76 60.5366 126.472 58.8241 129.723 58.8241C132.975 58.8241 134.69 60.5366 136.152 62.4023C136.366 62.6746 136.575 62.9515 136.783 63.227C137.285 63.8913 137.78 64.548 138.32 65.1154C139.088 65.9226 139.958 66.566 141.093 66.823L141.093 66.8231C142.211 67.0754 143.417 67.1457 144.628 67.1729C145.012 67.1815 145.395 67.1858 145.777 67.1901C146.604 67.1993 147.422 67.2085 148.211 67.2613C150.516 67.4154 152.51 67.9392 153.639 69.872C154.204 70.8388 154.421 72.1953 154.478 73.7509C154.522 74.9575 154.471 76.2692 154.418 77.5934C154.403 77.9741 154.388 78.3558 154.375 78.7364C154.318 80.4357 154.305 82.1108 154.546 83.5403C154.786 84.9686 155.283 86.1751 156.265 86.9116C156.686 87.2274 157.23 87.3845 157.855 87.4327C158.48 87.4809 159.194 87.4207 159.965 87.2934C161.293 87.0741 162.806 86.6517 164.339 86.2238C164.583 86.1556 164.828 86.0873 165.072 86.0197C166.858 85.5258 168.636 85.0665 170.172 84.9383C171.713 84.8096 172.973 85.0175 173.759 85.8149C174.546 86.6129 174.751 87.8927 174.624 89.4565C174.498 91.0154 174.045 92.8193 173.558 94.6303C173.491 94.8784 173.424 95.1267 173.356 95.3745C172.935 96.9297 172.518 98.4642 172.302 99.8109C172.177 100.592 172.117 101.316 172.165 101.95C172.212 102.583 172.367 103.134 172.678 103.561C173.404 104.557 174.594 105.061 176.003 105.305C177.413 105.549 179.065 105.536 180.74 105.478C181.115 105.465 181.492 105.449 181.867 105.434C183.172 105.381 184.465 105.329 185.655 105.374C187.188 105.431 188.524 105.651 189.477 106.224C191.382 107.369 191.899 109.392 192.051 111.732C192.103 112.533 192.112 113.363 192.121 114.201C192.125 114.589 192.129 114.978 192.138 115.367C192.165 116.595 192.234 117.818 192.483 118.951C192.736 120.104 193.369 120.988 194.165 121.767C194.726 122.316 195.375 122.819 196.031 123.329C196.301 123.539 196.573 123.75 196.84 123.965C198.679 125.448 200.368 127.185 200.368 130.486C200.368 133.786 198.679 135.526 196.84 137.01C196.572 137.226 196.299 137.438 196.027 137.649C195.372 138.158 194.725 138.661 194.165 139.208C193.369 139.987 192.736 140.87 192.483 142.02C192.234 143.153 192.165 144.376 192.138 145.604C192.129 145.994 192.125 146.383 192.121 146.77C192.112 147.609 192.103 148.438 192.051 149.239C191.899 151.579 191.382 153.602 189.477 154.748C188.524 155.32 187.188 155.54 185.655 155.598C184.465 155.643 183.172 155.59 181.867 155.537C181.492 155.522 181.115 155.507 180.74 155.494C179.065 155.435 177.413 155.422 176.003 155.666C174.594 155.91 173.404 156.415 172.678 157.411C172.367 157.837 172.212 158.389 172.165 159.022C172.117 159.655 172.177 160.379 172.302 161.16C172.518 162.507 172.935 164.042 173.356 165.597C173.424 165.845 173.491 166.093 173.558 166.341C174.045 168.152 174.498 169.956 174.624 171.515C174.751 173.079 174.546 174.358 173.759 175.156C172.973 175.954 171.713 176.162 170.172 176.033C168.636 175.905 166.858 175.446 165.072 174.952C164.828 174.884 164.583 174.816 164.339 174.747C162.806 174.32 161.293 173.897 159.965 173.678C159.194 173.551 158.48 173.49 157.855 173.539C157.23 173.587 156.686 173.744 156.265 174.06C155.283 174.796 154.786 176.003 154.546 177.431C154.305 178.861 154.318 180.536 154.375 182.235C154.388 182.616 154.403 182.997 154.418 183.378C154.471 184.702 154.522 186.014 154.478 187.22C154.421 188.776 154.204 190.132 153.639 191.099C152.51 193.032 150.516 193.556 148.211 193.71C147.422 193.763 146.604 193.772 145.777 193.781C145.396 193.785 145.012 193.79 144.628 193.798C143.417 193.826 142.211 193.896 141.093 194.148C139.956 194.405 139.084 195.049 138.316 195.856C137.775 196.424 137.279 197.082 136.776 197.748C136.569 198.022 136.361 198.298 136.149 198.569C134.687 200.435 132.975 202.147 129.723 202.147C126.472 202.147 124.757 200.435 123.294 198.569C123.081 198.297 122.872 198.02 122.664 197.744C122.162 197.08 121.666 196.423 121.127 195.856C120.359 195.049 119.489 194.405 118.353 194.148L118.326 194.269L118.353 194.148C117.236 193.896 116.029 193.826 114.819 193.798C114.435 193.79 114.051 193.785 113.669 193.781C112.843 193.772 112.025 193.763 111.236 193.71C108.93 193.556 106.937 193.032 105.807 191.099C105.242 190.132 105.026 188.776 104.969 187.22C104.924 186.014 104.976 184.702 105.028 183.378C105.043 182.997 105.058 182.615 105.071 182.235C105.129 180.536 105.141 178.861 104.901 177.431C104.661 176.003 104.164 174.796 103.182 174.06C102.761 173.744 102.217 173.587 101.592 173.539C100.967 173.49 100.252 173.551 99.482 173.678C98.1541 173.897 96.641 174.32 95.1079 174.747C94.8636 174.816 94.6189 174.884 94.3743 174.952C92.5889 175.446 90.8109 175.905 89.2747 176.033C87.7338 176.162 86.4737 175.954 85.6876 175.156C84.9009 174.358 84.6958 173.079 84.8227 171.515C84.9491 169.956 85.4021 168.152 85.8889 166.341C85.9556 166.093 86.023 165.845 86.0902 165.597C86.5121 164.042 86.9283 162.507 87.1445 161.16C87.27 160.379 87.3293 159.655 87.2818 159.022C87.2344 158.389 87.0796 157.837 86.7687 157.411C86.0427 156.415 84.8527 155.91 83.4435 155.666C82.0337 155.422 80.3818 155.435 78.7066 155.494C78.3314 155.507 77.9551 155.522 77.5798 155.537C76.2743 155.59 74.9815 155.643 73.7921 155.598C72.2588 155.54 70.9225 155.32 69.9702 154.748C68.065 153.602 67.548 151.579 67.396 149.239C67.3439 148.438 67.3349 147.609 67.3258 146.77C67.3216 146.383 67.3173 145.994 67.3089 145.604C67.2821 144.376 67.2128 143.153 66.9641 142.02C66.711 140.867 66.0772 139.984 65.2812 139.204C64.7208 138.656 64.072 138.152 63.4158 137.642C63.1454 137.432 62.8737 137.221 62.6064 137.006C60.7679 135.524 59.0782 133.786 59.0782 130.486C59.0782 127.185 60.7679 125.445 62.6065 123.962C62.8749 123.745 63.1478 123.533 63.4195 123.322C64.0744 122.813 64.7218 122.31 65.2812 121.763C66.0772 120.984 66.711 120.102 66.9641 118.951Z" fill="url(#paint43_radial_3081_14785)" stroke="white" stroke-width="0.254119"/>
<path d="M94.2523 123.792L94.2523 123.791C94.3933 123.155 94.4322 122.468 94.4473 121.783C94.4521 121.565 94.4545 121.347 94.4568 121.131C94.462 120.665 94.467 120.205 94.4961 119.761C94.5813 118.46 94.87 117.359 95.9146 116.736C96.4368 116.424 97.1754 116.302 98.0348 116.27C98.7004 116.245 99.4236 116.274 100.156 116.304C100.367 116.312 100.579 116.321 100.791 116.328C101.732 116.361 102.665 116.368 103.463 116.231C104.26 116.094 104.945 115.809 105.365 115.237C105.549 114.988 105.637 114.669 105.664 114.31C105.692 113.951 105.658 113.543 105.587 113.105C105.465 112.352 105.23 111.493 104.993 110.627C104.955 110.489 104.918 110.351 104.88 110.213C104.607 109.203 104.354 108.203 104.283 107.34C104.212 106.473 104.329 105.782 104.753 105.356C105.176 104.93 105.862 104.812 106.724 104.883C107.581 104.954 108.574 105.209 109.578 105.484C109.715 105.522 109.852 105.56 109.989 105.598C110.85 105.836 111.703 106.072 112.452 106.195C112.887 106.266 113.293 106.301 113.65 106.273C114.007 106.246 114.324 106.157 114.572 105.972C115.14 105.549 115.423 104.86 115.559 104.058C115.695 103.255 115.688 102.316 115.656 101.37C115.648 101.157 115.64 100.944 115.631 100.731C115.602 99.9937 115.573 99.2658 115.598 98.5959C115.63 97.7309 115.751 96.9872 116.061 96.4612C116.68 95.4099 117.774 95.1196 119.066 95.0339C119.507 95.0046 119.964 94.9996 120.428 94.9944C120.642 94.992 120.858 94.9896 121.075 94.9848C121.756 94.9696 122.438 94.9304 123.071 94.7885C123.725 94.6421 124.223 94.2757 124.659 93.8213C124.965 93.5021 125.247 93.1313 125.53 92.7593C125.646 92.6071 125.762 92.4546 125.88 92.3054C126.697 91.2706 127.645 90.3329 129.445 90.3329C131.245 90.3329 132.194 91.2706 133.012 92.3055C133.131 92.4553 133.247 92.6085 133.364 92.7614C133.646 93.1327 133.928 93.5027 134.233 93.8212C134.669 94.2756 135.167 94.6421 135.819 94.7885L135.819 94.7885C136.452 94.9304 137.134 94.9696 137.815 94.9848C138.032 94.9896 138.248 94.992 138.462 94.9944C138.926 94.9996 139.383 95.0046 139.824 95.0339C141.116 95.1196 142.21 95.4099 142.829 96.4612C143.139 96.9872 143.26 97.7309 143.292 98.5959C143.317 99.2659 143.288 99.9938 143.259 100.731C143.25 100.944 143.242 101.157 143.234 101.37C143.202 102.316 143.195 103.255 143.331 104.058C143.467 104.86 143.75 105.549 144.318 105.972C144.566 106.157 144.883 106.246 145.24 106.273C145.597 106.301 146.003 106.266 146.438 106.195C147.187 106.072 148.04 105.836 148.901 105.598C149.038 105.56 149.175 105.522 149.312 105.484C150.316 105.209 151.309 104.954 152.166 104.883C153.028 104.812 153.714 104.93 154.137 105.356C154.561 105.782 154.678 106.473 154.607 107.34C154.536 108.203 154.283 109.203 154.01 110.213C153.972 110.351 153.934 110.489 153.897 110.627C153.66 111.493 153.425 112.352 153.303 113.105C153.232 113.543 153.198 113.951 153.226 114.31C153.253 114.669 153.341 114.988 153.525 115.237C153.945 115.809 154.63 116.094 155.427 116.231C156.225 116.368 157.158 116.361 158.099 116.328C158.311 116.321 158.522 116.312 158.734 116.304C159.466 116.274 160.19 116.245 160.855 116.27C161.715 116.302 162.453 116.424 162.975 116.736C164.02 117.359 164.309 118.46 164.394 119.761C164.423 120.205 164.428 120.665 164.433 121.132C164.435 121.348 164.438 121.565 164.443 121.783C164.458 122.468 164.497 123.155 164.638 123.791C164.783 124.448 165.147 124.95 165.599 125.389C165.916 125.697 166.284 125.981 166.654 126.265C166.805 126.382 166.957 126.499 167.105 126.617C168.133 127.439 169.065 128.393 169.065 130.206C169.065 132.019 168.133 132.974 167.105 133.797C166.956 133.916 166.804 134.034 166.652 134.151C166.283 134.435 165.915 134.719 165.599 135.026C165.147 135.464 164.783 135.965 164.638 136.621L164.759 136.648L164.638 136.621C164.497 137.258 164.458 137.944 164.443 138.629C164.438 138.847 164.435 139.065 164.433 139.281C164.428 139.748 164.423 140.207 164.394 140.652C164.309 141.952 164.02 143.053 162.975 143.676C162.453 143.988 161.715 144.11 160.855 144.142C160.19 144.167 159.466 144.138 158.733 144.109C158.522 144.1 158.311 144.092 158.099 144.084C157.158 144.052 156.225 144.044 155.427 144.181C154.63 144.318 153.945 144.603 153.525 145.175C153.341 145.424 153.253 145.743 153.226 146.102C153.198 146.461 153.232 146.87 153.303 147.307C153.425 148.061 153.66 148.919 153.897 149.786C153.934 149.923 153.972 150.062 154.01 150.2C154.283 151.209 154.536 152.209 154.607 153.072C154.678 153.94 154.561 154.63 154.137 155.057C153.714 155.483 153.028 155.6 152.166 155.529C151.309 155.458 150.316 155.204 149.312 154.928C149.175 154.891 149.038 154.853 148.901 154.815C148.04 154.576 147.187 154.34 146.438 154.217C146.003 154.146 145.597 154.112 145.24 154.139C144.883 154.166 144.566 154.256 144.318 154.44C143.75 154.863 143.467 155.553 143.331 156.355C143.195 157.157 143.202 158.096 143.234 159.043C143.242 159.256 143.25 159.469 143.259 159.681C143.288 160.419 143.317 161.147 143.292 161.817C143.26 162.682 143.139 163.425 142.829 163.951C142.21 165.003 141.116 165.293 139.824 165.378C139.383 165.408 138.926 165.413 138.463 165.418C138.248 165.42 138.032 165.423 137.815 165.428C137.134 165.443 136.452 165.482 135.819 165.624C135.165 165.77 134.667 166.137 134.231 166.591C133.925 166.91 133.643 167.281 133.36 167.653C133.244 167.805 133.128 167.958 133.01 168.107C132.193 169.142 131.245 170.08 129.445 170.08C127.644 170.08 126.696 169.142 125.878 168.107C125.759 167.957 125.643 167.804 125.526 167.651C125.244 167.28 124.962 166.91 124.657 166.591C124.221 166.137 123.723 165.77 123.071 165.624C122.438 165.482 121.756 165.443 121.075 165.428C120.858 165.423 120.642 165.42 120.427 165.418C119.964 165.413 119.507 165.408 119.066 165.378C117.774 165.293 116.68 165.003 116.061 163.951C115.751 163.425 115.63 162.682 115.598 161.817C115.573 161.147 115.602 160.419 115.631 159.681C115.64 159.469 115.648 159.256 115.656 159.043C115.688 158.096 115.695 157.157 115.559 156.355C115.423 155.553 115.14 154.863 114.572 154.44C114.324 154.256 114.007 154.166 113.65 154.139C113.293 154.112 112.887 154.146 112.452 154.217C111.703 154.34 110.85 154.576 109.989 154.815C109.852 154.853 109.715 154.891 109.578 154.928C108.574 155.204 107.581 155.458 106.724 155.529C105.862 155.6 105.176 155.483 104.753 155.057C104.329 154.63 104.212 153.94 104.283 153.072C104.354 152.209 104.607 151.209 104.88 150.2C104.918 150.062 104.955 149.923 104.993 149.785C105.23 148.919 105.465 148.061 105.587 147.307C105.658 146.87 105.692 146.461 105.664 146.102C105.637 145.743 105.549 145.424 105.365 145.175C104.945 144.603 104.26 144.318 103.463 144.181C102.665 144.044 101.732 144.052 100.791 144.084C100.579 144.092 100.368 144.1 100.156 144.109C99.4236 144.138 98.7005 144.167 98.0348 144.142C97.1754 144.11 96.4368 143.988 95.9146 143.676C94.87 143.053 94.5813 141.952 94.4961 140.652C94.467 140.207 94.462 139.748 94.4568 139.281C94.4545 139.065 94.4521 138.847 94.4473 138.629C94.4322 137.944 94.3933 137.258 94.2523 136.621C94.107 135.964 93.743 135.462 93.2915 135.024C92.9743 134.716 92.6058 134.432 92.2362 134.147C92.0849 134.03 91.9334 133.914 91.7852 133.795C90.7572 132.973 89.8248 132.019 89.8248 130.206C89.8248 128.393 90.7572 127.438 91.7852 126.615C91.9341 126.496 92.0863 126.379 92.2383 126.262C92.6072 125.977 92.9749 125.694 93.2914 125.387C93.743 124.948 94.1069 124.447 94.2523 123.792Z" fill="url(#paint44_radial_3081_14785)" stroke="white" stroke-width="0.254119"/>
<path d="M151.169 133.881L151.169 133.881C151.261 133.466 151.49 133.15 151.77 132.877C151.966 132.686 152.194 132.51 152.421 132.334C152.513 132.263 152.605 132.192 152.695 132.12C153.319 131.618 153.875 131.044 153.875 129.953C153.875 128.862 153.319 128.289 152.695 127.788C152.606 127.716 152.514 127.646 152.422 127.574C152.195 127.399 151.966 127.222 151.77 127.031C151.49 126.757 151.261 126.441 151.169 126.026C151.082 125.63 151.058 125.204 151.049 124.783C151.046 124.648 151.044 124.514 151.043 124.381C151.04 124.095 151.037 123.815 151.019 123.544C150.967 122.748 150.792 122.095 150.175 121.725C149.867 121.541 149.426 121.466 148.902 121.446C148.498 121.431 148.058 121.449 147.61 121.467C147.481 121.472 147.351 121.478 147.221 121.482C146.646 121.502 146.071 121.507 145.577 121.422C145.084 121.337 144.65 121.158 144.382 120.792C144.263 120.629 144.207 120.423 144.19 120.198C144.173 119.972 144.194 119.717 144.238 119.447C144.313 118.981 144.457 118.451 144.602 117.92C144.625 117.835 144.648 117.751 144.671 117.666C144.838 117.046 144.992 116.436 145.034 115.911C145.077 115.382 145.004 114.977 144.761 114.731C144.519 114.486 144.119 114.412 143.596 114.456C143.077 114.499 142.473 114.654 141.859 114.823C141.776 114.846 141.692 114.869 141.608 114.893C141.082 115.039 140.558 115.185 140.097 115.261C139.829 115.305 139.576 115.326 139.352 115.309C139.129 115.292 138.925 115.235 138.763 115.115C138.4 114.844 138.224 114.405 138.14 113.908C138.056 113.41 138.061 112.829 138.081 112.248C138.085 112.117 138.09 111.985 138.095 111.855C138.113 111.402 138.131 110.958 138.116 110.549C138.096 110.019 138.022 109.573 137.839 109.261C137.474 108.638 136.828 108.461 136.041 108.409C135.773 108.391 135.496 108.388 135.213 108.385C135.081 108.383 134.949 108.382 134.815 108.379C134.398 108.37 133.977 108.346 133.584 108.257L133.584 108.257C133.173 108.164 132.86 107.932 132.59 107.649C132.401 107.452 132.226 107.221 132.053 106.992C131.982 106.899 131.912 106.806 131.84 106.715C131.343 106.084 130.776 105.523 129.698 105.523C128.62 105.523 128.054 106.084 127.557 106.715C127.486 106.805 127.416 106.898 127.346 106.991C127.172 107.22 126.997 107.451 126.808 107.649C126.537 107.932 126.224 108.164 125.812 108.257C125.42 108.346 124.998 108.37 124.581 108.379C124.448 108.382 124.315 108.383 124.183 108.385C123.9 108.388 123.624 108.391 123.355 108.409C122.568 108.461 121.922 108.638 121.557 109.261C121.374 109.573 121.3 110.019 121.28 110.549C121.265 110.958 121.283 111.402 121.301 111.855C121.306 111.985 121.311 112.117 121.316 112.248C121.335 112.829 121.34 113.41 121.256 113.908C121.172 114.405 120.996 114.844 120.633 115.115L151.169 133.881ZM151.169 133.881C151.082 134.277 151.058 134.702 151.049 135.123C151.046 135.258 151.044 135.393 151.043 135.526C151.04 135.811 151.037 136.091 151.019 136.363C150.967 137.158 150.792 137.812 150.175 138.181C149.867 138.365 149.426 138.44 148.902 138.46C148.498 138.475 148.058 138.457 147.61 138.439C147.481 138.434 147.351 138.429 147.221 138.424C146.646 138.404 146.071 138.399 145.577 138.485C145.084 138.57 144.65 138.748 144.382 139.114C144.263 139.277 144.207 139.483 144.19 139.708C144.173 139.934 144.194 140.189 144.238 140.46C144.313 140.925 144.457 141.455 144.602 141.987C144.625 142.071 144.648 142.156 144.671 142.24C144.838 142.861 144.992 143.471 145.034 143.995C145.077 144.525 145.004 144.929 144.761 145.175C144.519 145.42 144.119 145.494 143.596 145.451C143.077 145.407 142.473 145.253 141.859 145.083C141.776 145.06 141.692 145.037 141.608 145.014C141.082 144.867 140.558 144.722 140.097 144.646C139.829 144.602 139.576 144.58 139.352 144.597C139.129 144.614 138.925 144.671 138.763 144.792C138.4 145.063 138.224 145.501 138.14 145.998C138.056 146.496 138.061 147.077 138.081 147.658C138.085 147.79 138.09 147.921 138.095 148.052C138.113 148.504 138.131 148.948 138.116 149.358C138.096 149.887 138.022 150.333 137.839 150.645C137.474 151.268 136.828 151.445 136.041 151.497C135.773 151.515 135.496 151.518 135.213 151.521C135.081 151.523 134.949 151.524 134.815 151.527C134.398 151.537 133.977 151.561 133.584 151.649C133.172 151.742 132.859 151.974 132.589 152.257C132.399 152.455 132.224 152.686 132.05 152.916C131.98 153.009 131.91 153.101 131.839 153.191C131.342 153.823 130.776 154.383 129.698 154.383C128.62 154.383 128.053 153.823 127.556 153.191C127.485 153.101 127.414 153.008 127.343 152.914C127.17 152.685 126.995 152.455 126.806 152.257C126.536 151.974 126.223 151.742 125.812 151.649L125.812 151.649M151.169 133.881L125.812 151.649M125.812 151.649C125.42 151.561 124.998 151.537 124.581 151.527C124.448 151.524 124.315 151.523 124.183 151.521C123.9 151.518 123.624 151.515 123.355 151.497C122.568 151.445 121.922 151.268 121.557 150.645C121.374 150.333 121.3 149.887 121.28 149.358C121.265 148.948 121.283 148.504 121.301 148.052C121.306 147.921 121.311 147.79 121.316 147.658C121.335 147.077 121.34 146.496 121.256 145.998C121.172 145.501 120.996 145.063 120.633 144.792C120.472 144.671 120.267 144.614 120.044 144.597C119.82 144.58 119.567 144.602 119.299 144.646C118.838 144.722 118.314 144.867 117.788 145.014C117.704 145.037 117.62 145.06 117.537 145.083C116.923 145.253 116.319 145.407 115.801 145.451C115.277 145.494 114.878 145.42 114.635 145.175C114.392 144.929 114.319 144.525 114.362 143.995C114.405 143.471 114.558 142.861 114.725 142.24C114.748 142.156 114.771 142.071 114.794 141.987C114.939 141.455 115.083 140.925 115.158 140.46C115.202 140.189 115.223 139.934 115.206 139.708C115.189 139.483 115.133 139.277 115.014 139.114C114.746 138.748 114.312 138.57 113.819 138.485C113.326 138.399 112.751 138.404 112.175 138.424C112.045 138.429 111.915 138.434 111.786 138.439C111.338 138.457 110.899 138.475 110.494 138.46C109.97 138.44 109.529 138.365 109.221 138.181C108.605 137.812 108.429 137.158 108.377 136.363C108.36 136.091 108.357 135.811 108.353 135.526C108.352 135.393 108.351 135.258 108.348 135.123C108.338 134.702 108.314 134.277 108.227 133.881C108.136 133.465 107.906 133.149 107.626 132.876C107.43 132.684 107.201 132.507 106.974 132.332C106.882 132.261 106.79 132.19 106.701 132.118C106.077 131.617 105.521 131.044 105.521 129.953C105.521 128.862 106.077 128.289 106.702 127.787C106.791 127.715 106.883 127.644 106.975 127.572C107.202 127.397 107.43 127.22 107.626 127.029C107.906 126.756 108.136 126.441 108.227 126.026L108.227 126.026M125.812 151.649L108.227 126.026M108.227 126.026C108.314 125.63 108.338 125.204 108.348 124.783M108.227 126.026L108.348 124.783M108.348 124.783C108.351 124.648 108.352 124.514 108.353 124.381M108.348 124.783L108.353 124.381M108.353 124.381C108.357 124.095 108.36 123.815 108.377 123.544M108.353 124.381L108.377 123.544M108.377 123.544C108.429 122.748 108.605 122.095 109.221 121.725M108.377 123.544L109.221 121.725M109.221 121.725C109.529 121.541 109.97 121.466 110.494 121.446M109.221 121.725L110.494 121.446M110.494 121.446C110.899 121.431 111.338 121.449 111.786 121.467M110.494 121.446L111.786 121.467M111.786 121.467C111.915 121.472 112.045 121.478 112.175 121.482M111.786 121.467L112.175 121.482M112.175 121.482C112.751 121.502 113.326 121.507 113.819 121.422M112.175 121.482L113.819 121.422M113.819 121.422C114.312 121.337 114.746 121.158 115.014 120.792M113.819 121.422L115.014 120.792M115.014 120.792C115.133 120.629 115.189 120.423 115.206 120.198M115.014 120.792L115.206 120.198M115.206 120.198C115.223 119.972 115.202 119.717 115.158 119.447M115.206 120.198L115.158 119.447M115.158 119.447C115.083 118.981 114.939 118.451 114.794 117.92M115.158 119.447L114.794 117.92M114.794 117.92C114.771 117.835 114.748 117.751 114.725 117.666M114.794 117.92L114.725 117.666M114.725 117.666C114.558 117.046 114.405 116.436 114.362 115.911M114.725 117.666L114.362 115.911M114.362 115.911C114.319 115.382 114.392 114.977 114.635 114.731M114.362 115.911L114.635 114.731M114.635 114.731C114.878 114.486 115.277 114.412 115.801 114.456M114.635 114.731L115.801 114.456M115.801 114.456C116.319 114.499 116.923 114.654 117.537 114.823M115.801 114.456L117.537 114.823M117.537 114.823C117.62 114.846 117.704 114.869 117.788 114.893M117.537 114.823L117.788 114.893M117.788 114.893C118.314 115.039 118.838 115.185 119.299 115.261M117.788 114.893L119.299 115.261M119.299 115.261C119.567 115.305 119.82 115.326 120.044 115.309M119.299 115.261L120.044 115.309M120.044 115.309C120.267 115.292 120.472 115.235 120.633 115.115L120.044 115.309Z" fill="url(#paint45_radial_3081_14785)" stroke="white" stroke-width="0.254119"/>
<path d="M139.596 131.788C139.441 132.499 139.731 133.446 139.113 133.821C138.495 134.195 136.914 133.63 136.475 134.238C136.107 134.746 137.164 136.523 136.643 137.056C136.122 137.589 134.385 136.508 133.887 136.884C133.293 137.333 133.846 138.95 133.48 139.582C133.113 140.214 132.187 139.917 131.492 140.076C130.797 140.234 130.74 141.346 129.698 141.346C128.656 141.346 128.598 140.234 127.904 140.076C127.209 139.917 126.283 140.214 125.916 139.582C125.55 138.95 126.102 137.333 125.508 136.884C125.011 136.508 123.274 137.589 122.753 137.056C122.232 136.523 123.289 134.746 122.921 134.238C122.482 133.63 120.901 134.195 120.283 133.821C119.665 133.446 119.955 132.499 119.8 131.788C119.645 131.077 118.559 131.019 118.559 129.953C118.559 128.887 119.645 128.828 119.8 128.118C119.955 127.407 119.665 126.46 120.283 126.086C120.901 125.711 122.482 126.276 122.921 125.668C123.289 125.16 122.232 123.383 122.753 122.85C123.274 122.317 125.011 123.398 125.508 123.022C126.102 122.573 125.55 120.956 125.916 120.324C126.283 119.692 127.209 119.989 127.904 119.83C128.599 119.672 128.656 118.561 129.698 118.561C130.74 118.561 130.798 119.672 131.492 119.83C132.187 119.989 133.113 119.692 133.48 120.324C133.846 120.956 133.293 122.573 133.887 123.022C134.385 123.398 136.122 122.317 136.643 122.85C137.164 123.383 136.107 125.16 136.475 125.668C136.914 126.276 138.495 125.711 139.113 126.086C139.731 126.46 139.441 127.407 139.596 128.118C139.75 128.829 140.837 128.887 140.837 129.953C140.837 131.019 139.75 131.078 139.596 131.788Z" fill="black"/>
<defs>
<radialGradient id="paint0_radial_3081_14785" cx="0" cy="0" r="1" gradientUnits="userSpaceOnUse" gradientTransform="translate(129.804 129.809) rotate(90) scale(121.884 64.8005)">
<stop offset="0.365" stop-color="#121047"/>
<stop offset="0.695" stop-color="#FF4C00"/>
<stop offset="0.92" stop-color="#FEDFCA"/>
</radialGradient>
<radialGradient id="paint1_radial_3081_14785" cx="0" cy="0" r="1" gradientUnits="userSpaceOnUse" gradientTransform="translate(129.785 129.799) rotate(90) scale(123.055 61.4335)">
<stop offset="0.365" stop-color="#121047"/>
<stop offset="0.695" stop-color="#FF4C00"/>
<stop offset="0.92" stop-color="#FEDFCA"/>
</radialGradient>
<radialGradient id="paint2_radial_3081_14785" cx="0" cy="0" r="1" gradientUnits="userSpaceOnUse" gradientTransform="translate(129.796 129.805) rotate(90) scale(124.115 58.0378)">
<stop offset="0.365" stop-color="#121047"/>
<stop offset="0.695" stop-color="#FF4C00"/>
<stop offset="0.92" stop-color="#FEDFCA"/>
</radialGradient>
<radialGradient id="paint3_radial_3081_14785" cx="0" cy="0" r="1" gradientUnits="userSpaceOnUse" gradientTransform="translate(129.793 129.805) rotate(90) scale(125.074 54.6063)">
<stop offset="0.365" stop-color="#121047"/>
<stop offset="0.695" stop-color="#FF4C00"/>
<stop offset="0.92" stop-color="#FEDFCA"/>
</radialGradient>
<radialGradient id="paint4_radial_3081_14785" cx="0" cy="0" r="1" gradientUnits="userSpaceOnUse" gradientTransform="translate(129.79 129.81) rotate(90) scale(125.921 51.1516)">
<stop offset="0.365" stop-color="#121047"/>
<stop offset="0.695" stop-color="#FF4C00"/>
<stop offset="0.92" stop-color="#FEDFCA"/>
</radialGradient>
<radialGradient id="paint5_radial_3081_14785" cx="0" cy="0" r="1" gradientUnits="userSpaceOnUse" gradientTransform="translate(129.784 129.798) rotate(90) scale(126.673 47.6765)">
<stop offset="0.365" stop-color="#121047"/>
<stop offset="0.695" stop-color="#FF4C00"/>
<stop offset="0.92" stop-color="#FEDFCA"/>
</radialGradient>
<radialGradient id="paint6_radial_3081_14785" cx="0" cy="0" r="1" gradientUnits="userSpaceOnUse" gradientTransform="translate(129.794 129.813) rotate(90) scale(127.298 44.1882)">
<stop offset="0.365" stop-color="#121047"/>
<stop offset="0.695" stop-color="#FF4C00"/>
<stop offset="0.92" stop-color="#FEDFCA"/>
</radialGradient>
<radialGradient id="paint7_radial_3081_14785" cx="0" cy="0" r="1" gradientUnits="userSpaceOnUse" gradientTransform="translate(129.791 129.805) rotate(90) scale(127.805 40.7092)">
<stop offset="0.365" stop-color="#121047"/>
<stop offset="0.695" stop-color="#FF4C00"/>
<stop offset="0.92" stop-color="#FEDFCA"/>
</radialGradient>
<radialGradient id="paint8_radial_3081_14785" cx="0" cy="0" r="1" gradientUnits="userSpaceOnUse" gradientTransform="translate(129.795 129.809) rotate(90) scale(128.2 37.2255)">
<stop offset="0.365" stop-color="#121047"/>
<stop offset="0.695" stop-color="#FF4C00"/>
<stop offset="0.92" stop-color="#FEDFCA"/>
</radialGradient>
<radialGradient id="paint9_radial_3081_14785" cx="0" cy="0" r="1" gradientUnits="userSpaceOnUse" gradientTransform="translate(129.783 129.803) rotate(90) scale(128.473 33.75)">
<stop offset="0.365" stop-color="#121047"/>
<stop offset="0.695" stop-color="#FF4C00"/>
<stop offset="0.92" stop-color="#FEDFCA"/>
</radialGradient>
<radialGradient id="paint10_radial_3081_14785" cx="0" cy="0" r="1" gradientUnits="userSpaceOnUse" gradientTransform="translate(129.79 129.804) rotate(90) scale(128.639 32.7707)">
<stop offset="0.365" stop-color="#121047"/>
<stop offset="0.695" stop-color="#FF4C00"/>
<stop offset="0.92" stop-color="#FEDFCA"/>
</radialGradient>
<radialGradient id="paint11_radial_3081_14785" cx="0" cy="0" r="1" gradientUnits="userSpaceOnUse" gradientTransform="translate(129.783 129.805) rotate(90) scale(128.694 35.9498)">
<stop offset="0.365" stop-color="#121047"/>
<stop offset="0.695" stop-color="#FF4C00"/>
<stop offset="0.92" stop-color="#FEDFCA"/>
</radialGradient>
<radialGradient id="paint12_radial_3081_14785" cx="0" cy="0" r="1" gradientUnits="userSpaceOnUse" gradientTransform="translate(129.795 129.805) rotate(90) scale(128.633 39.1453)">
<stop offset="0.365" stop-color="#121047"/>
<stop offset="0.695" stop-color="#FF4C00"/>
<stop offset="0.92" stop-color="#FEDFCA"/>
</radialGradient>
<radialGradient id="paint13_radial_3081_14785" cx="0" cy="0" r="1" gradientUnits="userSpaceOnUse" gradientTransform="translate(129.793 129.806) rotate(90) scale(128.45 42.3535)">
<stop offset="0.365" stop-color="#121047"/>
<stop offset="0.695" stop-color="#FF4C00"/>
<stop offset="0.92" stop-color="#FEDFCA"/>
</radialGradient>
<radialGradient id="paint14_radial_3081_14785" cx="0" cy="0" r="1" gradientUnits="userSpaceOnUse" gradientTransform="translate(129.794 129.806) rotate(90) scale(128.148 45.5678)">
<stop offset="0.365" stop-color="#121047"/>
<stop offset="0.695" stop-color="#FF4C00"/>
<stop offset="0.92" stop-color="#FEDFCA"/>
</radialGradient>
<radialGradient id="paint15_radial_3081_14785" cx="0" cy="0" r="1" gradientUnits="userSpaceOnUse" gradientTransform="translate(129.795 129.806) rotate(90) scale(127.73 48.7789)">
<stop offset="0.365" stop-color="#121047"/>
<stop offset="0.695" stop-color="#FF4C00"/>
<stop offset="0.92" stop-color="#FEDFCA"/>
</radialGradient>
<radialGradient id="paint16_radial_3081_14785" cx="0" cy="0" r="1" gradientUnits="userSpaceOnUse" gradientTransform="translate(129.792 129.805) rotate(90) scale(127.19 51.9729)">
<stop offset="0.365" stop-color="#121047"/>
<stop offset="0.695" stop-color="#FF4C00"/>
<stop offset="0.92" stop-color="#FEDFCA"/>
</radialGradient>
<radialGradient id="paint17_radial_3081_14785" cx="0" cy="0" r="1" gradientUnits="userSpaceOnUse" gradientTransform="translate(129.781 129.807) rotate(90) scale(126.535 55.1564)">
<stop offset="0.365" stop-color="#121047"/>
<stop offset="0.695" stop-color="#FF4C00"/>
<stop offset="0.92" stop-color="#FEDFCA"/>
</radialGradient>
<radialGradient id="paint18_radial_3081_14785" cx="0" cy="0" r="1" gradientUnits="userSpaceOnUse" gradientTransform="translate(129.786 129.816) rotate(90) scale(125.759 58.3235)">
<stop offset="0.365" stop-color="#121047"/>
<stop offset="0.695" stop-color="#FF4C00"/>
<stop offset="0.92" stop-color="#FEDFCA"/>
</radialGradient>
<radialGradient id="paint19_radial_3081_14785" cx="0" cy="0" r="1" gradientUnits="userSpaceOnUse" gradientTransform="translate(129.788 129.805) rotate(90) scale(124.863 61.4683)">
<stop offset="0.365" stop-color="#121047"/>
<stop offset="0.695" stop-color="#FF4C00"/>
<stop offset="0.92" stop-color="#FEDFCA"/>
</radialGradient>
<radialGradient id="paint20_radial_3081_14785" cx="0" cy="0" r="1" gradientUnits="userSpaceOnUse" gradientTransform="translate(129.79 129.809) rotate(90) scale(123.842 64.5842)">
<stop offset="0.365" stop-color="#121047"/>
<stop offset="0.695" stop-color="#FF4C00"/>
<stop offset="0.92" stop-color="#FEDFCA"/>
</radialGradient>
<radialGradient id="paint21_radial_3081_14785" cx="0" cy="0" r="1" gradientUnits="userSpaceOnUse" gradientTransform="translate(129.807 129.804) scale(121.884 64.8005)">
<stop offset="0.365" stop-color="#121047"/>
<stop offset="0.695" stop-color="#FF4C00"/>
<stop offset="0.92" stop-color="#FEDFCA"/>
</radialGradient>
<radialGradient id="paint22_radial_3081_14785" cx="0" cy="0" r="1" gradientUnits="userSpaceOnUse" gradientTransform="translate(129.797 129.82) scale(123.055 61.4335)">
<stop offset="0.365" stop-color="#121047"/>
<stop offset="0.695" stop-color="#FF4C00"/>
<stop offset="0.92" stop-color="#FEDFCA"/>
</radialGradient>
<radialGradient id="paint23_radial_3081_14785" cx="0" cy="0" r="1" gradientUnits="userSpaceOnUse" gradientTransform="translate(129.8 129.812) scale(124.115 58.0378)">
<stop offset="0.365" stop-color="#121047"/>
<stop offset="0.695" stop-color="#FF4C00"/>
<stop offset="0.92" stop-color="#FEDFCA"/>
</radialGradient>
<radialGradient id="paint24_radial_3081_14785" cx="0" cy="0" r="1" gradientUnits="userSpaceOnUse" gradientTransform="translate(129.804 129.816) scale(125.074 54.6063)">
<stop offset="0.365" stop-color="#121047"/>
<stop offset="0.695" stop-color="#FF4C00"/>
<stop offset="0.92" stop-color="#FEDFCA"/>
</radialGradient>
<radialGradient id="paint25_radial_3081_14785" cx="0" cy="0" r="1" gradientUnits="userSpaceOnUse" gradientTransform="translate(129.81 129.818) scale(125.921 51.1516)">
<stop offset="0.365" stop-color="#121047"/>
<stop offset="0.695" stop-color="#FF4C00"/>
<stop offset="0.92" stop-color="#FEDFCA"/>
</radialGradient>
<radialGradient id="paint26_radial_3081_14785" cx="0" cy="0" r="1" gradientUnits="userSpaceOnUse" gradientTransform="translate(129.793 129.825) scale(126.673 47.6765)">
<stop offset="0.365" stop-color="#121047"/>
<stop offset="0.695" stop-color="#FF4C00"/>
<stop offset="0.92" stop-color="#FEDFCA"/>
</radialGradient>
<radialGradient id="paint27_radial_3081_14785" cx="0" cy="0" r="1" gradientUnits="userSpaceOnUse" gradientTransform="translate(129.81 129.814) scale(127.298 44.1882)">
<stop offset="0.365" stop-color="#121047"/>
<stop offset="0.695" stop-color="#FF4C00"/>
<stop offset="0.92" stop-color="#FEDFCA"/>
</radialGradient>
<radialGradient id="paint28_radial_3081_14785" cx="0" cy="0" r="1" gradientUnits="userSpaceOnUse" gradientTransform="translate(129.803 129.82) scale(127.805 40.7092)">
<stop offset="0.365" stop-color="#121047"/>
<stop offset="0.695" stop-color="#FF4C00"/>
<stop offset="0.92" stop-color="#FEDFCA"/>
</radialGradient>
<radialGradient id="paint29_radial_3081_14785" cx="0" cy="0" r="1" gradientUnits="userSpaceOnUse" gradientTransform="translate(129.807 129.816) scale(128.2 37.2255)">
<stop offset="0.365" stop-color="#121047"/>
<stop offset="0.695" stop-color="#FF4C00"/>
<stop offset="0.92" stop-color="#FEDFCA"/>
</radialGradient>
<radialGradient id="paint30_radial_3081_14785" cx="0" cy="0" r="1" gradientUnits="userSpaceOnUse" gradientTransform="translate(129.797 129.823) scale(128.473 33.75)">
<stop offset="0.365" stop-color="#121047"/>
<stop offset="0.695" stop-color="#FF4C00"/>
<stop offset="0.92" stop-color="#FEDFCA"/>
</radialGradient>
<radialGradient id="paint31_radial_3081_14785" cx="0" cy="0" r="1" gradientUnits="userSpaceOnUse" gradientTransform="translate(129.802 129.817) scale(128.639 32.7707)">
<stop offset="0.365" stop-color="#121047"/>
<stop offset="0.695" stop-color="#FF4C00"/>
<stop offset="0.92" stop-color="#FEDFCA"/>
</radialGradient>
<radialGradient id="paint32_radial_3081_14785" cx="0" cy="0" r="1" gradientUnits="userSpaceOnUse" gradientTransform="translate(129.803 129.823) scale(128.694 35.9498)">
<stop offset="0.365" stop-color="#121047"/>
<stop offset="0.695" stop-color="#FF4C00"/>
<stop offset="0.92" stop-color="#FEDFCA"/>
</radialGradient>
<radialGradient id="paint33_radial_3081_14785" cx="0" cy="0" r="1" gradientUnits="userSpaceOnUse" gradientTransform="translate(129.801 129.814) scale(128.633 39.1453)">
<stop offset="0.365" stop-color="#121047"/>
<stop offset="0.695" stop-color="#FF4C00"/>
<stop offset="0.92" stop-color="#FEDFCA"/>
</radialGradient>
<radialGradient id="paint34_radial_3081_14785" cx="0" cy="0" r="1" gradientUnits="userSpaceOnUse" gradientTransform="translate(129.807 129.815) scale(128.45 42.3535)">
<stop offset="0.365" stop-color="#121047"/>
<stop offset="0.695" stop-color="#FF4C00"/>
<stop offset="0.92" stop-color="#FEDFCA"/>
</radialGradient>
<radialGradient id="paint35_radial_3081_14785" cx="0" cy="0" r="1" gradientUnits="userSpaceOnUse" gradientTransform="translate(129.8 129.816) scale(128.148 45.5678)">
<stop offset="0.365" stop-color="#121047"/>
<stop offset="0.695" stop-color="#FF4C00"/>
<stop offset="0.92" stop-color="#FEDFCA"/>
</radialGradient>
<radialGradient id="paint36_radial_3081_14785" cx="0" cy="0" r="1" gradientUnits="userSpaceOnUse" gradientTransform="translate(129.802 129.814) scale(127.73 48.7789)">
<stop offset="0.365" stop-color="#121047"/>
<stop offset="0.695" stop-color="#FF4C00"/>
<stop offset="0.92" stop-color="#FEDFCA"/>
</radialGradient>
<radialGradient id="paint37_radial_3081_14785" cx="0" cy="0" r="1" gradientUnits="userSpaceOnUse" gradientTransform="translate(129.802 129.818) scale(127.19 51.9729)">
<stop offset="0.365" stop-color="#121047"/>
<stop offset="0.695" stop-color="#FF4C00"/>
<stop offset="0.92" stop-color="#FEDFCA"/>
</radialGradient>
<radialGradient id="paint38_radial_3081_14785" cx="0" cy="0" r="1" gradientUnits="userSpaceOnUse" gradientTransform="translate(129.803 129.825) scale(126.535 55.1564)">
<stop offset="0.365" stop-color="#121047"/>
<stop offset="0.695" stop-color="#FF4C00"/>
<stop offset="0.92" stop-color="#FEDFCA"/>
</radialGradient>
<radialGradient id="paint39_radial_3081_14785" cx="0" cy="0" r="1" gradientUnits="userSpaceOnUse" gradientTransform="translate(129.812 129.821) scale(125.759 58.3235)">
<stop offset="0.365" stop-color="#121047"/>
<stop offset="0.695" stop-color="#FF4C00"/>
<stop offset="0.92" stop-color="#FEDFCA"/>
</radialGradient>
<radialGradient id="paint40_radial_3081_14785" cx="0" cy="0" r="1" gradientUnits="userSpaceOnUse" gradientTransform="translate(129.798 129.821) scale(124.863 61.4683)">
<stop offset="0.365" stop-color="#121047"/>
<stop offset="0.695" stop-color="#FF4C00"/>
<stop offset="0.92" stop-color="#FEDFCA"/>
</radialGradient>
<radialGradient id="paint41_radial_3081_14785" cx="0" cy="0" r="1" gradientUnits="userSpaceOnUse" gradientTransform="translate(129.804 129.82) scale(123.842 64.5842)">
<stop offset="0.365" stop-color="#121047"/>
<stop offset="0.695" stop-color="#FF4C00"/>
<stop offset="0.92" stop-color="#FEDFCA"/>
</radialGradient>
<radialGradient id="paint42_radial_3081_14785" cx="0" cy="0" r="1" gradientUnits="userSpaceOnUse" gradientTransform="translate(129.445 130.206) rotate(90) scale(92.1528 92.406)">
<stop offset="0.645" stop-color="#ECFFB7" stop-opacity="0"/>
<stop offset="1" stop-color="#6D9400"/>
</radialGradient>
<radialGradient id="paint43_radial_3081_14785" cx="0" cy="0" r="1" gradientUnits="userSpaceOnUse" gradientTransform="translate(129.723 130.486) rotate(90) scale(71.7886 70.7722)">
<stop offset="0.605" stop-color="white" stop-opacity="0"/>
<stop offset="1" stop-color="white"/>
</radialGradient>
<radialGradient id="paint44_radial_3081_14785" cx="0" cy="0" r="1" gradientUnits="userSpaceOnUse" gradientTransform="translate(129.445 130.206) rotate(90) scale(40.0004 39.7472)">
<stop offset="0.605" stop-color="white" stop-opacity="0"/>
<stop offset="1" stop-color="white"/>
</radialGradient>
<radialGradient id="paint45_radial_3081_14785" cx="0" cy="0" r="1" gradientUnits="userSpaceOnUse" gradientTransform="translate(129.698 129.953) rotate(90) scale(24.5572 24.304)">
<stop offset="0.605" stop-color="white" stop-opacity="0"/>
<stop offset="1" stop-color="white"/>
</radialGradient>
</defs>
</svg>
