<svg width="32" height="32" viewBox="0 0 32 32" fill="none" xmlns="http://www.w3.org/2000/svg">
<path d="M9.3335 28H22.6668" stroke="#E48F85" stroke-width="2" stroke-linecap="round" stroke-linejoin="round"/>
<path d="M16 28C19.1826 28 22.2348 26.7357 24.4853 24.4853C26.7357 22.2348 28 19.1826 28 16H4C4 19.1826 5.26428 22.2348 7.51472 24.4853C9.76516 26.7357 12.8174 28 16 28Z" stroke="#E48F85" stroke-width="2" stroke-linecap="round" stroke-linejoin="round"/>
<path d="M15.1732 15.9998C14.3657 16.0073 13.5852 15.7093 12.9882 15.1654C12.3913 14.6215 12.022 13.8721 11.9546 13.0673C11.8871 12.2626 12.1263 11.4621 12.6244 10.8264C13.1224 10.1907 13.8424 9.76686 14.6399 9.6398C14.5122 9.07477 14.5403 8.48567 14.7211 7.93536C14.902 7.38504 15.2288 6.89413 15.6668 6.51501C16.1048 6.13588 16.6375 5.88276 17.208 5.78263C17.7786 5.6825 18.3656 5.73912 18.9065 5.94646C19.1434 5.57361 19.4548 5.25384 19.8213 5.00726C20.1878 4.76069 20.6014 4.59266 21.036 4.51375C21.4706 4.43485 21.9168 4.44677 22.3466 4.54878C22.7764 4.65079 23.1804 4.84067 23.5332 5.10646C24.1486 4.62276 24.92 4.3814 25.7013 4.42806C26.4827 4.47471 27.2199 4.80613 27.7734 5.35962C28.3269 5.91312 28.6583 6.65028 28.7049 7.43165C28.7516 8.21301 28.5102 8.98438 28.0265 9.5998C28.3276 9.9997 28.5306 10.4647 28.6194 10.9573C28.7081 11.4499 28.68 11.9565 28.5373 12.4363C28.3947 12.9162 28.1415 13.3558 27.798 13.72C27.4546 14.0841 27.0305 14.3626 26.5599 14.5331C26.6815 15.013 26.6952 15.514 26.5999 15.9998" stroke="#E48F85" stroke-width="2" stroke-linecap="round" stroke-linejoin="round"/>
<path d="M17.3335 15.9998L22.6668 10.6665" stroke="#E48F85" stroke-width="2" stroke-linecap="round" stroke-linejoin="round"/>
<path d="M14.5336 9.66662C13.8022 8.88698 12.853 8.34574 11.8095 8.11345C10.7661 7.88116 9.67689 7.9686 8.68387 8.36437C7.69086 8.76013 6.8401 9.44587 6.24249 10.3322C5.64489 11.2185 5.32815 12.2643 5.33356 13.3333C5.33356 14.3066 5.60023 15.2133 6.05356 16" stroke="#E48F85" stroke-width="2" stroke-linecap="round" stroke-linejoin="round"/>
</svg>
