<?xml version="1.0" encoding="UTF-8"?>
<svg id="Layer_2" data-name="Layer 2" xmlns="http://www.w3.org/2000/svg" viewBox="0 0 1929.06 340">
  <defs>
    <style>
      .cls-1 {
        fill: #000;
        stroke-width: 0px;
      }
    </style>
  </defs>
  <g id="Layer_1-2" data-name="Layer 1">
    <g>
      <g>
        <path class="cls-1" d="M303.42,0H36.58C16.38,0,0,16.38,0,36.57v266.85c0,20.2,16.38,36.58,36.58,36.58h266.85c20.2,0,36.58-16.38,36.58-36.58V36.57c0-20.2-16.38-36.57-36.58-36.57ZM309.2,195.23c-2.17,9.77,1.9,22.79-6.78,27.95-8.68,5.16-30.92-2.61-37.1,5.75-5.17,7,9.69,31.43,2.37,38.75-7.33,7.33-31.76-7.54-38.75-2.37-8.36,6.18-.59,28.42-5.75,37.1-5.16,8.68-18.18,4.61-27.95,6.78-9.77,2.17-10.58,17.46-25.23,17.46s-15.47-15.29-25.23-17.46c-9.77-2.17-22.79,1.9-27.95-6.78-5.16-8.68,2.61-30.92-5.75-37.1-7-5.17-31.43,9.69-38.75,2.37s7.54-31.76,2.37-38.75c-6.18-8.36-28.42-.59-37.1-5.75-8.68-5.16-4.61-18.18-6.78-27.95-2.17-9.77-17.46-10.58-17.46-25.23,0-14.65,15.29-15.47,17.46-25.23,2.17-9.77-1.9-22.79,6.78-27.95,8.68-5.16,30.92,2.61,37.1-5.75,5.17-7-9.69-31.43-2.37-38.75,7.33-7.33,31.76,7.54,38.75,2.37,8.36-6.18.59-28.42,5.75-37.1,5.16-8.68,18.18-4.61,27.95-6.78,9.77-2.17,10.58-17.46,25.23-17.46s15.47,15.29,25.23,17.46c9.77,2.17,22.79-1.9,27.95,6.78,5.16,8.68-2.61,30.92,5.75,37.1,7,5.17,31.43-9.69,38.75-2.37,7.33,7.33-7.54,31.76-2.37,38.75,6.18,8.36,28.42.59,37.1,5.75,8.68,5.16,4.61,18.18,6.78,27.95,2.17,9.77,17.46,10.58,17.46,25.23,0,14.65-15.29,15.47-17.46,25.23Z"/>
        <path class="cls-1" d="M273.21,151.29c-1.61-7.24,1.41-16.9-5.03-20.72-6.44-3.82-22.93,1.94-27.51-4.26-3.83-5.19,7.19-23.3,1.76-28.74s-23.55,5.59-28.74,1.76c-6.2-4.58-.44-21.07-4.26-27.51-3.82-6.44-13.48-3.42-20.72-5.03-7.24-1.61-7.85-12.94-18.71-12.94s-11.47,11.33-18.71,12.94c-7.24,1.61-16.9-1.41-20.72,5.03-3.82,6.44,1.94,22.93-4.26,27.51-5.19,3.83-23.3-7.19-28.74-1.76s5.59,23.55,1.76,28.74c-4.58,6.2-21.07.44-27.51,4.26-6.44,3.82-3.42,13.48-5.03,20.72-1.61,7.24-12.94,7.85-12.94,18.71,0,10.86,11.33,11.47,12.94,18.71,1.61,7.24-1.41,16.9,5.03,20.72,6.44,3.82,22.93-1.94,27.51,4.26,3.83,5.19-7.19,23.3-1.76,28.74s23.55-5.59,28.74-1.76c6.2,4.58.44,21.07,4.26,27.51,3.82,6.44,13.48,3.42,20.72,5.03,7.24,1.61,7.85,12.94,18.71,12.94s11.47-11.33,18.71-12.94c7.24-1.61,16.9,1.41,20.72-5.03,3.82-6.44-1.94-22.93,4.26-27.51,5.19-3.83,23.3,7.19,28.74,1.76s-5.59-23.55-1.76-28.74c4.58-6.2,21.07-.44,27.51-4.26,6.44-3.82,3.42-13.48,5.03-20.72,1.61-7.24,12.94-7.85,12.94-18.71,0-10.86-11.33-11.47-12.94-18.71ZM234.86,181.76c-1.01,4.55.88,10.62-3.16,13.02-4.05,2.4-14.41-1.22-17.29,2.68-2.41,3.26,4.52,14.64,1.1,18.06-3.41,3.41-14.8-3.51-18.06-1.1-3.89,2.88-.28,13.24-2.68,17.29-2.4,4.05-8.47,2.15-13.02,3.16-4.55,1.01-4.93,8.13-11.76,8.13s-7.21-7.12-11.76-8.13c-4.55-1.01-10.62.88-13.02-3.16-2.4-4.05,1.22-14.41-2.68-17.29-3.26-2.41-14.64,4.52-18.06,1.1s3.51-14.8,1.1-18.06c-2.88-3.89-13.24-.28-17.29-2.68-4.05-2.4-2.15-8.47-3.16-13.02-1.01-4.55-8.13-4.93-8.13-11.76,0-6.83,7.12-7.21,8.13-11.76,1.01-4.55-.88-10.62,3.16-13.02,4.05-2.4,14.41,1.22,17.29-2.68,2.41-3.26-4.52-14.64-1.1-18.06,3.41-3.41,14.8,3.51,18.06,1.1,3.89-2.88.28-13.24,2.68-17.29,2.4-4.05,8.47-2.15,13.02-3.16,4.55-1.01,4.93-8.13,11.76-8.13s7.21,7.12,11.76,8.13c4.55,1.01,10.62-.89,13.02,3.16,2.4,4.05-1.22,14.41,2.68,17.29,3.26,2.41,14.64-4.52,18.06-1.1,3.41,3.41-3.51,14.8-1.1,18.06,2.88,3.89,13.24.28,17.29,2.68,4.05,2.4,2.15,8.47,3.16,13.02,1.01,4.55,8.13,4.93,8.13,11.76,0,6.83-7.12,7.21-8.13,11.76Z"/>
      </g>
      <g>
        <path class="cls-1" d="M471.6,54h31.07v94.19h118.39V54h30.76v223.83h-30.76v-101.03h-118.39v101.03h-31.07V54Z"/>
        <path class="cls-1" d="M669.71,314.82h24.86c4.76,0,8.55-.62,11.34-1.86,2.8-1.24,5.02-3.11,6.68-5.6,1.66-2.49,3.31-6.01,4.97-10.57l7.15-18.65-61.52-161.96h32l44.74,127.46,44.74-127.46h31.69l-70.22,186.21c-3.11,8.5-6.21,15.28-9.32,20.36-3.11,5.08-7.25,9.22-12.43,12.43-5.18,3.21-11.81,4.82-19.89,4.82h-34.8v-25.18Z"/>
        <path class="cls-1" d="M908.75,112.44c15.54,0,28.9,3.63,40.08,10.88,11.19,7.26,19.68,17.25,25.48,30,5.8,12.74,8.7,27.31,8.7,43.68s-2.9,30.93-8.7,43.68c-5.8,12.75-14.29,22.75-25.48,30-11.19,7.25-24.55,10.88-40.08,10.88-11.6,0-21.86-2.28-30.76-6.84-8.91-4.56-16.26-10.98-22.06-19.27v84.56h-29.21V116.17h27.96v24.25c6.01-8.91,13.46-15.8,22.37-20.67,8.9-4.87,19.47-7.3,31.69-7.3ZM904.09,138.25c-10.77,0-19.73,2.49-26.88,7.46-7.15,4.97-12.59,11.87-16.31,20.67-3.73,8.81-5.59,19.02-5.59,30.62s1.87,21.81,5.59,30.62c3.73,8.81,9.17,15.7,16.31,20.67,7.15,4.97,16.1,7.46,26.88,7.46s19.47-2.49,26.72-7.46c7.25-4.97,12.69-11.86,16.31-20.67,3.62-8.81,5.44-19.01,5.44-30.62s-1.81-21.81-5.44-30.62c-3.63-8.81-9.07-15.7-16.31-20.67-7.25-4.97-16.16-7.46-26.72-7.46Z"/>
        <path class="cls-1" d="M1031.02,270.68c-11.6-7.25-20.56-17.3-26.88-30.15-6.32-12.85-9.48-27.36-9.48-43.52s3.16-30.67,9.48-43.52c6.32-12.85,15.27-22.9,26.88-30.15,11.6-7.25,25.06-10.88,40.4-10.88s28.79,3.63,40.39,10.88c11.6,7.26,20.51,17.36,26.72,30.31,6.21,12.95,9.32,27.72,9.32,44.3v9.33h-122.42c1.03,9.74,3.46,18.24,7.3,25.49,3.83,7.26,9.01,12.96,15.54,17.1,6.52,4.15,14.24,6.22,23.15,6.22,10.35,0,19.26-2.43,26.72-7.3,7.46-4.87,13.05-11.55,16.78-20.05h29.83c-5.18,16.17-14.25,29.02-27.19,38.55-12.95,9.54-28.33,14.3-46.14,14.3-15.33,0-28.8-3.63-40.4-10.88ZM1102.02,149.9c-7.77-7.98-17.97-11.97-30.61-11.97s-22.89,3.99-30.76,11.97c-7.87,7.98-12.85,18.81-14.91,32.49h91.04c-2.07-13.68-6.99-24.5-14.76-32.49Z"/>
        <path class="cls-1" d="M1166.37,116.17h27.97v27.36c6.01-10.77,13.25-18.34,21.75-22.69,8.49-4.35,18.23-6.53,29.21-6.53h12.43v27.98h-13.36c-9.53,0-17.92,1.61-25.17,4.82-7.25,3.22-13,8.55-17.25,16.01-4.25,7.46-6.37,17.62-6.37,30.47v84.25h-29.21V116.17Z"/>
        <path class="cls-1" d="M1295.94,270.68c-11.6-7.25-20.51-17.3-26.72-30.15-6.21-12.85-9.32-27.36-9.32-43.52s3.11-30.67,9.32-43.52c6.21-12.85,15.12-22.9,26.72-30.15,11.6-7.25,24.96-10.88,40.08-10.88,20.09,0,36.3,5.34,48.63,16.01,12.32,10.68,19.73,25.13,22.22,43.37h-30.14c-2.28-10.36-6.94-18.55-13.98-24.56-7.05-6.01-15.96-9.01-26.72-9.01-9.74,0-18.02,2.49-24.86,7.46-6.83,4.97-12.02,11.87-15.54,20.67-3.52,8.81-5.28,19.02-5.28,30.62s1.76,21.81,5.28,30.62c3.52,8.81,8.7,15.7,15.54,20.67,6.84,4.97,15.12,7.46,24.86,7.46,10.77,0,19.73-3.05,26.88-9.17,7.15-6.11,11.75-14.56,13.83-25.34h30.14c-2.28,18.03-9.84,32.59-22.68,43.68-12.85,11.09-28.9,16.63-48.16,16.63-15.12,0-28.48-3.63-40.08-10.88Z"/>
        <path class="cls-1" d="M1452.11,270.68c-11.6-7.25-20.56-17.3-26.88-30.15-6.32-12.85-9.48-27.36-9.48-43.52s3.16-30.67,9.48-43.52c6.32-12.85,15.27-22.9,26.88-30.15,11.6-7.25,25.06-10.88,40.4-10.88s28.79,3.63,40.39,10.88c11.6,7.26,20.51,17.36,26.72,30.31,6.22,12.95,9.32,27.72,9.32,44.3v9.33h-122.43c1.03,9.74,3.47,18.24,7.3,25.49,3.83,7.26,9.01,12.96,15.54,17.1,6.52,4.15,14.24,6.22,23.15,6.22,10.35,0,19.26-2.43,26.72-7.3,7.46-4.87,13.05-11.55,16.78-20.05h29.83c-5.18,16.17-14.25,29.02-27.19,38.55-12.95,9.54-28.33,14.3-46.14,14.3-15.33,0-28.8-3.63-40.4-10.88ZM1523.11,149.9c-7.77-7.98-17.98-11.97-30.61-11.97s-22.89,3.99-30.76,11.97c-7.87,7.98-12.85,18.81-14.91,32.49h91.04c-2.07-13.68-6.99-24.5-14.76-32.49Z"/>
        <path class="cls-1" d="M1587.46,116.17h27.96v27.36c6.01-10.77,13.26-18.34,21.75-22.69,8.49-4.35,18.22-6.53,29.21-6.53h12.43v27.98h-13.36c-9.53,0-17.92,1.61-25.17,4.82-7.25,3.22-13,8.55-17.25,16.01-4.25,7.46-6.37,17.62-6.37,30.47v84.25h-29.21V116.17Z"/>
        <path class="cls-1" d="M1732.25,273.94c-5.7-2.59-9.94-6.63-12.74-12.12-2.8-5.49-4.19-12.8-4.19-21.92v-98.86h-29.52v-24.87h29.52v-49.74h29.52v49.74h42.88v24.87h-42.88v95.44c0,5.8,1.29,10,3.88,12.59,2.59,2.59,6.78,3.89,12.58,3.89h26.41v24.87h-32.63c-9.53,0-17.14-1.29-22.84-3.89Z"/>
        <path class="cls-1" d="M1812.85,267.57c-12.43-9.33-19.16-23.52-20.2-42.59h29.21c1.24,11.61,5.23,19.95,11.96,25.03,6.73,5.08,16.52,7.62,29.36,7.62,11.39,0,20.3-2.02,26.72-6.06,6.42-4.04,9.63-9.68,9.63-16.94,0-4.97-.93-8.91-2.79-11.81-1.87-2.9-5.65-5.44-11.34-7.62-5.7-2.18-14.35-4.2-25.95-6.06-15.95-2.69-28.48-6.27-37.6-10.72-9.12-4.46-15.49-9.84-19.11-16.17-3.63-6.32-5.44-14.04-5.44-23.16,0-14.09,5.64-25.38,16.93-33.88,11.29-8.5,26.05-12.75,44.28-12.75,20.92,0,37.29,4.72,49.09,14.14,11.81,9.43,17.91,22.65,18.33,39.64h-28.9c-.42-10.98-4.04-18.7-10.87-23.16-6.84-4.45-16.06-6.68-27.65-6.68-9.32,0-16.99,1.97-22.99,5.91-6.01,3.94-9.01,9.33-9.01,16.17,0,4.97,1.09,8.86,3.26,11.66,2.18,2.8,6.21,5.24,12.12,7.3,5.9,2.07,14.55,4.04,25.94,5.91,15.74,2.7,28.07,6.17,36.98,10.41,8.9,4.25,15.17,9.48,18.8,15.7,3.62,6.22,5.44,13.99,5.44,23.32,0,15.34-6.11,27.31-18.33,35.91-12.22,8.6-28.17,12.9-47.85,12.9-20.93,0-37.6-4.66-50.03-13.99Z"/>
      </g>
    </g>
  </g>
</svg>