<svg width="64" height="72" viewBox="0 0 64 72" fill="none" xmlns="http://www.w3.org/2000/svg">
<g clip-path="url(#clip0_22_70)">
<path fill-rule="evenodd" clip-rule="evenodd" d="M32 7.70939C18.5586 7.70939 7.69353 18.5714 7.69353 31.9318H0C0 14.2791 14.3442 -2.10977e-07 32 0C49.6558 2.10977e-07 64 14.2791 64 31.9318H56.3065C56.3065 18.5714 45.4414 7.70939 32 7.70939ZM21.5998 31.9318C21.5998 26.153 26.2614 21.4838 31.9928 21.4838C37.7243 21.4838 42.3859 26.153 42.3859 31.9318H50.0794C50.0794 21.9123 41.9903 13.7744 31.9928 13.7744C21.9954 13.7744 13.9062 21.9123 13.9062 31.9318H21.5998ZM34.0425 33.7744C34.0425 34.8752 33.1457 35.7891 32.0128 35.7891C30.8798 35.7891 29.983 34.8752 29.983 33.7744L22.2895 33.7744C22.2895 39.1568 26.6546 43.4985 32.0128 43.4985C37.3709 43.4985 41.7361 39.1568 41.7361 33.7744H34.0425ZM28.1729 70.8068C27.5491 55.9332 15.3185 44.0667 0.322021 44.0667V36.3573C14.1519 36.3573 26.1383 44.2665 32.0223 55.8172C37.9064 44.2665 49.8928 36.3573 63.7227 36.3573V44.0667C48.7262 44.0667 36.4956 55.9332 35.8718 70.8068C35.8848 71.203 35.8914 71.6007 35.8914 72H35.8468H28.1978H28.1533C28.1533 71.6007 28.1599 71.2029 28.1729 70.8068Z" fill="#973A30"/>
</g>
<defs>
<clipPath id="clip0_22_70">
<rect width="64" height="72" fill="white"/>
</clipPath>
</defs>
</svg>
