<svg width="32" height="32" viewBox="0 0 32 32" fill="none" xmlns="http://www.w3.org/2000/svg">
<path d="M12 24H20" stroke="#E48F85" stroke-width="2" stroke-linecap="round" stroke-linejoin="round"/>
<path d="M13.3335 29.3333H18.6668" stroke="#E48F85" stroke-width="2" stroke-linecap="round" stroke-linejoin="round"/>
<path d="M20.12 18.6667C20.36 17.3601 20.9867 16.3467 22 15.3334C22.6438 14.7407 23.1549 14.0185 23.4996 13.2142C23.8443 12.4099 24.0148 11.5417 24 10.6667C24 8.54502 23.1571 6.51018 21.6569 5.00989C20.1566 3.5096 18.1217 2.66675 16 2.66675C13.8783 2.66675 11.8434 3.5096 10.3431 5.00989C8.84285 6.51018 8 8.54502 8 10.6667C8 12.0001 8.30667 13.6401 10 15.3334C10.9654 16.2162 11.624 17.3839 11.88 18.6667" stroke="#E48F85" stroke-width="2" stroke-linecap="round" stroke-linejoin="round"/>
</svg>
