<svg width="271" height="196" viewBox="0 0 271 196" fill="none" xmlns="http://www.w3.org/2000/svg">
<g clip-path="url(#clip0_1649_101263)">
<path fill-rule="evenodd" clip-rule="evenodd" d="M178.112 185.419C196.617 185.419 211.576 170.65 211.576 152.483L222.168 152.483C222.168 176.486 202.419 195.902 178.112 195.902C153.804 195.902 134.055 176.486 134.055 152.483L144.647 152.483C144.647 170.65 159.606 185.419 178.112 185.419ZM192.43 152.483C192.43 160.34 186.012 166.689 178.121 166.689C170.231 166.689 163.813 160.34 163.813 152.483L153.22 152.483C153.22 166.107 164.357 177.172 178.121 177.172C191.886 177.172 203.022 166.107 203.022 152.483L192.43 152.483ZM175.299 149.977C175.299 148.48 176.534 147.238 178.094 147.238C179.654 147.238 180.888 148.48 180.888 149.977L191.481 149.977C191.481 142.658 185.471 136.755 178.094 136.755C170.717 136.755 164.707 142.658 164.707 149.977L175.299 149.977ZM183.407 97.9993L172.815 97.9993L172.754 97.9993C172.754 98.5397 172.763 99.0781 172.781 99.6142C171.926 119.842 155.085 135.982 134.436 135.982L134.436 146.465C153.477 146.465 169.979 135.71 178.08 120.004C186.181 135.71 202.684 146.465 221.724 146.465L221.724 135.982C201.075 135.982 184.235 119.842 183.38 99.6142C183.398 99.0781 183.407 98.5397 183.407 97.9993Z" fill="#D7A992"/>
</g>
<g clip-path="url(#clip1_1649_101263)">
<path fill-rule="evenodd" clip-rule="evenodd" d="M260.42 98.0564C260.42 79.5508 245.65 64.5922 227.483 64.5922L227.483 54C251.487 54 270.903 73.7486 270.903 98.0564C270.903 122.364 251.487 142.113 227.483 142.113L227.483 131.521C245.65 131.521 260.42 116.562 260.42 98.0564ZM227.483 83.7378C235.341 83.7378 241.69 90.1558 241.69 98.0465C241.69 105.937 235.341 112.355 227.483 112.355L227.483 122.947C241.107 122.947 252.173 111.811 252.173 98.0465C252.173 84.2824 241.107 73.1456 227.483 73.1456L227.483 83.7378ZM224.977 100.869C223.48 100.869 222.237 99.6338 222.237 98.074C222.237 96.5142 223.48 95.2795 224.977 95.2795L224.977 84.6873C217.658 84.6873 211.754 90.6972 211.754 98.074C211.754 105.451 217.658 111.461 224.977 111.461L224.977 100.869ZM172.999 92.7604L172.999 92.8218L172.999 103.414C173.542 103.414 174.083 103.405 174.622 103.387C194.846 104.246 210.982 121.085 210.982 141.731L221.465 141.731C221.465 122.691 210.71 106.188 195.004 98.0872C210.71 89.9862 221.465 73.4838 221.465 54.4434L210.982 54.4434C210.982 75.0898 194.846 91.9284 174.622 92.7874C174.083 92.7695 173.542 92.7604 172.999 92.7604Z" fill="#D7A992"/>
</g>
<g clip-path="url(#clip2_1649_101263)">
<path fill-rule="evenodd" clip-rule="evenodd" d="M10.4825 98.0569C10.4825 116.562 25.2523 131.521 43.4193 131.521L43.4193 142.113C19.4157 142.113 -0.000488333 122.365 -0.000487756 98.0569C-0.000487179 73.749 19.4157 54.0005 43.4193 54.0005L43.4193 64.5926C25.2523 64.5926 10.4825 79.5513 10.4825 98.0569ZM43.4193 112.376C35.5614 112.376 29.2124 105.958 29.2124 98.0667C29.2124 90.1759 35.5614 83.758 43.4193 83.758L43.4193 73.1658C29.7951 73.1658 18.7294 84.3026 18.7294 98.0667C18.7294 111.831 29.7951 122.968 43.4193 122.968L43.4193 112.376ZM45.9254 95.2447C47.4222 95.2447 48.6649 96.4795 48.6649 98.0393C48.6649 99.599 47.4222 100.834 45.9254 100.834L45.9254 111.426C53.2442 111.426 59.1479 105.416 59.1479 98.0393C59.1479 90.6624 53.2442 84.6526 45.9254 84.6526L45.9254 95.2447ZM97.9033 103.353L97.9034 103.291L97.9034 92.6993C97.3603 92.6993 96.8193 92.7084 96.2805 92.7263C76.056 91.8673 59.9207 75.0287 59.9207 54.3823L49.4377 54.3823C49.4377 73.4227 60.1923 89.9251 75.8985 98.0261C60.1923 106.127 49.4377 122.629 49.4377 141.67L59.9207 141.67C59.9207 121.023 76.056 104.185 96.2805 103.326C96.8193 103.344 97.3603 103.353 97.9033 103.353Z" fill="#D7A992"/>
</g>
<g clip-path="url(#clip3_1649_101263)">
<path fill-rule="evenodd" clip-rule="evenodd" d="M178.056 10.483C159.551 10.483 144.592 25.2528 144.592 43.4198L134 43.4198C134 19.4162 153.749 3.45295e-06 178.056 7.70307e-06C202.364 1.19532e-05 222.113 19.4162 222.113 43.4198L211.521 43.4198C211.521 25.2528 196.562 10.483 178.056 10.483ZM163.738 43.4198C163.738 35.5619 170.156 29.2129 178.047 29.2129C185.937 29.2129 192.355 35.5619 192.355 43.4198L202.947 43.4198C202.947 29.7956 191.811 18.7299 178.047 18.7299C164.282 18.7299 153.146 29.7956 153.146 43.4198L163.738 43.4198ZM180.869 45.9253C180.869 47.4221 179.634 48.6648 178.074 48.6648C176.514 48.6648 175.279 47.4221 175.279 45.9253L164.687 45.9253C164.687 53.2441 170.697 59.1478 178.074 59.1478C185.451 59.1478 191.461 53.2441 191.461 45.9253L180.869 45.9253ZM172.76 97.9032L172.821 97.9032L183.413 97.9032C183.413 97.3627 183.404 96.8243 183.386 96.2882C184.241 76.06 201.081 59.9205 221.73 59.9205L221.73 49.4375C202.69 49.4375 186.187 60.1924 178.086 75.8989C169.985 60.1924 153.483 49.4375 134.442 49.4375L134.442 59.9205C155.091 59.9205 171.932 76.06 172.786 96.2882C172.769 96.8243 172.76 97.3627 172.76 97.9032Z" fill="#D7A992"/>
</g>
<g clip-path="url(#clip4_1649_101263)">
<path fill-rule="evenodd" clip-rule="evenodd" d="M93.0564 10.483C74.5508 10.483 59.5922 25.2528 59.5922 43.4198L49 43.4198C49 19.4162 68.7486 3.45295e-06 93.0564 7.70307e-06C117.364 1.19532e-05 137.113 19.4162 137.113 43.4198L126.521 43.4198C126.521 25.2528 111.562 10.483 93.0564 10.483ZM78.7378 43.4198C78.7378 35.5619 85.1558 29.2129 93.0465 29.2129C100.937 29.2129 107.355 35.5619 107.355 43.4198L117.947 43.4198C117.947 29.7956 106.811 18.7299 93.0465 18.7299C79.2824 18.7299 68.1456 29.7956 68.1456 43.4198L78.7378 43.4198ZM95.8685 45.9253C95.8685 47.4221 94.6338 48.6648 93.074 48.6648C91.5142 48.6648 90.2795 47.4221 90.2795 45.9253L79.6873 45.9253C79.6873 53.2441 85.6972 59.1478 93.074 59.1478C100.451 59.1478 106.461 53.2441 106.461 45.9253L95.8685 45.9253ZM87.7598 97.9032L87.8205 97.9032L98.4127 97.9032C98.4127 97.3627 98.4038 96.8243 98.386 96.2882C99.241 76.06 116.081 59.9205 136.73 59.9205L136.73 49.4375C117.69 49.4375 101.187 60.1924 93.0862 75.8989C84.9854 60.1924 68.4828 49.4375 49.4422 49.4375L49.4422 59.9205C70.0913 59.9205 86.9315 76.06 87.7865 96.2882C87.7687 96.8243 87.7598 97.3627 87.7598 97.9032Z" fill="#D7A992"/>
</g>
<g clip-path="url(#clip5_1649_101263)">
<path fill-rule="evenodd" clip-rule="evenodd" d="M93.0569 185.419C111.562 185.419 126.521 170.65 126.521 152.483L137.113 152.483C137.113 176.486 117.365 195.902 93.0569 195.902C68.749 195.902 49.0005 176.486 49.0005 152.483L59.5926 152.483C59.5926 170.65 74.5513 185.419 93.0569 185.419ZM107.376 152.483C107.376 160.34 100.958 166.689 93.0667 166.689C85.1759 166.689 78.758 160.34 78.758 152.483L68.1658 152.483C68.1658 166.107 79.3026 177.172 93.0667 177.172C106.831 177.172 117.968 166.107 117.968 152.483L107.376 152.483ZM90.2447 149.977C90.2447 148.48 91.4795 147.238 93.0393 147.238C94.599 147.238 95.8338 148.48 95.8338 149.977L106.426 149.977C106.426 142.658 100.416 136.755 93.0393 136.755C85.6624 136.755 79.6526 142.658 79.6526 149.977L90.2447 149.977ZM98.3521 97.9993L87.7599 97.9993L87.6992 97.9993C87.6992 98.5397 87.7081 99.0781 87.7258 99.6142C86.8709 119.842 70.0306 135.982 49.3815 135.982L49.3815 146.465C68.4222 146.465 84.9248 135.71 93.0256 120.004C101.126 135.71 117.629 146.465 136.67 146.465L136.67 135.982C116.021 135.982 99.1803 119.842 98.3254 99.6142C98.3431 99.0781 98.3521 98.5397 98.3521 97.9993Z" fill="#D7A992"/>
</g>
<defs>
<clipPath id="clip0_1649_101263">
<rect width="88.1128" height="97.9031" fill="white" transform="translate(222.168 195.902) rotate(180)"/>
</clipPath>
<clipPath id="clip1_1649_101263">
<rect width="88.1128" height="97.9031" fill="white" transform="translate(270.902 54) rotate(90)"/>
</clipPath>
<clipPath id="clip2_1649_101263">
<rect width="88.1128" height="97.9031" fill="white" transform="translate(0 142.113) rotate(-90)"/>
</clipPath>
<clipPath id="clip3_1649_101263">
<rect width="88.1128" height="97.9031" fill="white" transform="translate(134)"/>
</clipPath>
<clipPath id="clip4_1649_101263">
<rect width="88.1128" height="97.9031" fill="white" transform="translate(49)"/>
</clipPath>
<clipPath id="clip5_1649_101263">
<rect width="88.1128" height="97.9031" fill="white" transform="translate(137.113 195.902) rotate(180)"/>
</clipPath>
</defs>
</svg>
