<svg width="161" height="159" viewBox="0 0 161 159" fill="none" xmlns="http://www.w3.org/2000/svg">
<path d="M43.8305 93.0385C43.2757 92.8604 42.7962 92.4357 42.399 91.7713C40.3372 88.3396 38.2344 84.9765 36.0905 81.6681C35.8576 81.312 36.111 80.8394 36.5357 80.8394H54.1597C54.5159 80.8394 54.7419 81.2229 54.5707 81.538C53.0295 84.3532 51.3514 87.141 49.5294 89.8877C47.9677 92.2439 47.3992 94.1961 43.8305 93.0385Z" fill="#973A30"/>
<path d="M64.7972 91.0043C62.6396 87.9836 60.7697 84.7712 59.1806 81.3601C59.0367 81.0519 59.1326 80.8943 59.482 80.8875L76.7224 80.8327C77.2841 80.8258 77.4279 81.0724 77.1607 81.5724C75.4415 84.689 73.5236 87.8466 71.4071 91.0523C69.2563 94.3127 66.948 94.025 64.7972 91.0043Z" fill="#973A30"/>
<path d="M81.7361 80.8869C81.4553 80.8869 81.3525 81.0239 81.4347 81.2978L84.4211 86.5309C85.6129 89.1954 89.6199 97.182 93.3598 91.4421C95.5243 88.12 97.6202 84.7843 99.6409 81.4211C99.8053 81.1608 99.6066 80.8184 99.2984 80.8184L81.7361 80.8869Z" fill="#973A30"/>
<path d="M115.772 91.7644C114.745 93.4494 111.477 94.2303 110.094 92.0452C107.881 88.5519 105.833 85.0655 103.936 81.5791C103.682 81.1201 103.819 80.8873 104.347 80.8873L121.895 80.8599C122.238 80.8599 122.45 81.2434 122.259 81.5311C120.06 84.8737 117.895 88.2848 115.772 91.7644Z" fill="#973A30"/>
<path fill-rule="evenodd" clip-rule="evenodd" d="M137.225 63.6742C169.075 65.3934 167.479 113.93 137.074 114.258C136.841 114.265 136.725 114.382 136.718 114.615C136.686 116.957 136.742 119.389 136.798 121.848C136.91 126.708 137.024 131.672 136.464 136.252C136.43 136.526 136.273 136.663 135.999 136.663H128.272C127.985 136.663 127.848 136.52 127.855 136.232C127.916 134.41 128.012 128.999 126.382 127.951C123.676 126.218 118.217 123.17 109.998 118.807C109.751 118.676 109.628 118.752 109.628 119.033V136.177C109.628 136.54 109.45 136.718 109.087 136.711L97.7438 136.533C97.504 136.526 97.3123 136.335 97.3123 136.095C97.3028 134.632 97.3451 133.106 97.3882 131.554C97.6583 121.811 97.9567 111.049 85.6611 108.361C79.0855 106.929 69.1947 107.19 63.8999 111.258C57.8677 115.904 58.1128 123.909 58.3729 132.406C58.4108 133.644 58.4491 134.893 58.4682 136.143C58.4751 136.424 58.3312 136.567 58.0504 136.574L47.3376 136.704C46.9883 136.704 46.8171 136.533 46.8102 136.191L46.7143 119.067C46.7143 118.882 46.5225 118.765 46.3582 118.854C41.0086 121.711 35.8235 124.444 30.8164 127.04C29.9876 127.471 29.289 128.06 28.7273 128.807C28.6657 128.896 28.6314 128.999 28.6246 129.108L28.3917 136.287C28.3848 136.554 28.2478 136.684 27.9807 136.684L19.5283 136.615C19.2064 136.615 19.042 136.451 19.042 136.122V112.882C19.042 112.683 18.9598 112.525 18.7886 112.416C11.1102 107.443 9.206 99.888 7.80184 91.4424C7.74019 91.0588 7.41141 90.778 7.02783 90.7643L1.00016 90.5451C0.719325 90.5314 0.493302 90.2985 0.500152 90.0177L0.671391 77.2706C0.671391 76.9966 0.952245 76.8117 1.20568 76.9076C6.03464 78.7501 9.26761 81.7776 11.1033 86.6751C11.5907 87.9764 12.038 89.2497 12.4778 90.5015L12.4779 90.5016C14.0033 94.8438 15.4385 98.9289 18.1447 103.039C18.3228 103.306 18.4255 103.279 18.4598 102.957C19.2983 94.8019 19.1984 86.3316 19.1004 78.0192C19.0759 75.9422 19.0516 73.8751 19.042 71.8252C18.967 64.3513 19.7323 61.7336 20.1242 61.359C24.9183 55.4343 30.7576 55.2675 37.3917 55.078H37.3919C38.7955 55.0379 40.2348 54.9968 41.7073 54.8999C41.9333 54.8862 42.1251 54.7903 42.2689 54.6122C43.4402 53.1806 42.3032 51.4956 40.8922 50.7216C39.5291 49.9819 38.6866 48.8448 38.3647 47.3105C36.8235 40.0089 42.6731 34.8785 49.4131 34.0703C52.2625 33.7278 55.3791 33.5223 58.7696 33.4607C59.0573 33.4538 59.2696 33.1798 59.2011 32.899C57.9819 27.7755 57.8655 23.474 61.8999 19.5697C62.8106 18.6866 64.0312 17.7703 65.2573 16.85C66.4563 15.9499 67.6605 15.0459 68.5851 14.1654C72.8592 10.1036 74.3045 6.32258 76.1539 0.438785C76.2224 0.219598 76.4142 0.0689126 76.6333 0.0483638C77.7704 -0.05438 80.7294 -0.136574 81.1472 1.39773C82.3733 5.95956 84.5925 9.90492 87.7913 13.2407C88.8629 14.3557 90.1964 15.3271 91.5467 16.3107L91.5468 16.3107C93.1742 17.4962 94.8259 18.6993 96.0725 20.193C99.2096 23.9534 99.1068 28.9194 97.9013 33.1319C97.7575 33.6456 97.9492 33.8853 98.4767 33.8511C104.306 33.4675 111.806 33.6319 114.56 39.9609C117.06 45.694 115.436 49.8791 109.689 52.5025C109.484 52.5984 109.354 52.8107 109.368 53.0368L109.45 54.482C109.47 54.804 109.635 54.9752 109.957 54.9958C111.763 55.0907 113.647 55.0765 115.552 55.0621C123.677 55.0007 132.179 54.9365 136.691 63.3317C136.807 63.544 136.985 63.6605 137.225 63.6742ZM118.827 9.30865C120.197 9.30865 121.313 8.19217 121.313 6.82225C121.313 5.45233 120.197 4.33584 118.827 4.33584C117.457 4.33584 116.34 5.45233 116.34 6.82225C116.34 8.19217 117.457 9.30865 118.827 9.30865ZM43.6525 8.17191C43.6525 9.45963 42.6046 10.5076 41.3168 10.5076C40.0291 10.5076 38.9811 9.45963 38.9811 8.17191C38.9811 6.88419 40.0291 5.8362 41.3168 5.8362C42.6046 5.8362 43.6525 6.88419 43.6525 8.17191ZM15.1652 29.1657C16.4735 25.3779 18.1996 23.2888 21.2956 20.7887C21.46 20.6517 21.4805 20.3982 21.3367 20.2407C20.9215 19.7807 20.4771 19.3486 20.0355 18.9191C19.0566 17.9672 18.0914 17.0285 17.4872 15.8296C16.8502 14.5624 16.2406 13.1651 15.6515 11.6376C15.4255 11.0485 14.5762 11.0759 14.3912 11.6787C13.3433 15.0829 11.439 17.8913 8.67181 20.0969C8.29508 20.3982 8.33617 20.9804 8.74715 21.2339C12.1514 23.3162 13.2816 25.3642 14.3022 29.1383C14.4186 29.5698 15.0214 29.5904 15.1652 29.1657ZM142.239 11.9458C142.287 11.7404 142.437 11.576 142.636 11.5075C142.876 11.4253 143.095 11.4664 143.287 11.6308C143.403 11.7335 143.478 11.8842 143.526 12.0828C144.294 15.5145 146.109 18.1516 148.972 19.9941C149.472 20.316 149.438 21.0558 148.917 21.3366C145.704 23.0932 144.756 25.232 143.433 28.2165C143.306 28.5022 143.176 28.7956 143.04 29.0972C142.889 29.4397 142.383 29.3986 142.293 29.0287C141.45 25.5429 140.319 24.3759 138.314 22.3058L138.313 22.3053C137.958 21.939 137.576 21.5444 137.163 21.1037C136.827 20.7476 136.841 20.1859 137.197 19.8503L137.277 19.7738C140.162 17.017 141.207 16.0182 142.239 11.9458ZM116.895 20.0697C116.669 21.6245 117.662 23.0561 119.115 23.2684C120.567 23.4808 121.93 22.3917 122.156 20.8368C122.382 19.282 121.389 17.8504 119.937 17.6381C118.484 17.4257 117.121 18.5148 116.895 20.0697ZM42.1663 21.0902C42.1663 22.6587 40.8991 23.9259 39.3305 23.9259C37.762 23.9259 36.4948 22.6587 36.4948 21.0902C36.4948 19.5216 37.762 18.2544 39.3305 18.2544C40.8991 18.2544 42.1663 19.5216 42.1663 21.0902ZM22.3984 48.0846C22.6245 48.3038 22.9875 48.297 23.2135 48.071L26.1999 45.016C26.426 44.79 26.4191 44.427 26.1931 44.2078L23.7067 41.7693C22.9532 41.0364 21.7819 41.0159 21.0833 41.7282L19.8161 43.0228C19.1175 43.7352 19.1586 44.9133 19.912 45.6462L22.3984 48.0846ZM134.334 47.0431C133.67 47.8377 132.485 47.9473 131.69 47.2828L130.471 46.2623C129.677 45.5979 129.567 44.4129 130.231 43.6183L131.389 42.2279C132.053 41.4333 133.238 41.3237 134.033 41.9881L135.252 43.0087C136.047 43.6731 136.156 44.8581 135.492 45.6527L134.334 47.0431ZM57.708 147.225C59.4752 147.225 60.9067 145.787 60.9067 144.013V143.684C60.9067 141.917 59.4683 140.485 57.6943 140.485L19.9942 140.554C18.227 140.554 16.7954 141.992 16.7954 143.766V144.095C16.7954 145.862 18.2338 147.294 20.0078 147.294L57.708 147.225ZM140.054 144.061C140.054 145.753 138.677 147.129 136.985 147.129H97.463C95.7711 147.129 94.3944 145.753 94.3944 144.061V143.677C94.3944 141.985 95.7711 140.609 97.463 140.609H136.985C138.677 140.609 140.054 141.985 140.054 143.677V144.061ZM69.9961 154.678C69.8385 156.384 70.9619 157.877 72.5099 158.021C74.0579 158.164 75.4415 156.904 75.599 155.199C75.7566 153.493 74.6333 152 73.0853 151.856C71.5372 151.712 70.1536 152.972 69.9961 154.678ZM86.2571 154.924C86.2571 156.541 84.942 157.856 83.3255 157.856C81.709 157.856 80.3939 156.541 80.3939 154.924C80.3939 153.308 81.709 151.993 83.3255 151.993C84.942 151.993 86.2571 153.308 86.2571 154.924ZM62.4959 158.047C64.1398 158.047 65.4754 156.712 65.4754 155.068C65.4754 153.424 64.1398 152.088 62.4959 152.088C60.852 152.088 59.5163 153.424 59.5163 155.068C59.5163 156.712 60.852 158.047 62.4959 158.047ZM96.5998 154.904C96.5998 156.527 95.2779 157.849 93.6545 157.849C92.0312 157.849 90.7092 156.527 90.7092 154.904C90.7092 153.281 92.0312 151.959 93.6545 151.959C95.2779 151.959 96.5998 153.281 96.5998 154.904ZM85.9762 45.8452L85.7708 49.9138C85.7434 50.4824 86.1817 50.955 86.7502 50.9687L103.429 51.3043C103.641 51.3112 103.806 51.4824 103.806 51.6947V54.2907C103.806 54.8592 103.525 55.1401 102.956 55.1401L48.5844 55.1606C48.2967 55.1606 48.1528 55.0168 48.1528 54.7291V52.0509C48.1528 51.7701 48.2967 51.6057 48.5775 51.5714C50.331 51.3454 51.7146 51.229 52.7352 51.2358C61.4821 51.2701 70.2359 51.2153 78.9897 51.0646C79.2431 51.0577 79.4554 50.8865 79.5171 50.6399C80.8596 45.3452 78.9349 44.4068 74.0237 44.3862C71.4772 44.3757 68.876 44.423 66.256 44.4708C60.3772 44.5778 54.4038 44.6866 48.7419 44.1465C48.4884 44.1259 48.3994 43.9889 48.4747 43.7492C49.5887 40.0617 54.3554 40.1875 57.6287 40.2738L57.6291 40.2738C58.1193 40.2868 58.5761 40.2988 58.982 40.297C70.4414 40.2422 81.9008 40.2354 93.3601 40.2833C96.2712 40.2902 99.1686 40.5025 102.052 40.9135C103.792 41.1601 104.751 42.0163 104.429 43.804C104.381 44.0574 104.23 44.1876 103.977 44.1876L87.4284 44.441C86.5037 44.4547 86.0242 44.9205 85.9762 45.8452ZM128.807 67.339C96.3466 67.3048 63.8795 67.3048 31.4125 67.3527C29.5768 67.3596 27.7205 67.6541 25.8506 68.2432L24.8232 68.5103C24.5423 68.5856 24.3985 68.476 24.3916 68.1884L24.3368 66.1746C24.33 65.928 24.4122 65.7157 24.5903 65.5444C28.6247 61.6297 34.333 61.748 39.6581 61.8584H39.6584H39.6587L39.659 61.8584C40.4272 61.8744 41.1874 61.8901 41.9334 61.8936C67.6399 62.0237 93.3396 62.0511 119.046 61.9758C123.409 61.9621 128.327 62.421 130.649 66.9075C130.766 67.1404 130.711 67.3116 130.471 67.4281C130.06 67.6198 129.505 67.5924 128.807 67.339ZM136.581 70.3662C136.519 70.3662 136.464 70.421 136.464 70.4827L136.533 107.402C136.533 107.47 136.581 107.518 136.649 107.518H136.677C145.78 107.505 153.15 99.4496 153.13 89.5245V88.3053C153.109 78.3802 145.718 70.3525 136.608 70.3662H136.581ZM38.5361 76.5518H107.916L123.649 76.7846C123.889 76.7846 124.094 76.8737 124.259 77.0586C128.197 81.4218 131.533 91.2989 133.129 96.8608C133.238 97.2444 132.958 97.6211 132.56 97.6348C112.9 98.0611 93.2122 97.968 73.5282 97.8749H73.5282H73.5274H73.5265H73.5244H73.5223H73.5202C62.2162 97.8214 50.9136 97.7679 39.6183 97.8129C38.4661 97.8173 37.0165 97.8466 35.4127 97.879C32.0396 97.9473 27.984 98.0293 24.5766 97.9225C24.3369 97.9156 24.2067 97.7923 24.1999 97.5526C24.1725 96.6553 24.2684 95.9361 24.4876 95.3813C26.9671 89.1345 29.8645 83.0863 33.1865 77.2436C33.303 77.0312 33.4879 76.9216 33.7345 76.9011L38.5361 76.5518ZM130.56 112.943C130.656 112.827 130.636 112.656 130.519 112.56L123.204 106.683C123.087 106.587 122.916 106.607 122.82 106.724L122.471 107.155C120.889 109.121 121.293 112.073 123.375 113.745L123.587 113.916C125.663 115.587 128.629 115.348 130.211 113.382L130.56 112.943ZM30.8028 106.909C30.9261 106.799 31.1042 106.813 31.2138 106.93L31.6522 107.43C33.2002 109.19 32.8577 112.019 30.885 113.759L30.7686 113.861C28.7959 115.594 25.9465 115.581 24.3985 113.827L23.9601 113.327C23.8505 113.211 23.8642 113.026 23.9807 112.923L30.8028 106.909ZM92.5 32.9996H89.4999H64.4999C60.8999 32.9996 63.4999 23.4996 68.4999 20.4996C73.1282 17.7226 74.3773 14.1938 75.4836 11.0684C75.9382 9.78392 76.3688 8.56757 76.9999 7.49956C77.9154 5.66092 78.4694 5.86046 79.4999 7.49956C79.9999 9.3329 82.4999 16.9996 88.9999 20.4996C96.2262 24.3906 95.0001 32.9996 92.5 32.9996ZM74.0001 29.9999H84.5001C84.5001 24.7557 82.2557 21.8988 80.6294 19.8287C79.6198 18.5435 78.8484 17.5616 79.0001 16.4999C80 9.5 75 19 74 22.5C73.7174 23.4893 73.1951 24.5185 72.704 25.486C71.4579 27.9416 70.4133 29.9999 74.0001 29.9999Z" fill="#973A30"/>
</svg>
