<svg width="32" height="32" viewBox="0 0 32 32" fill="none" xmlns="http://www.w3.org/2000/svg">
<path d="M20.2665 29.3333H11.7332C11.0719 29.337 10.4328 29.0948 9.94002 28.6538C9.44725 28.2127 9.13593 27.6043 9.0665 26.9467L6.6665 4H25.3332L22.9198 26.9467C22.8506 27.602 22.5412 28.2086 22.0513 28.6493C21.5613 29.09 20.9255 29.3337 20.2665 29.3333Z" stroke="#E48F85" stroke-width="2" stroke-linecap="round" stroke-linejoin="round"/>
<path d="M8 15.9998C9.15397 15.1344 10.5575 14.6665 12 14.6665C13.4425 14.6665 14.846 15.1344 16 15.9998C17.154 16.8653 18.5575 17.3332 20 17.3332C21.4425 17.3332 22.846 16.8653 24 15.9998" stroke="#E48F85" stroke-width="2" stroke-linecap="round" stroke-linejoin="round"/>
</svg>
