<svg width="161" height="160" viewBox="0 0 161 160" fill="none" xmlns="http://www.w3.org/2000/svg">
<path d="M101.832 29.8418C101.387 29.6256 101.387 28.995 101.832 28.7789C106.041 26.7011 106.72 24.0528 108.564 20.1494C108.66 19.9453 108.954 19.9513 109.044 20.1615C110.635 24.0588 112.017 26.8993 115.764 29.1452C116.058 29.3194 116.034 29.7517 115.722 29.8959C112.089 31.6073 109.855 34.4478 109.02 38.4052C108.936 38.8075 108.359 38.7955 108.287 38.3931C107.549 34.4357 105.399 31.5833 101.832 29.8418Z" fill="#6290A7"/>
<path d="M73.157 35.5707C72.9348 35.4086 72.9048 35.0903 73.091 34.8862L77.1745 30.3703C77.3186 30.2141 77.5648 30.2202 77.6969 30.3823L81.6243 35.0303C81.7925 35.2345 81.7624 35.4026 81.5402 35.5347C79.9068 36.5015 78.7178 37.8707 77.9672 39.6422C77.787 40.0746 77.1865 40.1227 76.9463 39.7203C75.9554 38.0809 74.6883 36.6997 73.157 35.5707Z" fill="#6290A7"/>
<path fill-rule="evenodd" clip-rule="evenodd" d="M43.6265 31.3731C43.408 31.4694 43.2009 31.858 43.0052 32.5392C42.5651 34.0867 41.5916 35.1904 40.0848 35.8474C41.5917 35.1904 42.5652 34.0867 43.0053 32.5391C43.201 31.8581 43.4081 31.4696 43.6265 31.3731ZM38.7536 36.2804C38.7536 36.2804 38.7535 36.2804 38.7535 36.2804C40.6451 35.0013 41.9783 33.3979 42.7409 31.4643C42.8227 31.259 42.8953 30.9961 42.975 30.708C43.1471 30.0855 43.3516 29.3455 43.7498 28.816C44.02 28.4497 44.5965 28.5578 44.7166 28.9962C45.2091 30.7556 46.0678 32.5872 47.2868 34.4908C47.2869 34.4908 47.287 34.4908 47.287 34.4908L51.4366 37.7095C51.6227 37.8537 51.6167 37.9918 51.4246 38.1179C47.5572 40.6941 45.6957 42.0032 44.2364 46.5732C44.0803 47.0536 43.3957 47.0476 43.2576 46.5612C42.0085 42.2255 40.4411 40.526 36.6219 38.274C36.3877 38.1359 36.3816 37.7996 36.6098 37.6555L38.7536 36.2804Z" fill="#6290A7"/>
<path d="M14.439 34.52C14.493 34.2497 14.6431 34.0396 14.8773 33.8834C15.0275 33.7813 15.1656 33.7994 15.2857 33.9375L18.8828 38.087C19.0329 38.2612 19.0209 38.4233 18.8407 38.5735C17.4775 39.6724 16.3786 41.0056 15.5499 42.5669C15.4478 42.7591 15.1836 42.7831 15.0455 42.615L11.6225 38.4233C11.5024 38.2732 11.5024 38.063 11.6286 37.9189L14.2048 34.9824C14.3189 34.8503 14.3969 34.6941 14.439 34.52Z" fill="#6290A7"/>
<path d="M145.298 34.9642L148.216 39.6182C148.282 39.7203 148.276 39.8464 148.204 39.9425L145.099 43.9179C144.991 44.056 144.781 44.062 144.667 43.9299L141.334 40.0986C141.244 40.0025 141.238 39.8524 141.316 39.7503L144.829 34.9462C144.949 34.784 145.189 34.796 145.298 34.9642Z" fill="#6290A7"/>
<path fill-rule="evenodd" clip-rule="evenodd" d="M106.761 68.5381C107.303 68.4347 107.788 68.1701 108.215 67.747L105.255 67.3447C105.045 67.3147 104.912 67.4048 104.87 67.6149C102.901 77.1271 95.07 83.6847 87.0832 88.0985C86.915 88.1886 86.7168 88.2126 86.5307 88.1706C85.762 87.9844 85.1855 87.7382 84.7952 87.426C79.1924 82.9521 74.8687 75.2235 76.5261 67.9332C78.754 58.1268 85.1135 52.3318 95.5985 50.5482C96.4692 50.3981 97.9705 49.4914 98.3609 48.5065C99.7421 44.9935 94.6437 44.1588 92.1695 44.5971C77.1446 47.2754 65.1823 64.0599 71.0074 79.0908L71.6619 78.6584C71.83 78.5443 71.8841 78.3942 71.8241 78.196C69.416 70.8157 70.3888 64.0058 74.7426 57.7604C78.736 52.0315 83.1858 48.2603 89.8756 46.1705C90.9055 45.8492 92.9277 45.5369 94.5769 45.7554C92.9277 45.537 90.9055 45.8492 89.8756 46.1705C83.1859 48.2603 78.7361 52.0315 74.7426 57.7605C70.3889 64.0058 69.4161 70.8157 71.8241 78.196C71.8842 78.3942 71.8301 78.5443 71.662 78.6584L71.0074 79.0908C72.9531 83.7688 75.9977 87.9064 80.1353 91.4915C89.5934 99.6825 98.9314 106.486 111.158 109.303C117.277 110.708 125.102 111.158 130.615 107.645C136.698 103.76 140.391 98.1632 141.688 90.8489C141.724 90.6628 141.652 90.5367 141.478 90.4646C138.463 89.2215 135.815 87.42 133.539 85.072C133.401 84.9338 133.167 85.0179 133.149 85.2101C132.176 96.5238 114.863 95.9533 116.887 81.703C116.911 81.5169 116.731 81.3728 116.557 81.4448C114.567 82.2477 112.652 82.9079 110.77 83.5569C106.316 85.0925 102.045 86.565 97.4061 89.7139C97.3881 89.726 97.3641 89.732 97.3461 89.726C97.304 89.714 97.25 89.6899 97.1839 89.6599C97.0638 89.6058 97.0518 89.5338 97.1539 89.4497C100.355 86.7594 103.219 83.7508 105.747 80.43C105.765 80.4119 105.783 80.3999 105.813 80.3999H106.036C106.138 80.3999 106.216 80.3519 106.258 80.2618C106.324 80.1279 106.409 79.9601 106.508 79.7632C107.893 77.0274 112.12 68.677 108.215 67.747C107.788 68.1702 107.303 68.4347 106.761 68.5381ZM106.198 68.5878C106.246 68.5882 106.294 68.5874 106.342 68.5855L106.198 68.5878ZM86.5607 89.0113C86.6123 89.0115 86.665 89.0103 86.7187 89.0077C86.665 89.0103 86.6124 89.0115 86.5608 89.0114M86.9668 88.987C90.4513 88.5798 97.5765 83.1783 99.4058 80.6161C99.9099 79.9086 100.427 79.2304 100.941 78.5574C102.52 76.4883 104.061 74.4679 105.063 71.7945C105.216 71.3832 105.286 70.9291 105.358 70.4637C105.438 69.9438 105.52 69.4099 105.723 68.906C105.802 68.7222 105.931 68.6164 106.115 68.5928C105.931 68.6164 105.802 68.7221 105.723 68.906C105.52 69.4098 105.438 69.9438 105.358 70.4637C105.286 70.9291 105.216 71.3832 105.063 71.7945C104.061 74.4679 102.52 76.4883 100.941 78.5573C100.427 79.2304 99.9099 79.9086 99.4058 80.6161C97.5764 83.1783 90.4513 88.5797 86.9668 88.987Z" fill="#6290A7"/>
<path d="M27.8902 52.5414C27.5479 52.8957 26.9835 52.9077 26.6232 52.5654L24.9177 50.926C24.5574 50.5837 24.5514 50.0132 24.8937 49.6589L26.6832 47.7973C27.0255 47.443 27.59 47.431 27.9503 47.7733L29.6558 49.4127C30.0161 49.755 30.0221 50.3255 29.6798 50.6798L27.8902 52.5414Z" fill="#6290A7"/>
<path fill-rule="evenodd" clip-rule="evenodd" d="M137.563 68.5819C134.248 64.8407 130.08 63.0692 125.054 63.2674C124.826 63.2734 124.681 63.1713 124.621 62.9491C124.406 62.1379 124.219 61.3289 124.036 60.5324C123.034 56.1814 122.117 52.2048 117.001 50.2962C113.043 48.8129 109.404 49.7497 106.096 53.1066C105.615 53.5931 105.303 54.0795 105.165 54.5779C105.105 54.7941 105.159 54.9743 105.333 55.1184C106.7 56.2349 108.035 55.5334 109.432 54.7997C110.312 54.3377 111.215 53.863 112.167 53.8212C117.529 53.587 120.7 58.6854 120.754 63.5616C120.754 63.7598 120.664 63.8859 120.478 63.952C116.981 65.1646 115.413 69.0889 113.883 72.9194C112.942 75.273 112.016 77.5912 110.665 79.2231C110.503 79.4212 110.713 79.7035 110.948 79.6014C117.752 76.6949 125.75 73.284 132.326 78.9649C132.894 79.4567 133.488 79.9911 134.095 80.5378C136.729 82.9082 139.618 85.5097 141.814 85.8708C142.012 85.9008 142.126 85.8168 142.151 85.6126C142.787 79.8176 141.652 74.467 138.74 69.5668C142.457 67.9754 144.288 64.8347 144.228 60.1387C144.162 55.0103 141.754 51.5273 137.004 49.6897C135.834 49.2394 134.353 49.0763 132.971 48.9241C132.657 48.8895 132.349 48.8556 132.05 48.8189C131.852 48.7949 131.72 48.6868 131.653 48.5007C131.047 46.7772 130.32 45.1138 129.468 43.5044C128.693 42.0391 126.033 40.4598 124.82 42.2433C124.507 42.7057 124.519 43.3122 124.856 43.7566C127.588 47.4317 129.035 51.5813 129.185 56.1993C129.203 56.8478 129.612 57.4303 130.218 57.6645L132.662 58.8055C132.782 58.9917 132.951 59.1058 133.173 59.1598C133.395 59.2139 133.539 59.1298 133.605 58.9076C133.605 58.9076 134.01 57.833 134.05 57.3943C134.065 57.2208 133.788 56.6612 133.446 55.9705C132.923 54.9145 132.249 53.5522 132.236 52.7944C132.26 52.5962 132.446 52.4581 132.644 52.4881L133.911 52.7043C134.229 52.8074 134.476 52.8778 134.681 52.936C135.119 53.061 135.361 53.1299 135.683 53.3468C135.732 53.3798 135.781 53.4126 135.829 53.4453C137.855 54.8097 139.546 55.9485 139.881 59.5201C140.127 62.1083 139.352 65.129 137.563 68.5819Z" fill="#6290A7"/>
<path d="M88.8424 60.2464C87.125 60.8169 86.5305 61.8978 87.0649 63.4952C88.2239 66.9782 88.1759 69.4283 91.797 71.446C91.9531 71.5361 92.1393 71.5421 92.3074 71.4761L93.3823 71.0497C94.145 71.5721 94.7455 72.2087 95.1899 72.9593C95.31 73.1635 95.304 73.3617 95.1779 73.5598L93.6706 75.8658C93.5325 76.07 93.3403 76.1781 93.0941 76.1901C87.4192 76.4783 82.9634 71.1398 82.9634 65.9513C82.9574 61.2553 85.8098 58.1566 89.9114 56.277C90.3257 56.0908 90.7521 56.5292 90.5419 56.9376L88.8424 60.2464Z" fill="#6290A7"/>
<path d="M88.8428 60.2466C87.7859 65.0507 89.2992 68.6538 93.3827 71.0499L92.3078 71.4762C92.1397 71.5423 91.9535 71.5363 91.7974 71.4462C88.1763 69.4285 88.2243 66.9784 87.0653 63.4954C86.5309 61.898 87.1254 60.8171 88.8428 60.2466Z" fill="#6290A7"/>
<path d="M49.9534 109.813C45.6537 110.768 40.8435 110.828 35.5229 109.987C25.9027 108.468 20.426 97.7606 19.6573 89.0591C19.243 84.3991 19.7834 79.9252 21.2787 75.6376C21.6241 74.6471 22.1704 73.314 22.3145 72.8456C23.7437 68.3417 26.239 66.8881 29.9922 64.3539C37.1143 59.5437 47.2751 59.5377 54.181 65.0324C55.7363 66.2755 57.5139 68.5515 59.5076 71.8603C62.0357 76.0519 64.4318 80.3156 66.7077 84.6513C69.338 89.6656 73.6557 92.9144 77.8714 96.4514C78.0575 96.6076 78.0755 96.7817 77.9254 96.9739C77.451 97.5804 76.7304 98.211 75.7635 98.8715C67.8067 104.294 59.2073 107.939 49.9534 109.813Z" fill="#6290A7"/>
<path d="M29.0796 76.4601C28.8033 76.4541 28.5991 76.2019 28.6472 75.9256C30.3646 66.8338 37.9432 67.2722 45.2394 67.5845C49.3049 67.7586 53.8508 70.9233 53.0161 75.5053C52.9381 75.9497 52.5537 76.274 52.1033 76.286L48.7705 76.37C48.5603 76.376 48.4522 76.268 48.4462 76.0578C48.4102 74.2202 49.0047 69.1098 45.1553 70.5751C44.9452 70.6531 44.8311 70.8092 44.8251 71.0374L44.6329 76.352C44.6269 76.5262 44.5428 76.6102 44.3687 76.6162L39.7147 76.7243C39.4024 76.7303 39.1442 76.4961 39.1142 76.1899L38.6518 70.9774C38.6338 70.7792 38.5317 70.6651 38.3395 70.6231C34.5442 69.8484 34.9346 73.6557 35.2168 76.298C35.2348 76.4961 35.1508 76.5922 34.9526 76.5862L29.0796 76.4601Z" fill="#FBF7F5"/>
<path d="M9.4184 79.0542C9.7607 79.4025 9.76069 79.973 9.40638 80.3213L8.32546 81.3842C7.97716 81.7325 7.40664 81.7265 7.05834 81.3722L5.75523 80.045C5.41294 79.6967 5.41295 79.1262 5.76726 78.7779L6.84818 77.715C7.19648 77.3667 7.76696 77.3727 8.11526 77.727L9.4184 79.0542Z" fill="#6290A7"/>
<path d="M125.757 88.9633C121.457 90.8789 120.004 83.6007 121.121 80.9044C121.289 80.496 121.625 80.1777 122.045 80.0336C129.498 77.4153 131.786 86.273 125.757 88.9633Z" fill="#6290A7"/>
<path d="M27.0315 86.8186C26.6471 86.8186 26.3409 86.5063 26.3529 86.128L26.4069 83.6179C26.4129 83.3777 26.6111 83.1855 26.8573 83.1795C33.3489 83.0954 39.8225 83.1134 46.284 83.2395C50.5837 83.3236 54.0907 82.573 57.9821 81.2999C58.7568 81.0477 59.5615 81.6061 59.5975 82.4228L59.6515 83.5578C59.6635 83.804 59.5554 83.9782 59.3212 84.0803C54.8774 85.9719 51.0341 86.8606 45.9057 86.8366C39.7144 86.8066 33.427 86.8006 27.0315 86.8186Z" fill="#FBF7F5"/>
<path d="M55.4239 92.1575C51.1963 94.1152 51.1182 87.9239 55.1297 87.4975C55.3398 87.4795 55.49 87.5635 55.574 87.7557C56.1385 89.0168 56.2346 90.3079 55.8683 91.6291C55.8022 91.8633 55.6401 92.0554 55.4239 92.1575Z" fill="#FBF7F5"/>
<path d="M36.6157 93.8144C35.5048 94.0126 34.4118 93.1298 34.1836 91.8447C33.9494 90.5536 34.664 89.3466 35.769 89.1484C36.8799 88.9502 37.9729 89.833 38.2011 91.1181C38.4353 92.4032 37.7207 93.6102 36.6157 93.8144Z" fill="#FBF7F5"/>
<path d="M44.1402 93.8936C43.1013 93.5093 42.6269 92.1881 43.0833 90.9331C43.5397 89.684 44.7588 88.9814 45.8037 89.3597C46.8426 89.744 47.317 91.0652 46.8606 92.3202C46.4042 93.5753 45.1851 94.2779 44.1402 93.8936Z" fill="#FBF7F5"/>
<path d="M30.2324 93.4782C30.3044 94.3489 29.6559 95.1176 28.7852 95.1896L28.4729 95.2136C27.6021 95.2857 26.8334 94.6371 26.7614 93.7664L26.5572 91.3103C26.4852 90.4395 27.1337 89.6709 28.0045 89.5988L28.3167 89.5748C29.1875 89.5027 29.9561 90.1513 30.0282 91.022L30.2324 93.4782Z" fill="#FBF7F5"/>
<path d="M34.7723 103.814C32.8747 103.616 31.0491 103.081 31.6737 100.727C31.7217 100.547 31.8598 100.403 32.04 100.349C32.5744 100.193 33.1389 100.133 33.7214 100.169C38.1352 100.421 42.6571 100.625 46.8907 99.8867C53.5565 98.7277 59.7718 96.3196 65.5368 92.6685C65.7349 92.5424 65.9391 92.5244 66.1613 92.6025C67.0981 92.9568 67.7407 93.6413 68.095 94.6442C68.155 94.8244 68.119 94.9805 67.9869 95.1126C60.3303 102.823 45.1973 104.901 34.7723 103.814Z" fill="#FBF7F5"/>
<path fill-rule="evenodd" clip-rule="evenodd" d="M116.341 115.415C119.758 115.469 123.223 115.493 126.73 115.481C125.829 114.742 124.7 114.388 123.349 114.412C107.483 114.676 95.3766 109.193 83.1081 99.8434C82.8679 99.6573 82.5256 99.7173 82.3514 99.9635C81.7569 100.84 81.0003 101.615 80.0815 102.288C69.9928 109.71 58.9973 113.787 46.4706 114.688C48.6204 115.415 50.9144 115.691 53.3465 115.517C54.1079 115.465 54.9131 115.162 55.7692 114.839C56.3985 114.602 57.0553 114.355 57.7423 114.19C65.3928 112.37 72.7492 108.947 79.8052 103.921C80.4598 103.453 81.0903 102.798 81.5947 102.239C82.2073 101.561 83.2462 101.489 83.9548 102.065C86.6031 104.22 89.5165 106.259 92.602 108.046C89.5165 106.259 86.6031 104.221 83.9549 102.065C83.2462 101.489 82.2073 101.561 81.5948 102.24C81.0904 102.798 80.4598 103.453 79.8053 103.921C72.7492 108.947 65.3929 112.37 57.7423 114.19C57.0553 114.355 56.3986 114.603 55.7692 114.839C54.9132 115.162 54.1079 115.465 53.3465 115.517C50.9144 115.691 48.6205 115.415 46.4706 114.688L37.1326 114.844C36.9584 114.85 36.8383 114.928 36.7723 115.091C34.2501 121.042 32.2864 127.173 30.8752 133.478C30.8212 133.701 30.6891 133.833 30.4669 133.887C27.7345 134.511 28.0288 138.289 29.8964 139.327C30.5149 139.676 31.5958 139.85 33.1332 139.85C65.5645 139.856 97.9958 139.85 130.427 139.844L130.489 139.844C132.861 139.844 135.96 137.85 134.302 135.154C133.997 134.659 133.652 134.432 133.322 134.216C132.84 133.899 132.391 133.605 132.152 132.524C130.837 126.572 129.03 120.892 126.73 115.481C123.223 115.493 119.758 115.469 116.341 115.415C115.607 115.403 114.891 115.335 114.183 115.236C114.891 115.335 115.607 115.403 116.341 115.415ZM111.909 114.831C111.701 114.789 111.492 114.746 111.283 114.703C110.542 114.55 109.796 114.397 109.032 114.268C108.998 114.262 108.964 114.256 108.93 114.25C108.964 114.256 108.998 114.262 109.032 114.268C109.796 114.397 110.543 114.55 111.283 114.703C111.492 114.746 111.701 114.789 111.909 114.831Z" fill="#6290A7"/>
<path d="M142.685 119.385C142.018 118.929 141.988 118.436 142.607 117.914C145.603 115.38 147.291 113.782 147.975 109.783C148.023 109.495 148.33 109.332 148.594 109.446C148.672 109.476 148.762 109.549 148.876 109.651C148.96 109.723 149.02 109.819 149.056 109.945C150.089 113.596 152.197 116.478 155.38 118.592C155.554 118.706 155.536 118.971 155.344 119.055C151.056 120.976 150.113 123.577 148.408 127.282C148.3 127.51 148.198 127.51 148.096 127.276C146.588 123.769 146.21 121.787 142.685 119.385Z" fill="#6290A7"/>
<path d="M8.27747 121.757C7.82708 121.48 7.83909 120.82 8.30749 120.568C11.2921 118.952 13.0996 116.454 13.7242 113.085C13.8623 112.34 14.9192 112.316 15.0933 113.055C15.94 116.652 17.7056 118.862 20.5881 121.09C20.7562 121.222 20.7502 121.48 20.576 121.606C17.1111 124.075 16.1322 125.564 14.3847 129.389C14.2586 129.665 13.8502 129.629 13.7782 129.329C12.9975 126.032 11.166 123.504 8.27747 121.757Z" fill="#6290A7"/>
<path d="M105.027 125.048C104.918 124.405 104.54 124.087 103.892 124.093L85.3176 124.111C84.5249 124.111 84.0805 124.507 83.9904 125.294L83.2097 132.056C83.1437 132.65 82.6453 133.101 82.0507 133.113C81.4562 133.125 80.9398 132.692 80.8497 132.104L79.6547 124.417C79.6187 124.177 79.4805 124.057 79.2403 124.057L58.997 124.153C58.7267 124.153 58.4985 124.351 58.4625 124.621L57.4296 132.326C57.3515 132.902 56.8531 133.335 56.2706 133.329C55.6881 133.317 55.2017 132.878 55.1416 132.296L54.3489 124.711C54.3129 124.387 54.0427 124.141 53.7184 124.135L41.7801 124.075C41.5639 124.075 41.4499 123.967 41.4319 123.751C41.3538 122.802 41.4138 120.388 42.765 120.382C68.6833 120.346 94.5715 120.328 120.436 120.328C120.79 120.328 121.09 120.592 121.138 120.94L121.523 123.685C121.547 123.847 121.481 123.925 121.319 123.931L110.515 124.231C109.855 124.249 109.488 124.585 109.41 125.246L108.648 132.074C108.582 132.686 108.071 133.149 107.459 133.167C106.846 133.185 106.312 132.746 106.21 132.14L105.027 125.048Z" fill="#FBF7F5"/>
<path d="M98.499 131.996C98.457 133.125 97.5142 134.008 96.3852 133.966L93.7549 133.875C92.632 133.839 91.7492 132.891 91.7852 131.762L91.8093 131.077C91.8513 129.948 92.7941 129.065 93.9231 129.107L96.5533 129.197C97.6763 129.234 98.5591 130.182 98.523 131.311L98.499 131.996Z" fill="#FBF7F5"/>
<path d="M72.3642 131.941C72.3342 133.052 71.4094 133.923 70.2985 133.899L67.5842 133.821C66.4732 133.785 65.6024 132.86 65.6265 131.755L65.6445 131.154C65.6745 130.044 66.5993 129.173 67.7102 129.197L70.4246 129.275C71.5355 129.311 72.4063 130.236 72.3823 131.341L72.3642 131.941Z" fill="#FBF7F5"/>
<path d="M125.132 132.122C125.138 132.794 124.603 133.353 123.931 133.359L118.971 133.431C118.298 133.437 117.74 132.902 117.734 132.23L117.71 130.68C117.704 130.008 118.238 129.449 118.911 129.443L123.871 129.371C124.543 129.365 125.102 129.9 125.108 130.572L125.132 132.122Z" fill="#FBF7F5"/>
<path d="M45.1009 132.068C45.1009 132.776 44.5184 133.353 43.8098 133.347L39.0657 133.323C38.3571 133.317 37.7866 132.74 37.7866 132.032L37.7926 130.915C37.7986 130.206 38.3691 129.63 39.0837 129.636L43.8278 129.66C44.5364 129.666 45.1069 130.242 45.1069 130.951L45.1009 132.068Z" fill="#FBF7F5"/>
</svg>
