<svg xmlns="http://www.w3.org/2000/svg" fill="none" viewBox="0 0 485 133">
  <g clip-path="url(#a)">
    <path fill="currentColor" fill-rule="evenodd" d="M31 7.278c-12.849 0-23.235 10.255-23.235 22.87H.411C.41 13.48 14.123 0 31 0s30.59 13.48 30.59 30.147h-7.355C54.235 17.533 43.849 7.278 31 7.278Zm-9.942 22.87c0-5.457 4.456-9.865 9.935-9.865s9.935 4.408 9.935 9.864h7.354c0-9.46-7.732-17.143-17.289-17.143-9.557 0-17.29 7.684-17.29 17.143h7.355Zm11.895 1.74c0 1.038-.858 1.901-1.94 1.901-1.084 0-1.941-.863-1.941-1.902h-7.354c0 5.082 4.172 9.18 9.294 9.18 5.122 0 9.295-4.098 9.295-9.18h-7.355Zm-5.63 36.088h7.397c0-.375-.006-.748-.018-1.12.593-14.046 12.286-25.252 26.623-25.252v-7.278c-13.22 0-24.678 7.467-30.303 18.373C25.398 41.793 13.94 34.326.72 34.326v7.278c14.337 0 26.03 11.206 26.623 25.251-.012.373-.018.746-.018 1.121Z" clip-rule="evenodd"/>
  </g>
  <g clip-path="url(#b)">
    <path fill="currentColor" fill-rule="evenodd" d="M212.454 125.27c12.849 0 23.235-10.255 23.235-22.869h7.354c0 16.667-13.711 30.148-30.589 30.148-16.877 0-30.589-13.482-30.589-30.148h7.354c0 12.614 10.386 22.869 23.235 22.869Zm9.942-22.869c0 5.456-4.456 9.864-9.935 9.864s-9.935-4.408-9.935-9.864h-7.354c0 9.46 7.732 17.143 17.289 17.143 9.557 0 17.289-7.683 17.289-17.143h-7.354Zm-11.894-1.74c0-1.039.857-1.902 1.94-1.902s1.94.863 1.94 1.902h7.355c0-5.081-4.173-9.18-9.295-9.18s-9.295 4.099-9.295 9.18h7.355Zm5.628-36.09c0 .376-.006.75-.018 1.122.593 14.045 12.286 25.251 26.623 25.251v7.278c-13.22 0-24.678-7.467-30.303-18.372-5.625 10.905-17.083 18.373-30.303 18.373v-7.279c14.337 0 26.03-11.206 26.623-25.25a34.806 34.806 0 0 1-.018-1.122h7.396Z" clip-rule="evenodd"/>
  </g>
  <g clip-path="url(#c)">
    <path fill="currentColor" fill-rule="evenodd" d="M272.569 125.27c12.849 0 23.235-10.255 23.235-22.869h7.355c0 16.667-13.712 30.148-30.59 30.148-16.877 0-30.589-13.482-30.589-30.148h7.354c0 12.614 10.387 22.869 23.235 22.869Zm9.942-22.869c0 5.456-4.456 9.864-9.935 9.864s-9.935-4.408-9.935-9.864h-7.354c0 9.46 7.732 17.143 17.289 17.143 9.557 0 17.289-7.683 17.289-17.143h-7.354Zm-11.894-1.74c0-1.039.857-1.902 1.94-1.902s1.94.863 1.94 1.902h7.355c0-5.081-4.173-9.18-9.295-9.18s-9.295 4.099-9.295 9.18h7.355Zm5.628-36.09c0 .376-.006.75-.018 1.122.594 14.045 12.286 25.251 26.623 25.251v7.278c-13.22 0-24.678-7.467-30.303-18.372-5.624 10.905-17.083 18.373-30.303 18.373v-7.279c14.337 0 26.03-11.206 26.623-25.25a34.806 34.806 0 0 1-.018-1.122h7.396Z" clip-rule="evenodd"/>
  </g>
  <g clip-path="url(#d)">
    <path fill="currentColor" fill-rule="evenodd" d="M393 125.27c12.849 0 23.235-10.255 23.235-22.869h7.354c0 16.667-13.711 30.148-30.589 30.148-16.877 0-30.589-13.482-30.589-30.148h7.354c0 12.614 10.386 22.869 23.235 22.869Zm9.942-22.869c0 5.456-4.456 9.864-9.935 9.864s-9.935-4.408-9.935-9.864h-7.354c0 9.46 7.732 17.143 17.289 17.143 9.557 0 17.289-7.683 17.289-17.143h-7.354Zm-11.894-1.74c0-1.039.857-1.902 1.94-1.902s1.94.863 1.94 1.902h7.354c0-5.081-4.172-9.18-9.294-9.18-5.122 0-9.295 4.099-9.295 9.18h7.355Zm5.628-36.09c0 .376-.006.75-.018 1.122.593 14.045 12.286 25.251 26.623 25.251v7.278c-13.22 0-24.679-7.467-30.303-18.372-5.625 10.905-17.083 18.373-30.303 18.373v-7.279c14.337 0 26.03-11.206 26.623-25.25a34.806 34.806 0 0 1-.018-1.122h7.396Z" clip-rule="evenodd"/>
  </g>
  <g clip-path="url(#e)">
    <path fill="currentColor" fill-rule="evenodd" d="M454 125.27c12.849 0 23.235-10.255 23.235-22.869h7.354c0 16.667-13.711 30.148-30.589 30.148-16.877 0-30.589-13.482-30.589-30.148h7.354c0 12.614 10.386 22.869 23.235 22.869Zm9.942-22.869c0 5.456-4.456 9.864-9.935 9.864s-9.935-4.408-9.935-9.864h-7.354c0 9.46 7.732 17.143 17.289 17.143 9.557 0 17.289-7.683 17.289-17.143h-7.354Zm-11.894-1.74c0-1.039.857-1.902 1.94-1.902s1.94.863 1.94 1.902h7.354c0-5.081-4.172-9.18-9.294-9.18-5.122 0-9.295 4.099-9.295 9.18h7.355Zm5.628-36.09c0 .376-.006.75-.018 1.122.593 14.045 12.286 25.251 26.623 25.251v7.278c-13.22 0-24.679-7.467-30.303-18.372-5.625 10.905-17.083 18.373-30.303 18.373v-7.279c14.337 0 26.03-11.206 26.623-25.25a34.806 34.806 0 0 1-.018-1.122h7.396Z" clip-rule="evenodd"/>
  </g>
  <g clip-path="url(#f)">
    <path fill="currentColor" fill-rule="evenodd" d="M333.569 125.27c12.849 0 23.235-10.255 23.235-22.869h7.355c0 16.667-13.712 30.148-30.59 30.148-16.877 0-30.589-13.482-30.589-30.148h7.354c0 12.614 10.387 22.869 23.235 22.869Zm9.942-22.869c0 5.456-4.456 9.864-9.935 9.864s-9.935-4.408-9.935-9.864h-7.354c0 9.46 7.732 17.143 17.289 17.143 9.557 0 17.289-7.683 17.289-17.143h-7.354Zm-11.894-1.74c0-1.039.857-1.902 1.94-1.902s1.94.863 1.94 1.902h7.355c0-5.081-4.173-9.18-9.295-9.18s-9.295 4.099-9.295 9.18h7.355Zm5.628-36.09c0 .376-.006.75-.018 1.122.594 14.045 12.286 25.251 26.623 25.251v7.278c-13.22 0-24.678-7.467-30.303-18.372-5.624 10.905-17.083 18.373-30.303 18.373v-7.279c14.337 0 26.03-11.206 26.623-25.25a34.806 34.806 0 0 1-.018-1.122h7.396Z" clip-rule="evenodd"/>
  </g>
  <g clip-path="url(#g)">
    <path fill="currentColor" fill-rule="evenodd" d="M91.484 7.278c-12.849 0-23.235 10.255-23.235 22.87h-7.354C60.895 13.48 74.607 0 91.485 0c16.877 0 30.589 13.48 30.589 30.147h-7.355c0-12.614-10.386-22.869-23.235-22.869Zm-9.941 22.87c0-5.457 4.456-9.865 9.934-9.865 5.48 0 9.935 4.408 9.935 9.864h7.355c0-9.46-7.733-17.143-17.29-17.143-9.556 0-17.289 7.684-17.289 17.143h7.355Zm11.894 1.74c0 1.038-.857 1.901-1.94 1.901s-1.94-.863-1.94-1.902h-7.355c0 5.082 4.173 9.18 9.295 9.18 5.121 0 9.294-4.098 9.294-9.18h-7.354Zm-5.629 36.088h7.397c0-.375-.006-.748-.019-1.12.594-14.046 12.286-25.252 26.624-25.252v-7.278c-13.221 0-24.679 7.467-30.303 18.373-5.625-10.906-17.083-18.373-30.304-18.373v7.278c14.338 0 26.03 11.206 26.624 25.251-.013.373-.019.746-.019 1.121Z" clip-rule="evenodd"/>
  </g>
  <g clip-path="url(#h)">
    <path fill="currentColor" fill-rule="evenodd" d="M151.97 125.27c12.849 0 23.235-10.255 23.235-22.869h7.354c0 16.667-13.712 30.148-30.589 30.148-16.878 0-30.59-13.482-30.59-30.148h7.355c0 12.614 10.386 22.869 23.235 22.869Zm9.942-22.869c0 5.456-4.457 9.864-9.935 9.864-5.479 0-9.935-4.408-9.935-9.864h-7.355c0 9.46 7.733 17.143 17.29 17.143 9.556 0 17.289-7.683 17.289-17.143h-7.354Zm-11.895-1.74c0-1.039.858-1.902 1.941-1.902 1.083 0 1.94.863 1.94 1.902h7.354c0-5.081-4.173-9.18-9.294-9.18-5.122 0-9.295 4.099-9.295 9.18h7.354Zm5.629-36.09c0 .376-.006.75-.019 1.122.594 14.045 12.286 25.251 26.624 25.251v7.278c-13.221 0-24.679-7.467-30.303-18.372-5.625 10.905-17.083 18.373-30.303 18.373v-7.279c14.337 0 26.029-11.206 26.623-25.25a34.8 34.8 0 0 1-.019-1.122h7.397Z" clip-rule="evenodd"/>
  </g>
  <g clip-path="url(#i)">
    <path fill="currentColor" fill-rule="evenodd" d="M151.969 7.278c-12.849 0-23.235 10.255-23.235 22.87h-7.355C121.379 13.48 135.091 0 151.969 0c16.877 0 30.589 13.48 30.589 30.147h-7.354c0-12.614-10.386-22.869-23.235-22.869Zm-9.942 22.87c0-5.457 4.456-9.865 9.935-9.865s9.935 4.408 9.935 9.864h7.354c0-9.46-7.732-17.143-17.289-17.143-9.557 0-17.289 7.684-17.289 17.143h7.354Zm11.894 1.74c0 1.038-.857 1.901-1.94 1.901s-1.94-.863-1.94-1.902h-7.355c0 5.082 4.173 9.18 9.295 9.18s9.295-4.098 9.295-9.18h-7.355Zm-5.628 36.088h7.396c0-.375-.006-.748-.018-1.12.593-14.046 12.286-25.252 26.623-25.252v-7.278c-13.22 0-24.678 7.467-30.303 18.373-5.625-10.906-17.083-18.373-30.303-18.373v7.278c14.337 0 26.03 11.206 26.623 25.251-.012.373-.018.746-.018 1.121Z" clip-rule="evenodd"/>
  </g>
  <g clip-path="url(#j)">
    <path fill="currentColor" fill-rule="evenodd" d="M91.485 125.27c12.849 0 23.235-10.255 23.235-22.869h7.355c0 16.667-13.712 30.148-30.59 30.148-16.877 0-30.589-13.482-30.589-30.148h7.355c0 12.614 10.385 22.869 23.234 22.869Zm9.942-22.869c0 5.456-4.456 9.864-9.935 9.864s-9.935-4.408-9.935-9.864h-7.354c0 9.46 7.733 17.143 17.29 17.143 9.556 0 17.289-7.683 17.289-17.143h-7.355Zm-11.894-1.74c0-1.039.857-1.902 1.94-1.902s1.94.863 1.94 1.902h7.355c0-5.081-4.173-9.18-9.295-9.18s-9.294 4.099-9.294 9.18h7.354Zm5.629-36.09c0 .376-.007.75-.02 1.122.595 14.045 12.287 25.251 26.624 25.251v7.278c-13.22 0-24.678-7.467-30.303-18.372C85.84 90.755 74.381 98.223 61.16 98.223v-7.279c14.337 0 26.03-11.206 26.623-25.25a33.958 33.958 0 0 1-.018-1.122h7.397Z" clip-rule="evenodd"/>
  </g>
  <g clip-path="url(#k)">
    <path fill="currentColor" fill-rule="evenodd" d="M212.454 7.278c-12.849 0-23.235 10.255-23.235 22.87h-7.354C181.865 13.48 195.577 0 212.454 0c16.878 0 30.589 13.48 30.589 30.147h-7.354c0-12.614-10.386-22.869-23.235-22.869Zm-9.942 22.87c0-5.457 4.456-9.865 9.935-9.865s9.935 4.408 9.935 9.864h7.354c0-9.46-7.732-17.143-17.289-17.143-9.557 0-17.289 7.684-17.289 17.143h7.354Zm11.895 1.74c0 1.038-.858 1.901-1.941 1.901-1.083 0-1.94-.863-1.94-1.902h-7.354c0 5.082 4.172 9.18 9.294 9.18 5.122 0 9.295-4.098 9.295-9.18h-7.354Zm-5.629 36.088h7.397c0-.375-.007-.748-.019-1.12.594-14.046 12.286-25.252 26.623-25.252v-7.278c-13.22 0-24.678 7.467-30.303 18.373-5.624-10.906-17.082-18.373-30.303-18.373v7.278c14.337 0 26.03 11.206 26.624 25.251-.013.373-.019.746-.019 1.121Z" clip-rule="evenodd"/>
  </g>
  <g clip-path="url(#l)">
    <path fill="currentColor" fill-rule="evenodd" d="M272.569 7.278c-12.849 0-23.235 10.255-23.235 22.87h-7.354C241.98 13.48 255.692 0 272.569 0c16.878 0 30.59 13.48 30.59 30.147h-7.355c0-12.614-10.386-22.869-23.235-22.869Zm-9.941 22.87c0-5.457 4.456-9.865 9.934-9.865 5.479 0 9.935 4.408 9.935 9.864h7.355c0-9.46-7.733-17.143-17.29-17.143-9.556 0-17.289 7.684-17.289 17.143h7.355Zm11.894 1.74c0 1.038-.857 1.901-1.94 1.901s-1.941-.863-1.941-1.902h-7.354c0 5.082 4.173 9.18 9.295 9.18 5.121 0 9.294-4.098 9.294-9.18h-7.354Zm-5.629 36.088h7.397c0-.375-.006-.748-.019-1.12.594-14.046 12.286-25.252 26.624-25.252v-7.278c-13.221 0-24.679 7.467-30.303 18.373-5.625-10.906-17.083-18.373-30.304-18.373v7.278c14.338 0 26.03 11.206 26.624 25.251-.013.373-.019.746-.019 1.121Z" clip-rule="evenodd"/>
  </g>
  <g clip-path="url(#m)">
    <path fill="currentColor" fill-rule="evenodd" d="M393 7.278c-12.849 0-23.235 10.255-23.235 22.87h-7.354C362.411 13.48 376.122 0 393 0c16.877 0 30.589 13.48 30.589 30.147h-7.354c0-12.614-10.386-22.869-23.235-22.869Zm-9.942 22.87c0-5.457 4.456-9.865 9.935-9.865s9.935 4.408 9.935 9.864h7.354c0-9.46-7.732-17.143-17.289-17.143-9.557 0-17.289 7.684-17.289 17.143h7.354Zm11.894 1.74c0 1.038-.857 1.901-1.94 1.901s-1.94-.863-1.94-1.902h-7.354c0 5.082 4.172 9.18 9.294 9.18 5.122 0 9.295-4.098 9.295-9.18h-7.355Zm-5.628 36.088h7.396c0-.375-.006-.748-.018-1.12.593-14.046 12.286-25.252 26.623-25.252v-7.278c-13.22 0-24.678 7.467-30.303 18.373-5.624-10.906-17.083-18.373-30.303-18.373v7.278c14.337 0 26.03 11.206 26.623 25.251-.012.373-.018.746-.018 1.121Z" clip-rule="evenodd"/>
  </g>
  <g clip-path="url(#n)">
    <path fill="currentColor" fill-rule="evenodd" d="M454 7.278c-12.849 0-23.235 10.255-23.235 22.87h-7.354C423.411 13.48 437.122 0 454 0c16.877 0 30.589 13.48 30.589 30.147h-7.354c0-12.614-10.386-22.869-23.235-22.869Zm-9.942 22.87c0-5.457 4.456-9.865 9.935-9.865s9.935 4.408 9.935 9.864h7.354c0-9.46-7.732-17.143-17.289-17.143-9.557 0-17.289 7.684-17.289 17.143h7.354Zm11.894 1.74c0 1.038-.857 1.901-1.94 1.901s-1.94-.863-1.94-1.902h-7.354c0 5.082 4.172 9.18 9.294 9.18 5.122 0 9.295-4.098 9.295-9.18h-7.355Zm-5.628 36.088h7.396c0-.375-.006-.748-.018-1.12.593-14.046 12.286-25.252 26.623-25.252v-7.278c-13.22 0-24.678 7.467-30.303 18.373-5.624-10.906-17.083-18.373-30.303-18.373v7.278c14.337 0 26.03 11.206 26.623 25.251-.012.373-.018.746-.018 1.121Z" clip-rule="evenodd"/>
  </g>
  <g clip-path="url(#o)">
    <path fill="currentColor" fill-rule="evenodd" d="M333.569 7.278c-12.849 0-23.235 10.255-23.235 22.87h-7.354C302.98 13.48 316.692 0 333.569 0c16.878 0 30.59 13.48 30.59 30.147h-7.355c0-12.614-10.386-22.869-23.235-22.869Zm-9.941 22.87c0-5.457 4.456-9.865 9.934-9.865 5.479 0 9.935 4.408 9.935 9.864h7.355c0-9.46-7.733-17.143-17.29-17.143-9.556 0-17.289 7.684-17.289 17.143h7.355Zm11.894 1.74c0 1.038-.857 1.901-1.94 1.901s-1.941-.863-1.941-1.902h-7.354c0 5.082 4.173 9.18 9.295 9.18 5.121 0 9.294-4.098 9.294-9.18h-7.354Zm-5.629 36.088h7.397c0-.375-.006-.748-.019-1.12.594-14.046 12.286-25.252 26.624-25.252v-7.278c-13.221 0-24.679 7.467-30.303 18.373-5.625-10.906-17.083-18.373-30.304-18.373v7.278c14.338 0 26.03 11.206 26.624 25.251-.013.373-.019.746-.019 1.121Z" clip-rule="evenodd"/>
  </g>
  <g clip-path="url(#p)">
    <path fill="currentColor" fill-rule="evenodd" d="M31.001 125.27c12.849 0 23.235-10.255 23.235-22.869h7.354c0 16.667-13.712 30.148-30.589 30.148-16.878 0-30.59-13.482-30.59-30.148h7.355c0 12.614 10.386 22.869 23.235 22.869Zm9.942-22.869c0 5.456-4.456 9.864-9.935 9.864s-9.935-4.408-9.935-9.864h-7.354c0 9.46 7.732 17.143 17.289 17.143 9.557 0 17.29-7.683 17.29-17.143h-7.355Zm-11.894-1.74c0-1.039.857-1.902 1.94-1.902s1.94.863 1.94 1.902h7.354c0-5.081-4.172-9.18-9.294-9.18-5.122 0-9.295 4.099-9.295 9.18h7.355Zm5.628-36.09c0 .376-.006.75-.018 1.122.593 14.045 12.286 25.251 26.623 25.251v7.278c-13.22 0-24.679-7.467-30.303-18.372C25.354 90.755 13.896 98.223.676 98.223v-7.279c14.337 0 26.03-11.206 26.623-25.25a33.957 33.957 0 0 1-.018-1.122h7.396Z" clip-rule="evenodd"/>
  </g>
  <defs>
    <clipPath id="a">
      <path fill="#fff" d="M.41 0h61.18v67.976H.41z"/>
    </clipPath>
    <clipPath id="b">
      <path fill="#fff" d="M243.043 132.548h-61.179V64.572h61.179z"/>
    </clipPath>
    <clipPath id="c">
      <path fill="#fff" d="M303.159 132.548H241.98V64.572h61.179z"/>
    </clipPath>
    <clipPath id="d">
      <path fill="#fff" d="M423.589 132.548H362.41V64.572h61.179z"/>
    </clipPath>
    <clipPath id="e">
      <path fill="#fff" d="M484.589 132.548H423.41V64.572h61.179z"/>
    </clipPath>
    <clipPath id="f">
      <path fill="#fff" d="M364.159 132.548H302.98V64.572h61.179z"/>
    </clipPath>
    <clipPath id="g">
      <path fill="#fff" d="M60.895 0h61.179v67.976H60.895z"/>
    </clipPath>
    <clipPath id="h">
      <path fill="#fff" d="M182.559 132.548H121.38V64.572h61.179z"/>
    </clipPath>
    <clipPath id="i">
      <path fill="#fff" d="M121.379 0h61.179v67.976h-61.179z"/>
    </clipPath>
    <clipPath id="j">
      <path fill="#fff" d="M122.075 132.548H60.896V64.572h61.179z"/>
    </clipPath>
    <clipPath id="k">
      <path fill="#fff" d="M181.865 0h61.179v67.976h-61.179z"/>
    </clipPath>
    <clipPath id="l">
      <path fill="#fff" d="M241.98 0h61.179v67.976H241.98z"/>
    </clipPath>
    <clipPath id="m">
      <path fill="#fff" d="M362.411 0h61.179v67.976h-61.179z"/>
    </clipPath>
    <clipPath id="n">
      <path fill="#fff" d="M423.411 0h61.179v67.976h-61.179z"/>
    </clipPath>
    <clipPath id="o">
      <path fill="#fff" d="M302.98 0h61.179v67.976H302.98z"/>
    </clipPath>
    <clipPath id="p">
      <path fill="#fff" d="M61.59 132.548H.411V64.572h61.18z"/>
    </clipPath>
  </defs>
</svg>
